<svg xmlns="http://www.w3.org/2000/svg" xmlns:svg="http://www.w3.org/2000/svg" xmlns:xlink="http://www.w3.org/1999/xlink" width="600" height="300" style="stroke:rgb(0,0,255)"><rect width="100%" height="100%" fill="white" /><line x1="50" y1="100" x2="52" y2="100" />
<line x1="52" y1="100" x2="53" y2="101.7320508" /><line x1="53" y1="101.7320508" x2="54.9999999868903" y2="101.7320508" />
<line x1="54.9999999868903" y1="101.7320508" x2="55.9999999803355" y2="100.000000011353" />
<line x1="55.9999999803355" y1="100.000000011353" x2="57.9999999541161" y2="100.000000011353" />
<line x1="57.9999999541161" y1="100.000000011353" x2="58.9999999410064" y2="101.732050788647" />
<line x1="58.9999999410064" y1="101.732050788647" x2="57.9999999672258" y2="103.46410156594" />
<line x1="57.9999999672258" y1="103.46410156594" x2="58.9999999475613" y2="105.19615233188" />
<line x1="58.9999999475613" y1="105.19615233188" x2="60.9999998951226" y2="105.19615233188" />
<line x1="60.9999998951226" y1="105.19615233188" x2="61.9999998689032" y2="106.928203086467" />
<line x1="61.9999998689032" y1="106.928203086467" x2="63.9999998033548" y2="106.928203086467" />
<line x1="63.9999998033548" y1="106.928203086467" x2="64.9999997705806" y2="108.6602538297" />
<line x1="64.9999997705806" y1="108.6602538297" x2="66.9999996919225" y2="108.6602538297" />
<line x1="66.9999996919225" y1="108.6602538297" x2="67.9999996525935" y2="106.92820309782" />
<line x1="67.9999996525935" y1="106.92820309782" x2="69.9999995608257" y2="106.92820309782" />
<line x1="69.9999995608257" y1="106.92820309782" x2="70.9999995149418" y2="105.196152377293" />
<line x1="70.9999995149418" y1="105.196152377293" x2="72.9999994100644" y2="105.196152377293" />
<line x1="72.9999994100644" y1="105.196152377293" x2="73.9999993576257" y2="103.46410166812" />
<line x1="73.9999993576257" y1="103.46410166812" x2="72.9999994231741" y2="101.732050958946" />
<line x1="72.9999994231741" y1="101.732050958946" x2="73.9999993641805" y2="100.000000261126" />
<line x1="73.9999993641805" y1="100.000000261126" x2="75.9999992330837" y2="100.000000261126" />
<line x1="75.9999992330837" y1="100.000000261126" x2="76.9999991675353" y2="101.732050947593" />
<line x1="76.9999991675353" y1="101.732050947593" x2="78.9999990233288" y2="101.732050947593" />
<line x1="78.9999990233288" y1="101.732050947593" x2="79.9999989512256" y2="100.00000027248" />
<line x1="79.9999989512256" y1="100.00000027248" x2="81.9999987939095" y2="100.00000027248" />
<line x1="81.9999987939095" y1="100.00000027248" x2="82.9999987152514" y2="101.73205093624" />
<line x1="82.9999987152514" y1="101.73205093624" x2="81.9999988070191" y2="103.4641016" />
<line x1="81.9999988070191" y1="103.4641016" x2="82.9999987218062" y2="105.196152252407" />
<line x1="82.9999987218062" y1="105.196152252407" x2="84.9999985382707" y2="105.196152252407" />
<line x1="84.9999985382707" y1="105.196152252407" x2="85.9999984465029" y2="106.92820289346" />
<line x1="85.9999984465029" y1="106.92820289346" x2="84.9999985513804" y2="108.660253534514" />
<line x1="84.9999985513804" y1="108.660253534514" x2="82.9999987545804" y2="108.660253545867" />
<line x1="82.9999987545804" y1="108.660253545867" x2="81.9999988660127" y2="110.392304175568" />
<line x1="81.9999988660127" y1="110.392304175568" x2="82.9999987611353" y2="112.124354793915" />
<line x1="82.9999987611353" y1="112.124354793915" x2="81.9999988791224" y2="113.856405412262" />
<line x1="81.9999988791224" y1="113.856405412262" x2="82.9999987676901" y2="115.588456019255" />
<line x1="82.9999987676901" y1="115.588456019255" x2="81.9999988922321" y2="117.320506626249" />
<line x1="81.9999988922321" y1="117.320506626249" x2="82.9999987742449" y2="119.052557221889" />
<line x1="82.9999987742449" y1="119.052557221889" x2="84.999998525161" y2="119.052557221889" />
<line x1="84.999998525161" y1="119.052557221889" x2="85.9999984006191" y2="120.784607806176" />
<line x1="85.9999984006191" y1="120.784607806176" x2="87.9999981384255" y2="120.784607806176" />
<line x1="87.9999981384255" y1="120.784607806176" x2="88.9999980073287" y2="122.51665837911" />
<line x1="88.9999980073287" y1="122.51665837911" x2="90.9999977320254" y2="122.51665837911" />
<line x1="90.9999977320254" y1="122.51665837911" x2="91.9999975943738" y2="120.784607817529" />
<line x1="91.9999975943738" y1="120.784607817529" x2="93.9999973059608" y2="120.784607817529" />
<line x1="93.9999973059608" y1="120.784607817529" x2="94.9999971617544" y2="122.516658367756" />
<line x1="94.9999971617544" y1="122.516658367756" x2="93.9999973190705" y2="124.248708917984" />
<line x1="93.9999973190705" y1="124.248708917984" x2="94.9999971683092" y2="125.980759456857" />
<line x1="94.9999971683092" y1="125.980759456857" x2="96.9999968536769" y2="125.980759456857" />
<line x1="96.9999968536769" y1="125.980759456857" x2="97.9999966963608" y2="127.712809984378" />
<line x1="97.9999966963608" y1="127.712809984378" x2="99.9999963686188" y2="127.712809984378" />
<line x1="99.9999963686188" y1="127.712809984378" x2="100.999996204748" y2="129.444860500545" />
<line x1="100.999996204748" y1="129.444860500545" x2="102.999995863896" y2="129.444860500545" />
<line x1="102.999995863896" y1="129.444860500545" x2="103.99999569347" y2="127.712809995731" />
<line x1="103.99999569347" y1="127.712809995731" x2="105.999995339509" y2="127.712809995731" />
<line x1="105.999995339509" y1="127.712809995731" x2="106.999995162528" y2="129.444860489192" />
<line x1="106.999995162528" y1="129.444860489192" x2="105.999995352619" y2="131.176910982652" />
<line x1="105.999995352619" y1="131.176910982652" x2="106.999995169083" y2="132.908961464759" />
<line x1="106.999995169083" y1="132.908961464759" x2="108.999994788902" y2="132.908961464759" />
<line x1="108.999994788902" y1="132.908961464759" x2="109.999994598812" y2="134.641011935513" />
<line x1="109.999994598812" y1="134.641011935513" x2="111.999994205522" y2="134.641011935513" />
<line x1="111.999994205522" y1="134.641011935513" x2="112.999994008877" y2="136.373062394914" />
<line x1="112.999994008877" y1="136.373062394914" x2="114.999993602477" y2="136.373062394914" />
<line x1="114.999993602477" y1="136.373062394914" x2="115.999993399276" y2="134.641011946866" />
<line x1="115.999993399276" y1="134.641011946866" x2="117.999992979767" y2="134.641011946866" />
<line x1="117.999992979767" y1="134.641011946866" x2="118.999992770012" y2="132.908961510173" />
<line x1="118.999992770012" y1="132.908961510173" x2="120.999992337393" y2="132.908961510173" />
<line x1="120.999992337393" y1="132.908961510173" x2="121.999992121083" y2="131.176911084832" />
<line x1="121.999992121083" y1="131.176911084832" x2="120.999992350502" y2="129.444860659491" />
<line x1="120.999992350502" y1="129.444860659491" x2="121.999992127638" y2="127.712810245504" />
<line x1="121.999992127638" y1="127.712810245504" x2="123.999991668799" y2="127.712810245504" />
<line x1="123.999991668799" y1="127.712810245504" x2="124.99999143938" y2="129.444860648138" />
<line x1="124.99999143938" y1="129.444860648138" x2="126.999990967431" y2="129.444860648138" />
<line x1="126.999990967431" y1="129.444860648138" x2="127.999990731457" y2="127.712810256857" />
<line x1="127.999990731457" y1="127.712810256857" x2="129.999990246399" y2="127.712810256857" />
<line x1="129.999990246399" y1="127.712810256857" x2="130.99999000387" y2="125.98075987693" />
<line x1="130.99999000387" y1="125.98075987693" x2="132.999989505702" y2="125.98075987693" />
<line x1="132.999989505702" y1="125.98075987693" x2="133.999989256618" y2="124.248709508356" />
<line x1="133.999989256618" y1="124.248709508356" x2="132.999989518812" y2="122.516659139782" />
<line x1="132.999989518812" y1="122.516659139782" x2="133.999989263173" y2="120.784608782561" />
<line x1="133.999989263173" y1="120.784608782561" x2="135.999988738786" y2="120.784608782561" />
<line x1="135.999988738786" y1="120.784608782561" x2="136.999988476592" y2="122.516659128429" />
<line x1="136.999988476592" y1="122.516659128429" x2="138.999987939095" y2="122.516659128429" />
<line x1="138.999987939095" y1="122.516659128429" x2="139.999987670347" y2="120.784608793914" />
<line x1="139.999987670347" y1="120.784608793914" x2="141.99998711974" y2="120.784608793914" />
<line x1="141.99998711974" y1="120.784608793914" x2="142.999986844437" y2="119.052558470754" />
<line x1="142.999986844437" y1="119.052558470754" x2="144.999986280721" y2="119.052558470754" />
<line x1="144.999986280721" y1="119.052558470754" x2="145.999985998863" y2="117.320508158946" />
<line x1="145.999985998863" y1="117.320508158946" x2="144.999986293831" y2="115.588457847139" />
<line x1="144.999986293831" y1="115.588457847139" x2="145.999986005418" y2="113.856407546685" />
<line x1="145.999986005418" y1="113.856407546685" x2="144.99998630694" y2="112.12435724623" />
<line x1="144.99998630694" y1="112.12435724623" x2="145.999986011973" y2="110.39230695713" />
<line x1="145.999986011973" y1="110.39230695713" x2="144.99998632005" y2="108.660256668029" />
<line x1="144.99998632005" y1="108.660256668029" x2="142.99998692965" y2="108.660256656675" />
<line x1="142.99998692965" y1="108.660256656675" x2="141.999987244282" y2="106.928206378928" />
<line x1="141.999987244282" y1="106.928206378928" x2="142.999986936205" y2="105.196156112534" />
<line x1="142.999986936205" y1="105.196156112534" x2="144.99998630694" y2="105.196156112534" />
<line x1="144.99998630694" y1="105.196156112534" x2="145.999985992308" y2="103.464105857493" />
<line x1="145.999985992308" y1="103.464105857493" x2="144.99998632005" y2="101.732055602452" />
<line x1="144.99998632005" y1="101.732055602452" x2="145.999985998863" y2="100.000005358764" />
<line x1="145.999985998863" y1="100.000005358764" x2="147.999985343379" y2="100.000005358764" />
<line x1="147.999985343379" y1="100.000005358764" x2="148.999985015637" y2="101.732055591098" />
<line x1="148.999985015637" y1="101.732055591098" x2="150.999984347043" y2="101.732055591098" />
<line x1="150.999984347043" y1="101.732055591098" x2="151.999984012747" y2="100.000005370117" />
<line x1="151.999984012747" y1="100.000005370117" x2="153.999983331043" y2="100.000005370117" />
<line x1="153.999983331043" y1="100.000005370117" x2="154.999982990192" y2="101.732055579745" />
<line x1="154.999982990192" y1="101.732055579745" x2="153.999983344153" y2="103.464105789373" />
<line x1="153.999983344153" y1="103.464105789373" x2="154.999982996747" y2="105.196155987647" />
<line x1="154.999982996747" y1="105.196155987647" x2="156.999982288824" y2="105.196155987647" />
<line x1="156.999982288824" y1="105.196155987647" x2="157.999981934863" y2="106.928206174568" />
<line x1="157.999981934863" y1="106.928206174568" x2="159.99998121383" y2="106.928206174568" />
<line x1="159.99998121383" y1="106.928206174568" x2="160.999980853314" y2="108.660256350136" />
<line x1="160.999980853314" y1="108.660256350136" x2="162.999980119172" y2="108.660256350136" />
<line x1="162.999980119172" y1="108.660256350136" x2="163.999979752101" y2="106.928206185921" />
<line x1="163.999979752101" y1="106.928206185921" x2="165.99997900485" y2="106.928206185921" />
<line x1="165.99997900485" y1="106.928206185921" x2="166.999978631224" y2="105.19615603306" />
<line x1="166.999978631224" y1="105.19615603306" x2="168.999977870863" y2="105.19615603306" />
<line x1="168.999977870863" y1="105.19615603306" x2="169.999977490682" y2="103.464105891553" />
<line x1="169.999977490682" y1="103.464105891553" x2="168.999977883972" y2="101.732055750045" />
<line x1="168.999977883972" y1="101.732055750045" x2="169.999977497237" y2="100.00000561989" />
<line x1="169.999977497237" y1="100.00000561989" x2="171.999976710656" y2="100.00000561989" />
<line x1="171.999976710656" y1="100.00000561989" x2="172.999976317366" y2="101.732055738691" />
<line x1="172.999976317366" y1="101.732055738691" x2="174.999975517675" y2="101.732055738691" />
<line x1="174.999975517675" y1="101.732055738691" x2="175.99997511783" y2="100.000005631244" />
<line x1="175.99997511783" y1="100.000005631244" x2="177.99997430503" y2="100.000005631244" />
<line x1="177.99997430503" y1="100.000005631244" x2="178.99997389863" y2="101.732055727338" />
<line x1="178.99997389863" y1="101.732055727338" x2="177.99997431814" y2="103.464105823433" />
<line x1="177.99997431814" y1="103.464105823433" x2="178.999973905185" y2="105.196155908174" />
<line x1="178.999973905185" y1="105.196155908174" x2="180.999973066166" y2="105.196155908174" />
<line x1="180.999973066166" y1="105.196155908174" x2="181.999972646656" y2="106.928205981562" />
<line x1="181.999972646656" y1="106.928205981562" x2="180.999973079275" y2="108.66025605495" />
<line x1="180.999973079275" y1="108.66025605495" x2="178.999973937959" y2="108.660256066303" />
<line x1="178.999973937959" y1="108.660256066303" x2="177.999974377133" y2="110.392306128338" />
<line x1="177.999974377133" y1="110.392306128338" x2="178.999973944514" y2="112.124356179019" />
<line x1="178.999973944514" y1="112.124356179019" x2="177.999974390243" y2="113.8564062297" />
<line x1="177.999974390243" y1="113.8564062297" x2="178.999973951069" y2="115.588456269028" />
<line x1="178.999973951069" y1="115.588456269028" x2="177.999974403353" y2="117.320506308356" />
<line x1="177.999974403353" y1="117.320506308356" x2="178.999973957624" y2="119.052556336331" />
<line x1="178.999973957624" y1="119.052556336331" x2="180.999973053056" y2="119.052556336331" />
<line x1="180.999973053056" y1="119.052556336331" x2="181.999972600772" y2="120.784606352952" />
<line x1="181.999972600772" y1="120.784606352952" x2="183.999971683095" y2="120.784606352952" />
<line x1="183.999971683095" y1="120.784606352952" x2="184.999971224256" y2="122.51665635822" />
<line x1="184.999971224256" y1="122.51665635822" x2="186.999970293469" y2="122.51665635822" />
<line x1="186.999970293469" y1="122.51665635822" x2="187.999969828075" y2="120.784606364306" />
<line x1="187.999969828075" y1="120.784606364306" x2="189.999968884179" y2="120.784606364306" />
<line x1="189.999968884179" y1="120.784606364306" x2="190.99996841223" y2="122.516656346867" />
<line x1="190.99996841223" y1="122.516656346867" x2="189.999968897288" y2="124.248706329429" />
<line x1="189.999968897288" y1="124.248706329429" x2="190.999968418785" y2="125.980756300637" />
<line x1="190.999968418785" y1="125.980756300637" x2="192.999967448669" y2="125.980756300637" />
<line x1="192.999967448669" y1="125.980756300637" x2="193.999966963611" y2="127.712806260491" />
<line x1="193.999966963611" y1="127.712806260491" x2="192.999967461779" y2="129.444856220346" />
<line x1="192.999967461779" y1="129.444856220346" x2="190.999968451559" y2="129.4448562317" />
<line x1="190.999968451559" y1="129.4448562317" x2="189.999968956282" y2="131.176906180201" />
<line x1="189.999968956282" y1="131.176906180201" x2="190.999968458114" y2="132.908956117349" />
<line x1="190.999968458114" y1="132.908956117349" x2="189.999968969392" y2="134.641006054497" />
<line x1="189.999968969392" y1="134.641006054497" x2="187.999969985392" y2="134.641006065851" />
<line x1="187.999969985392" y1="134.641006065851" x2="186.999970483559" y2="132.908956151409" />
<line x1="186.999970483559" y1="132.908956151409" x2="184.999971512669" y2="132.908956162762" />
<line x1="184.999971512669" y1="132.908956162762" x2="183.999972037056" y2="134.641006077204" />
<line x1="183.999972037056" y1="134.641006077204" x2="181.999973079275" y2="134.641006088557" />
<line x1="181.999973079275" y1="134.641006088557" x2="180.999973610217" y2="136.373055991646" />
<line x1="180.999973610217" y1="136.373055991646" x2="178.999974665546" y2="136.373056002999" />
<line x1="178.999974665546" y1="136.373056002999" x2="177.999975203043" y2="138.105105894734" />
<line x1="177.999975203043" y1="138.105105894734" x2="178.999974672101" y2="139.837155775116" />
<line x1="178.999974672101" y1="139.837155775116" x2="177.999975216153" y2="141.569205655497" />
<line x1="177.999975216153" y1="141.569205655497" x2="178.999974678656" y2="143.301255524526" />
<line x1="178.999974678656" y1="143.301255524526" x2="177.999975229262" y2="145.033305393554" />
<line x1="177.999975229262" y1="145.033305393554" x2="178.999974685211" y2="146.765355251229" />
<line x1="178.999974685211" y1="146.765355251229" x2="180.999973583998" y2="146.765355251229" />
<line x1="180.999973583998" y1="146.765355251229" x2="181.999973033391" y2="148.497405097551" />
<line x1="181.999973033391" y1="148.497405097551" x2="180.999973597108" y2="150.229454943872" />
<line x1="180.999973597108" y1="150.229454943872" x2="178.999974717985" y2="150.229454955226" />
<line x1="178.999974717985" y1="150.229454955226" x2="177.999975288256" y2="151.961504790194" />
<line x1="177.999975288256" y1="151.961504790194" x2="178.99997472454" y2="153.693554613809" />
<line x1="178.99997472454" y1="153.693554613809" x2="177.999975301366" y2="155.425604437424" />
<line x1="177.999975301366" y1="155.425604437424" x2="178.999974731095" y2="157.157654249686" />
<line x1="178.999974731095" y1="157.157654249686" x2="177.999975314475" y2="158.889704061948" />
<line x1="177.999975314475" y1="158.889704061948" x2="178.999974737649" y2="160.621753862856" />
<line x1="178.999974737649" y1="160.621753862856" x2="180.999973570888" y2="160.621753862856" />
<line x1="180.999973570888" y1="160.621753862856" x2="181.999972987508" y2="162.353803652411" />
<line x1="181.999972987508" y1="162.353803652411" x2="180.999973583998" y2="164.085853441967" />
<line x1="180.999973583998" y1="164.085853441967" x2="178.999974770424" y2="164.08585345332" />
<line x1="178.999974770424" y1="164.08585345332" x2="177.999975373469" y2="165.817903231522" />
<line x1="177.999975373469" y1="165.817903231522" x2="178.999974776978" y2="167.54995299837" />
<line x1="178.999974776978" y1="167.54995299837" x2="177.999975386578" y2="169.282002765219" />
<line x1="177.999975386578" y1="169.282002765219" x2="178.999974783533" y2="171.014052520714" />
<line x1="178.999974783533" y1="171.014052520714" x2="177.999975399688" y2="172.746102276209" />
<line x1="177.999975399688" y1="172.746102276209" x2="178.999974790088" y2="174.478152020351" />
<line x1="178.999974790088" y1="174.478152020351" x2="180.999973557779" y2="174.478152020351" />
<line x1="180.999973557779" y1="174.478152020351" x2="181.999972941624" y2="176.21020175314" />
<line x1="181.999972941624" y1="176.21020175314" x2="183.999971696205" y2="176.21020175314" />
<line x1="183.999971696205" y1="176.21020175314" x2="184.999971073495" y2="177.942251474575" />
<line x1="184.999971073495" y1="177.942251474575" x2="186.999969814966" y2="177.942251474575" />
<line x1="186.999969814966" y1="177.942251474575" x2="187.999969185702" y2="176.210201764493" />
<line x1="187.999969185702" y1="176.210201764493" x2="189.999967914063" y2="176.210201764493" />
<line x1="189.999967914063" y1="176.210201764493" x2="190.999967278244" y2="177.942251463222" />
<line x1="190.999967278244" y1="177.942251463222" x2="189.999967927173" y2="179.674301161951" />
<line x1="189.999967927173" y1="179.674301161951" x2="190.999967284799" y2="181.406350849326" />
<line x1="190.999967284799" y1="181.406350849326" x2="192.999965986941" y2="181.406350849326" />
<line x1="192.999965986941" y1="181.406350849326" x2="193.999965338012" y2="183.138400525348" />
<line x1="193.999965338012" y1="183.138400525348" x2="195.999964027044" y2="183.138400525348" />
<line x1="195.999964027044" y1="183.138400525348" x2="196.99996337156" y2="184.870450190017" />
<line x1="196.99996337156" y1="184.870450190017" x2="198.999962047483" y2="184.870450190017" />
<line x1="198.999962047483" y1="184.870450190017" x2="199.999961385444" y2="183.138400536701" />
<line x1="199.999961385444" y1="183.138400536701" x2="201.999960048257" y2="183.138400536701" />
<line x1="201.999960048257" y1="183.138400536701" x2="202.999959379664" y2="184.870450178663" />
<line x1="202.999959379664" y1="184.870450178663" x2="201.999960061367" y2="186.602499820626" />
<line x1="201.999960061367" y1="186.602499820626" x2="202.999959386219" y2="188.334549451234" />
<line x1="202.999959386219" y1="188.334549451234" x2="204.999958022813" y2="188.334549451234" />
<line x1="204.999958022813" y1="188.334549451234" x2="205.999957341109" y2="190.06659907049" />
<line x1="205.999957341109" y1="190.06659907049" x2="207.999955964593" y2="190.06659907049" />
<line x1="207.999955964593" y1="190.06659907049" x2="208.999955276335" y2="191.798648678392" />
<line x1="208.999955276335" y1="191.798648678392" x2="210.99995388671" y2="191.798648678392" />
<line x1="210.99995388671" y1="191.798648678392" x2="211.999953191897" y2="190.066599081843" />
<line x1="211.999953191897" y1="190.066599081843" x2="213.999951789162" y2="190.066599081843" />
<line x1="213.999951789162" y1="190.066599081843" x2="214.999951087794" y2="188.334549496648" />
<line x1="214.999951087794" y1="188.334549496648" x2="216.999949671949" y2="188.334549496648" />
<line x1="216.999949671949" y1="188.334549496648" x2="217.999948964027" y2="186.602499922805" />
<line x1="217.999948964027" y1="186.602499922805" x2="216.999949685059" y2="184.870450348963" />
<line x1="216.999949685059" y1="184.870450348963" x2="217.999948970581" y2="183.138400786474" />
<line x1="217.999948970581" y1="183.138400786474" x2="219.999947528517" y2="183.138400786474" />
<line x1="219.999947528517" y1="183.138400786474" x2="220.999946807485" y2="184.87045033761" />
<line x1="220.999946807485" y1="184.87045033761" x2="222.999945352311" y2="184.87045033761" />
<line x1="222.999945352311" y1="184.87045033761" x2="223.999944624724" y2="183.138400797827" />
<line x1="223.999944624724" y1="183.138400797827" x2="225.99994315644" y2="183.138400797827" />
<line x1="225.99994315644" y1="183.138400797827" x2="226.999942422299" y2="184.870450326256" />
<line x1="226.999942422299" y1="184.870450326256" x2="225.99994316955" y2="186.602499854686" />
<line x1="225.99994316955" y1="186.602499854686" x2="226.999942428853" y2="188.334549371761" />
<line x1="226.999942428853" y1="188.334549371761" x2="228.99994093435" y2="188.334549371761" />
<line x1="228.99994093435" y1="188.334549371761" x2="229.999940187099" y2="190.066598877484" />
<line x1="229.999940187099" y1="190.066598877484" x2="228.99994094746" y2="191.798648383206" />
<line x1="228.99994094746" y1="191.798648383206" x2="226.999942461628" y2="191.798648394559" />
<line x1="226.999942461628" y1="191.798648394559" x2="225.999943228544" y2="193.530697888929" />
<line x1="225.999943228544" y1="193.530697888929" x2="226.999942468182" y2="195.262747371944" />
<line x1="226.999942468182" y1="195.262747371944" x2="225.999943241653" y2="196.99479685496" />
<line x1="225.999943241653" y1="196.99479685496" x2="226.999942474737" y2="198.726846326623" />
<line x1="226.999942474737" y1="198.726846326623" x2="225.999943254763" y2="200.458895798285" />
<line x1="225.999943254763" y1="200.458895798285" x2="226.999942481292" y2="202.190945258594" />
<line x1="226.999942481292" y1="202.190945258594" x2="228.999940921241" y2="202.190945258594" />
<line x1="228.999940921241" y1="202.190945258594" x2="229.999940141215" y2="203.92299470755" />
<line x1="229.999940141215" y1="203.92299470755" x2="231.999938568054" y2="203.92299470755" />
<line x1="231.999938568054" y1="203.92299470755" x2="232.999937781474" y2="205.655044145153" />
<line x1="232.999937781474" y1="205.655044145153" x2="234.999936195203" y2="205.655044145153" />
<line x1="234.999936195203" y1="205.655044145153" x2="235.999935402068" y2="203.922994718904" />
<line x1="235.999935402068" y1="203.922994718904" x2="237.999933802687" y2="203.922994718904" />
<line x1="237.999933802687" y1="203.922994718904" x2="238.999933002997" y2="205.6550441338" />
<line x1="238.999933002997" y1="205.6550441338" x2="237.999933815797" y2="207.387093548696" />
<line x1="237.999933815797" y1="207.387093548696" x2="238.999933009552" y2="209.119142952238" />
<line x1="238.999933009552" y1="209.119142952238" x2="240.999931383952" y2="209.119142952238" />
<line x1="240.999931383952" y1="209.119142952238" x2="241.999930571152" y2="210.851192344428" />
<line x1="241.999930571152" y1="210.851192344428" x2="243.999928932443" y2="210.851192344428" />
<line x1="243.999928932443" y1="210.851192344428" x2="244.999928113088" y2="212.583241725264" />
<line x1="244.999928113088" y1="212.583241725264" x2="246.999926461269" y2="212.583241725264" />
<line x1="246.999926461269" y1="212.583241725264" x2="247.99992563536" y2="210.851192355781" />
<line x1="247.99992563536" y1="210.851192355781" x2="249.999923970431" y2="210.851192355781" />
<line x1="249.999923970431" y1="210.851192355781" x2="250.999923137967" y2="212.58324171391" />
<line x1="250.999923137967" y1="212.58324171391" x2="249.999923983541" y2="214.31529107204" />
<line x1="249.999923983541" y1="214.31529107204" x2="250.999923144522" y2="216.047340418816" />
<line x1="250.999923144522" y1="216.047340418816" x2="252.999921453374" y2="216.047340418816" />
<line x1="252.999921453374" y1="216.047340418816" x2="253.9999206078" y2="217.779389754239" />
<line x1="253.9999206078" y1="217.779389754239" x2="255.999918903542" y2="217.779389754239" />
<line x1="255.999918903542" y1="217.779389754239" x2="256.999918051413" y2="219.511439078308" />
<line x1="256.999918051413" y1="219.511439078308" x2="258.999916334046" y2="219.511439078308" />
<line x1="258.999916334046" y1="219.511439078308" x2="259.999915475362" y2="217.779389765592" />
<line x1="259.999915475362" y1="217.779389765592" x2="261.999913744885" y2="217.779389765592" />
<line x1="261.999913744885" y1="217.779389765592" x2="262.999912879646" y2="216.047340464229" />
<line x1="262.999912879646" y1="216.047340464229" x2="264.99991113606" y2="216.047340464229" />
<line x1="264.99991113606" y1="216.047340464229" x2="265.999910264266" y2="214.31529117422" />
<line x1="265.999910264266" y1="214.31529117422" x2="264.999911149169" y2="212.58324188421" />
<line x1="264.999911149169" y1="212.58324188421" x2="265.999910270821" y2="210.851192605554" />
<line x1="265.999910270821" y1="210.851192605554" x2="267.999908501015" y2="210.851192605554" />
<line x1="267.999908501015" y1="210.851192605554" x2="268.999907616112" y2="212.583241872857" />
<line x1="268.999907616112" y1="212.583241872857" x2="270.999905833196" y2="212.583241872857" />
<line x1="270.999905833196" y1="212.583241872857" x2="271.999904941738" y2="210.851192616907" />
<line x1="271.999904941738" y1="210.851192616907" x2="273.999903145713" y2="210.851192616907" />
<line x1="273.999903145713" y1="210.851192616907" x2="274.9999022477" y2="212.583241861503" />
<line x1="274.9999022477" y1="212.583241861503" x2="273.999903158823" y2="214.3152911061" />
<line x1="273.999903158823" y1="214.3152911061" x2="274.999902254255" y2="216.047340339343" />
<line x1="274.999902254255" y1="216.047340339343" x2="276.999900432011" y2="216.047340339343" />
<line x1="276.999900432011" y1="216.047340339343" x2="277.999899520888" y2="217.779389561233" />
<line x1="277.999899520888" y1="217.779389561233" x2="276.99990044512" y2="219.511438783122" />
<line x1="276.99990044512" y1="219.511438783122" x2="274.999902287029" y2="219.511438794476" />
<line x1="274.999902287029" y1="219.511438794476" x2="273.999903217816" y2="221.243488005012" />
<line x1="273.999903217816" y1="221.243488005012" x2="274.999902293584" y2="222.975537204195" />
<line x1="274.999902293584" y1="222.975537204195" x2="273.999903230926" y2="224.707586403379" />
<line x1="273.999903230926" y1="224.707586403379" x2="274.999902300139" y2="226.439635591208" />
<line x1="274.999902300139" y1="226.439635591208" x2="273.999903244036" y2="228.171684779038" />
<line x1="273.999903244036" y1="228.171684779038" x2="274.999902306694" y2="229.903733955515" />
<line x1="274.999902306694" y1="229.903733955515" x2="276.999900418901" y2="229.903733955515" />
<line x1="276.999900418901" y1="229.903733955515" x2="277.999899475004" y2="231.635783120638" />
<line x1="277.999899475004" y1="231.635783120638" x2="279.999897574102" y2="231.635783120638" />
<line x1="279.999897574102" y1="231.635783120638" x2="280.99989662365" y2="233.367832274408" />
<line x1="280.99989662365" y1="233.367832274408" x2="282.999894709638" y2="233.367832274408" />
<line x1="282.999894709638" y1="233.367832274408" x2="283.999893752632" y2="231.635783131991" />
<line x1="283.999893752632" y1="231.635783131991" x2="285.99989182551" y2="231.635783131991" />
<line x1="285.99989182551" y1="231.635783131991" x2="286.999890861949" y2="233.367832263055" />
<line x1="286.999890861949" y1="233.367832263055" x2="285.999891838619" y2="235.099881394118" />
<line x1="285.999891838619" y1="235.099881394118" x2="286.999890868503" y2="236.831930513828" />
<line x1="286.999890868503" y1="236.831930513828" x2="288.999888915162" y2="236.831930513828" />
<line x1="288.999888915162" y1="236.831930513828" x2="289.999887938491" y2="238.563979622185" />
<line x1="289.999887938491" y1="238.563979622185" x2="291.99988597204" y2="238.563979622185" />
<line x1="291.99988597204" y1="238.563979622185" x2="292.999884988815" y2="240.296028719188" />
<line x1="292.999884988815" y1="240.296028719188" x2="294.999883009254" y2="240.296028719188" />
<line x1="294.999883009254" y1="240.296028719188" x2="295.999882019474" y2="238.563979633538" />
<line x1="295.999882019474" y1="238.563979633538" x2="297.999880026803" y2="238.563979633538" />
<line x1="297.999880026803" y1="238.563979633538" x2="298.999879030468" y2="240.296028707835" />
<line x1="298.999879030468" y1="240.296028707835" x2="297.999880039913" y2="242.028077782132" />
<line x1="297.999880039913" y1="242.028077782132" x2="298.999879037023" y2="243.760126845075" />
<line x1="298.999879037023" y1="243.760126845075" x2="300.999877018133" y2="243.760126845075" />
<line x1="300.999877018133" y1="243.760126845075" x2="301.999876008688" y2="245.492175896666" />
<line x1="301.999876008688" y1="245.492175896666" x2="303.999873976689" y2="245.492175896666" />
<line x1="303.999873976689" y1="245.492175896666" x2="304.999872960689" y2="247.224224936902" />
<line x1="304.999872960689" y1="247.224224936902" x2="306.99987091558" y2="247.224224936902" />
<line x1="306.99987091558" y1="247.224224936902" x2="307.999869893025" y2="245.492175908019" />
<line x1="307.999869893025" y1="245.492175908019" x2="309.999867834807" y2="245.492175908019" />
<line x1="309.999867834807" y1="245.492175908019" x2="310.999866805697" y2="243.760126890489" />
<line x1="310.999866805697" y1="243.760126890489" x2="312.999864734369" y2="243.760126890489" />
<line x1="312.999864734369" y1="243.760126890489" x2="313.999863698705" y2="242.028077884312" />
<line x1="313.999863698705" y1="242.028077884312" x2="312.999864747479" y2="240.296028878135" />
<line x1="312.999864747479" y1="240.296028878135" x2="313.99986370526" y2="238.563979883311" />
<line x1="313.99986370526" y1="238.563979883311" x2="315.999861607712" y2="238.563979883311" />
<line x1="315.999861607712" y1="238.563979883311" x2="316.999860558938" y2="240.296028866781" />
<line x1="316.999860558938" y1="240.296028866781" x2="318.999858448281" y2="240.296028866781" />
<line x1="318.999858448281" y1="240.296028866781" x2="319.999857392952" y2="238.563979894664" />
<line x1="319.999857392952" y1="238.563979894664" x2="321.999855269185" y2="238.563979894664" />
<line x1="321.999855269185" y1="238.563979894664" x2="322.999854207301" y2="236.8319309339" />
<line x1="322.999854207301" y1="236.8319309339" x2="324.999852070425" y2="236.8319309339" />
<line x1="324.999852070425" y1="236.8319309339" x2="325.999851001986" y2="235.09988198449" />
<line x1="325.999851001986" y1="235.09988198449" x2="324.999852083534" y2="233.367833035079" />
<line x1="324.999852083534" y1="233.367833035079" x2="325.999851008541" y2="231.635784097022" />
<line x1="325.999851008541" y1="231.635784097022" x2="327.999848845445" y2="231.635784097022" />
<line x1="327.999848845445" y1="231.635784097022" x2="328.999847763897" y2="233.367833023726" />
<line x1="328.999847763897" y1="233.367833023726" x2="330.999845587691" y2="233.367833023726" />
<line x1="330.999845587691" y1="233.367833023726" x2="331.999844499588" y2="231.635784108376" />
<line x1="331.999844499588" y1="231.635784108376" x2="333.999842310273" y2="231.635784108376" />
<line x1="333.999842310273" y1="231.635784108376" x2="334.999841215615" y2="229.903735204378" />
<line x1="334.999841215615" y1="229.903735204378" x2="336.99983901319" y2="229.903735204378" />
<line x1="336.99983901319" y1="229.903735204378" x2="337.999837911978" y2="228.171686311734" />
<line x1="337.999837911978" y1="228.171686311734" x2="336.9998390263" y2="226.43963741909" />
<line x1="336.9998390263" y1="226.43963741909" x2="337.999837918532" y2="224.7075885378" />
<line x1="337.999837918532" y1="224.7075885378" x2="336.999839039409" y2="222.975539656509" />
<line x1="336.999839039409" y1="222.975539656509" x2="337.999837925087" y2="221.243490786572" />
<line x1="337.999837925087" y1="221.243490786572" x2="336.999839052519" y2="219.511441916635" />
<line x1="336.999839052519" y1="219.511441916635" x2="334.999841300828" y2="219.511441905281" />
<line x1="334.999841300828" y1="219.511441905281" x2="333.999842434815" y2="217.779393046697" />
<line x1="333.999842434815" y1="217.779393046697" x2="334.999841307383" y2="216.047344199466" />
<line x1="334.999841307383" y1="216.047344199466" x2="336.999839039409" y2="216.047344199466" />
<line x1="336.999839039409" y1="216.047344199466" x2="337.999837905423" y2="214.315295363589" />
<line x1="337.999837905423" y1="214.315295363589" x2="336.999839052519" y2="212.583246527712" />
<line x1="336.999839052519" y1="212.583246527712" x2="337.999837911978" y2="210.851197703187" />
<line x1="337.999837911978" y1="210.851197703187" x2="339.999835617785" y2="210.851197703187" />
<line x1="339.999835617785" y1="210.851197703187" x2="340.999834470688" y2="212.583246516358" />
<line x1="340.999834470688" y1="212.583246516358" x2="342.999832163386" y2="212.583246516358" />
<line x1="342.999832163386" y1="212.583246516358" x2="343.999831009735" y2="210.851197714541" />
<line x1="343.999831009735" y1="210.851197714541" x2="345.999828689323" y2="210.851197714541" />
<line x1="345.999828689323" y1="210.851197714541" x2="346.999827529117" y2="212.583246505005" />
<line x1="346.999827529117" y1="212.583246505005" x2="345.999828702432" y2="214.315295295469" />
<line x1="345.999828702432" y1="214.315295295469" x2="346.999827535672" y2="216.04734407458" />
<line x1="346.999827535672" y1="216.04734407458" x2="348.99982518904" y2="216.04734407458" />
<line x1="348.99982518904" y1="216.04734407458" x2="349.999824015725" y2="217.779392842338" />
<line x1="349.999824015725" y1="217.779392842338" x2="351.999821655983" y2="217.779392842338" />
<line x1="351.999821655983" y1="217.779392842338" x2="352.999820476113" y2="219.511441598742" />
<line x1="352.999820476113" y1="219.511441598742" x2="354.999818103262" y2="219.511441598742" />
<line x1="354.999818103262" y1="219.511441598742" x2="355.999816916837" y2="217.779392853691" />
<line x1="355.999816916837" y1="217.779392853691" x2="357.999814530876" y2="217.779392853691" />
<line x1="357.999814530876" y1="217.779392853691" x2="358.999813337896" y2="216.047344119993" />
<line x1="358.999813337896" y1="216.047344119993" x2="360.999810938826" y2="216.047344119993" />
<line x1="360.999810938826" y1="216.047344119993" x2="361.999809739291" y2="214.315295397649" />
<line x1="361.999809739291" y1="214.315295397649" x2="360.999810951936" y2="212.583246675305" />
<line x1="360.999810951936" y1="212.583246675305" x2="361.999809745846" y2="210.851197964313" />
<line x1="361.999809745846" y1="210.851197964313" x2="363.999807320557" y2="210.851197964313" />
<line x1="363.999807320557" y1="210.851197964313" x2="364.999806107912" y2="212.583246663951" />
<line x1="364.999806107912" y1="212.583246663951" x2="366.999803669513" y2="212.583246663951" />
<line x1="366.999803669513" y1="212.583246663951" x2="367.999802450313" y2="210.851197975667" />
<line x1="367.999802450313" y1="210.851197975667" x2="369.999799998805" y2="210.851197975667" />
<line x1="369.999799998805" y1="210.851197975667" x2="370.99979877305" y2="209.119149298736" />
<line x1="370.99979877305" y1="209.119149298736" x2="372.999796308432" y2="209.119149298736" />
<line x1="372.999796308432" y1="209.119149298736" x2="373.999795076123" y2="207.387100633158" />
<line x1="373.999795076123" y1="207.387100633158" x2="372.999796321542" y2="205.65505196758" />
<line x1="372.999796321542" y1="205.65505196758" x2="373.999795082678" y2="203.923003313355" />
<line x1="373.999795082678" y1="203.923003313355" x2="375.99979259184" y2="203.923003313355" />
<line x1="375.99979259184" y1="203.923003313355" x2="376.999791346421" y2="205.655051956226" />
<line x1="376.999791346421" y1="205.655051956226" x2="378.999788842474" y2="205.655051956226" />
<line x1="378.999788842474" y1="205.655051956226" x2="379.9997875905" y2="203.923003324708" />
<line x1="379.9997875905" y1="203.923003324708" x2="381.999785073443" y2="203.923003324708" />
<line x1="381.999785073443" y1="203.923003324708" x2="382.999783814915" y2="202.190954704544" />
<line x1="382.999783814915" y1="202.190954704544" x2="384.999781284748" y2="202.190954704544" />
<line x1="384.999781284748" y1="202.190954704544" x2="385.999780019664" y2="200.458906095732" />
<line x1="385.999780019664" y1="200.458906095732" x2="384.999781297857" y2="198.726857486921" />
<line x1="384.999781297857" y1="198.726857486921" x2="385.999780026219" y2="196.994808889463" />
<line x1="385.999780026219" y1="196.994808889463" x2="384.999781310967" y2="195.262760292005" />
<line x1="384.999781310967" y1="195.262760292005" x2="385.999780032774" y2="193.5307117059" />
<line x1="385.999780032774" y1="193.5307117059" x2="384.999781324077" y2="191.798663119795" />
<line x1="384.999781324077" y1="191.798663119795" x2="382.999783900127" y2="191.798663108442" />
<line x1="382.999783900127" y1="191.798663108442" x2="381.999785197985" y2="190.06661453369" />
<line x1="381.999785197985" y1="190.06661453369" x2="382.999783906682" y2="188.334565970292" />
<line x1="382.999783906682" y1="188.334565970292" x2="384.999781310967" y2="188.334565970292" />
<line x1="384.999781310967" y1="188.334565970292" x2="385.99978001311" y2="186.602517418247" />
<line x1="385.99978001311" y1="186.602517418247" x2="384.999781324077" y2="184.870468866203" />
<line x1="384.999781324077" y1="184.870468866203" x2="385.999780019665" y2="183.138420325511" />
<line x1="385.999780019665" y1="183.138420325511" x2="387.99977739773" y2="183.138420325511" />
<line x1="387.99977739773" y1="183.138420325511" x2="388.999776086763" y2="184.870468854849" />
<line x1="388.999776086763" y1="184.870468854849" x2="390.999773451719" y2="184.870468854849" />
<line x1="390.999773451719" y1="184.870468854849" x2="391.999772134197" y2="183.138420336864" />
<line x1="391.999772134197" y1="183.138420336864" x2="393.999769486043" y2="183.138420336864" />
<line x1="393.999769486043" y1="183.138420336864" x2="394.999768161967" y2="184.870468843496" />
<line x1="394.999768161967" y1="184.870468843496" x2="393.999769499153" y2="186.602517350128" />
<line x1="393.999769499153" y1="186.602517350128" x2="394.999768168521" y2="188.334565845406" />
<line x1="394.999768168521" y1="188.334565845406" x2="396.999765494148" y2="188.334565845406" />
<line x1="396.999765494148" y1="188.334565845406" x2="397.999764156962" y2="190.066614329331" />
<line x1="397.999764156962" y1="190.066614329331" x2="399.999761469479" y2="190.066614329331" />
<line x1="399.999761469479" y1="190.066614329331" x2="400.999760125738" y2="191.798662801903" />
<line x1="400.999760125738" y1="191.798662801903" x2="402.999757425146" y2="191.798662801903" />
<line x1="402.999757425146" y1="191.798662801903" x2="403.999756074849" y2="190.066614340684" />
<line x1="403.999756074849" y1="190.066614340684" x2="405.999753361147" y2="190.066614340684" />
<line x1="405.999753361147" y1="190.066614340684" x2="406.999752004297" y2="188.334565890819" />
<line x1="406.999752004297" y1="188.334565890819" x2="408.999749277485" y2="188.334565890819" />
<line x1="408.999749277485" y1="188.334565890819" x2="409.999747914079" y2="186.602517452307" />
<line x1="409.999747914079" y1="186.602517452307" x2="408.999749290594" y2="184.870469013795" />
<line x1="408.999749290594" y1="184.870469013795" x2="409.999747920634" y2="183.138420586637" />
<line x1="409.999747920634" y1="183.138420586637" x2="411.999745167603" y2="183.138420586637" />
<line x1="411.999745167603" y1="183.138420586637" x2="412.999743791087" y2="184.870469002442" />
<line x1="412.999743791087" y1="184.870469002442" x2="414.999741024947" y2="184.870469002442" />
<line x1="414.999741024947" y1="184.870469002442" x2="415.999739641876" y2="183.13842059799" />
<line x1="415.999739641876" y1="183.13842059799" x2="417.999736862626" y2="183.13842059799" />
<line x1="417.999736862626" y1="183.13842059799" x2="418.999735473001" y2="181.406372204892" />
<line x1="418.999735473001" y1="181.406372204892" x2="420.999732680641" y2="181.406372204892" />
<line x1="420.999732680641" y1="181.406372204892" x2="421.999731284461" y2="179.674323823146" />
<line x1="421.999731284461" y1="179.674323823146" x2="420.999732693751" y2="177.942275441401" />
<line x1="420.999732693751" y1="177.942275441401" x2="421.999731291016" y2="176.210227071009" />
<line x1="421.999731291016" y1="176.210227071009" x2="423.999728472437" y2="176.210227071009" />
<line x1="423.999728472437" y1="176.210227071009" x2="424.999727063147" y2="177.942275430048" />
<line x1="424.999727063147" y1="177.942275430048" x2="426.999724231458" y2="177.942275430048" />
<line x1="426.999724231458" y1="177.942275430048" x2="427.999722815614" y2="176.210227082362" />
<line x1="427.999722815614" y1="176.210227082362" x2="429.999719970815" y2="176.210227082362" />
<line x1="429.999719970815" y1="176.210227082362" x2="430.999718548416" y2="174.47817874603" />
<line x1="430.999718548416" y1="174.47817874603" x2="432.999715690508" y2="174.47817874603" />
<line x1="432.999715690508" y1="174.47817874603" x2="433.999714261553" y2="172.746130421051" />
<line x1="433.999714261553" y1="172.746130421051" x2="432.999715703617" y2="171.014082096072" />
<line x1="432.999715703617" y1="171.014082096072" x2="433.999714268108" y2="169.282033782447" />
<line x1="433.999714268108" y1="169.282033782447" x2="432.999715716727" y2="167.549985468821" />
<line x1="432.999715716727" y1="167.549985468821" x2="433.999714274663" y2="165.817937166549" />
<line x1="433.999714274663" y1="165.817937166549" x2="432.999715729836" y2="164.085888864276" />
<line x1="432.999715729836" y1="164.085888864276" x2="430.999718633629" y2="164.085888852923" />
<line x1="430.999718633629" y1="164.085888852923" x2="429.999720095357" y2="162.353840562004" />
<line x1="429.999720095357" y1="162.353840562004" x2="430.999718640183" y2="160.621792282439" />
<line x1="430.999718640183" y1="160.621792282439" x2="432.999715716727" y2="160.621792282439" />
<line x1="432.999715716727" y1="160.621792282439" x2="433.999714254998" y2="158.889744014226" />
<line x1="433.999714254998" y1="158.889744014226" x2="432.999715729836" y2="157.157695746014" />
<line x1="432.999715729836" y1="157.157695746014" x2="433.999714261553" y2="155.425647489155" />
<line x1="433.999714261553" y1="155.425647489155" x2="432.999715742946" y2="153.693599232296" />
<line x1="432.999715742946" y1="153.693599232296" x2="433.999714268108" y2="151.96155098679" />
<line x1="433.999714268108" y1="151.96155098679" x2="432.999715756056" y2="150.229502741284" />
<line x1="432.999715756056" y1="150.229502741284" x2="430.999718725396" y2="150.229502729931" />
<line x1="430.999718725396" y1="150.229502729931" x2="429.999720219899" y2="148.497454495778" />
<line x1="429.999720219899" y1="148.497454495778" x2="430.999718731951" y2="146.765406272979" />
<line x1="430.999718731951" y1="146.765406272979" x2="432.999715742946" y2="146.765406272979" />
<line x1="432.999715742946" y1="146.765406272979" x2="433.999714248444" y2="145.033358061533" />
<line x1="433.999714248444" y1="145.033358061533" x2="432.999715756056" y2="143.301309850087" />
<line x1="432.999715756056" y1="143.301309850087" x2="433.999714254998" y2="141.569261649995" />
<line x1="433.999714254998" y1="141.569261649995" x2="432.999715769165" y2="139.837213449902" />
<line x1="432.999715769165" y1="139.837213449902" x2="433.999714261553" y2="138.105165261163" />
<line x1="433.999714261553" y1="138.105165261163" x2="432.999715782275" y2="136.373117072424" />
<line x1="432.999715782275" y1="136.373117072424" x2="430.999718817164" y2="136.37311706107" />
<line x1="430.999718817164" y1="136.37311706107" x2="429.99972034444" y2="134.641068883685" />
<line x1="429.99972034444" y1="134.641068883685" x2="427.999723392439" y2="134.641068872331" />
<line x1="427.999723392439" y1="134.641068872331" x2="426.99972492627" y2="132.909020706299" />
<line x1="426.99972492627" y1="132.909020706299" x2="424.999727987378" y2="132.909020694945" />
<line x1="424.999727987378" y1="132.909020694945" x2="423.9997295081" y2="134.641068838271" />
<line x1="423.9997295081" y1="134.641068838271" x2="421.999732582317" y2="134.641068826918" />
<line x1="421.999732582317" y1="134.641068826918" x2="420.999734129258" y2="132.909020683592" />
<line x1="420.999734129258" y1="132.909020683592" x2="421.999732588872" y2="131.176972551619" />
<line x1="421.999732588872" y1="131.176972551619" x2="420.999734142368" y2="129.444924419646" />
<line x1="420.999734142368" y1="129.444924419646" x2="418.999737242805" y2="129.444924408293" />
<line x1="418.999737242805" y1="129.444924408293" x2="417.999738802856" y2="127.712876287674" />
<line x1="417.999738802856" y1="127.712876287674" x2="418.99973724936" y2="125.980828178407" />
<line x1="418.99973724936" y1="125.980828178407" x2="420.999734129259" y2="125.980828178407" />
<line x1="420.999734129259" y1="125.980828178407" x2="421.999732569208" y2="124.248780080494" />
<line x1="421.999732569208" y1="124.248780080494" x2="420.999734142368" y2="122.516731982582" />
<line x1="420.999734142368" y1="122.516731982582" x2="421.999732575763" y2="120.784683896022" />
<line x1="421.999732575763" y1="120.784683896022" x2="423.999729429442" y2="120.784683896022" />
<line x1="423.999729429442" y1="120.784683896022" x2="424.999727856281" y2="122.516731971228" />
<line x1="424.999727856281" y1="122.516731971228" x2="426.999724696851" y2="122.516731971228" />
<line x1="426.999724696851" y1="122.516731971228" x2="427.999723117136" y2="120.784683907375" />
<line x1="427.999723117136" y1="120.784683907375" x2="429.999719944596" y2="120.784683907375" />
<line x1="429.999719944596" y1="120.784683907375" x2="430.999718358326" y2="119.052635854876" />
<line x1="430.999718358326" y1="119.052635854876" x2="432.999715172676" y2="119.052635854876" />
<line x1="432.999715172676" y1="119.052635854876" x2="433.999713579851" y2="117.320587813729" />
<line x1="433.999713579851" y1="117.320587813729" x2="432.999715185785" y2="115.588539772583" />
<line x1="432.999715185785" y1="115.588539772583" x2="433.999713586406" y2="113.85649174279" />
<line x1="433.999713586406" y1="113.85649174279" x2="432.999715198895" y2="112.124443712997" />
<line x1="432.999715198895" y1="112.124443712997" x2="433.999713592961" y2="110.392395694557" />
<line x1="433.999713592961" y1="110.392395694557" x2="432.999715212005" y2="108.660347676117" />
<line x1="432.999715212005" y1="108.660347676117" x2="430.999718443538" y2="108.660347664764" />
<line x1="430.999718443538" y1="108.660347664764" x2="429.999720069137" y2="106.928299657677" />
<line x1="429.999720069137" y1="106.928299657677" x2="430.999718450093" y2="105.196251661944" />
<line x1="430.999718450093" y1="105.196251661944" x2="432.999715198895" y2="105.196251661944" />
<line x1="432.999715198895" y1="105.196251661944" x2="433.999713573296" y2="103.464203677564" />
<line x1="433.999713573296" y1="103.464203677564" x2="432.999715212005" y2="101.732155693184" />
<line x1="432.999715212005" y1="101.732155693184" x2="433.999713579851" y2="100.000107720158" />
<line x1="433.999713579851" y1="100.000107720158" x2="435.999710302434" y2="100.000107720158" />
<line x1="435.999710302434" y1="100.000107720158" x2="436.999708663725" y2="101.732155681831" />
<line x1="436.999708663725" y1="101.732155681831" x2="438.999705373198" y2="101.732155681831" />
<line x1="438.999705373198" y1="101.732155681831" x2="439.999703727934" y2="100.000107731511" />
<line x1="439.999703727934" y1="100.000107731511" x2="441.999700424298" y2="100.000107731511" />
<line x1="441.999700424298" y1="100.000107731511" x2="442.999698772479" y2="101.732155670478" />
<line x1="442.999698772479" y1="101.732155670478" x2="441.999700437407" y2="103.464203609444" />
<line x1="441.999700437407" y1="103.464203609444" x2="442.999698779034" y2="105.196251537058" />
<line x1="442.999698779034" y1="105.196251537058" x2="444.999695449178" y2="105.196251537058" />
<line x1="444.999695449178" y1="105.196251537058" x2="445.99969378425" y2="106.928299453318" />
<line x1="445.99969378425" y1="106.928299453318" x2="447.999690441284" y2="106.928299453318" />
<line x1="447.999690441284" y1="106.928299453318" x2="448.999688769802" y2="108.660347358225" />
<line x1="448.999688769802" y1="108.660347358225" x2="450.999685413726" y2="108.660347358225" />
<line x1="450.999685413726" y1="108.660347358225" x2="451.999683735689" y2="106.928299464671" />
<line x1="451.999683735689" y1="106.928299464671" x2="453.999680366504" y2="106.928299464671" />
<line x1="453.999680366504" y1="106.928299464671" x2="454.999678681911" y2="105.196251582471" />
<line x1="454.999678681911" y1="105.196251582471" x2="456.999675299616" y2="105.196251582471" />
<line x1="456.999675299616" y1="105.196251582471" x2="457.999673608469" y2="103.464203711624" />
<line x1="457.999673608469" y1="103.464203711624" x2="456.999675312726" y2="101.732155840777" />
<line x1="456.999675312726" y1="101.732155840777" x2="457.999673615024" y2="100.000107981284" />
<line x1="457.999673615024" y1="100.000107981284" x2="459.99967020651" y2="100.000107981284" />
<line x1="459.99967020651" y1="100.000107981284" x2="460.999668502253" y2="101.732155829424" />
<line x1="460.999668502253" y1="101.732155829424" x2="462.999665080629" y2="101.732155829424" />
<line x1="462.999665080629" y1="101.732155829424" x2="463.999663369818" y2="100.000107992637" />
<line x1="463.999663369818" y1="100.000107992637" x2="465.999659935084" y2="100.000107992637" />
<line x1="465.999659935084" y1="100.000107992637" x2="466.999658217718" y2="101.732155818071" />
<line x1="466.999658217718" y1="101.732155818071" x2="465.999659948194" y2="103.464203643504" />
<line x1="465.999659948194" y1="103.464203643504" x2="466.999658224273" y2="105.196251457585" />
<line x1="466.999658224273" y1="105.196251457585" x2="468.99965476332" y2="105.196251457585" />
<line x1="468.99965476332" y1="105.196251457585" x2="469.999653032844" y2="106.928299260312" />
<line x1="469.999653032844" y1="106.928299260312" x2="468.99965477643" y2="108.660347063039" />
<line x1="468.99965477643" y1="108.660347063039" x2="466.999658257047" y2="108.660347074392" />
<line x1="466.999658257047" y1="108.660347074392" x2="465.999660007187" y2="110.392394865766" />
<line x1="465.999660007187" y1="110.392394865766" x2="466.999658263601" y2="112.124442645787" />
<line x1="466.999658263601" y1="112.124442645787" x2="465.999660020297" y2="113.856490425807" />
<line x1="465.999660020297" y1="113.856490425807" x2="466.999658270156" y2="115.588538194475" />
<line x1="466.999658270156" y1="115.588538194475" x2="465.999660033407" y2="117.320585963142" />
<line x1="465.999660033407" y1="117.320585963142" x2="466.999658276711" y2="119.052633720456" />
<line x1="466.999658276711" y1="119.052633720456" x2="468.99965475021" y2="119.052633720456" />
<line x1="468.99965475021" y1="119.052633720456" x2="469.99965298696" y2="120.784681466416" />
<line x1="469.99965298696" y1="120.784681466416" x2="471.999649447349" y2="120.784681466416" />
<line x1="471.999649447349" y1="120.784681466416" x2="472.999647677544" y2="122.516729201024" />
<line x1="472.999647677544" y1="122.516729201024" x2="474.999644124824" y2="122.516729201024" />
<line x1="474.999644124824" y1="122.516729201024" x2="475.999642348464" y2="120.78468147777" />
<line x1="475.999642348464" y1="120.78468147777" x2="477.999638782634" y2="120.78468147777" />
<line x1="477.999638782634" y1="120.78468147777" x2="478.999636999719" y2="122.516729189671" />
<line x1="478.999636999719" y1="122.516729189671" x2="477.999638795744" y2="124.248776901571" />
<line x1="477.999638795744" y1="124.248776901571" x2="478.999637006274" y2="125.980824602119" />
<line x1="478.999637006274" y1="125.980824602119" x2="480.999633414225" y2="125.980824602119" />
<line x1="480.999633414225" y1="125.980824602119" x2="481.9996316182" y2="127.712872291313" />
<line x1="481.9996316182" y1="127.712872291313" x2="483.999628013041" y2="127.712872291313" />
<line x1="483.999628013041" y1="127.712872291313" x2="484.999626210462" y2="129.444919969154" />
<line x1="484.999626210462" y1="129.444919969154" x2="486.999622592193" y2="129.444919969154" />
<line x1="486.999622592193" y1="129.444919969154" x2="487.999620783059" y2="127.712872302666" />
<line x1="487.999620783059" y1="127.712872302666" x2="489.999617151681" y2="127.712872302666" />
<line x1="489.999617151681" y1="127.712872302666" x2="490.999615335992" y2="129.444919957801" />
<line x1="490.999615335992" y1="129.444919957801" x2="489.999617164791" y2="131.176967612935" />
<line x1="489.999617164791" y1="131.176967612935" x2="490.999615342547" y2="132.909015256716" />
<line x1="490.999615342547" y1="132.909015256716" x2="492.999611684949" y2="132.909015256716" />
<line x1="492.999611684949" y1="132.909015256716" x2="493.999609856151" y2="134.641062889144" />
<line x1="493.999609856151" y1="134.641062889144" x2="495.999606185443" y2="134.641062889144" />
<line x1="495.999606185443" y1="134.641062889144" x2="496.99960435009" y2="136.373110510218" />
<line x1="496.99960435009" y1="136.373110510218" x2="498.999600666273" y2="136.373110510218" />
<line x1="498.999600666273" y1="136.373110510218" x2="499.999598824365" y2="134.641062900497" />
<line x1="499.999598824365" y1="134.641062900497" x2="501.999595127438" y2="134.641062900497" />
<line x1="501.999595127438" y1="134.641062900497" x2="502.999593278975" y2="132.909015302129" />
<line x1="502.999593278975" y1="132.909015302129" x2="504.999589568939" y2="132.909015302129" />
<line x1="504.999589568939" y1="132.909015302129" x2="505.999587713921" y2="131.176967715115" />
<line x1="505.999587713921" y1="131.176967715115" x2="504.999589582049" y2="129.4449201281" />
<line x1="504.999589582049" y1="129.4449201281" x2="505.999587720476" y2="127.712872552439" />
<line x1="505.999587720476" y1="127.712872552439" x2="507.99958398422" y2="127.712872552439" />
<line x1="507.99958398422" y1="127.712872552439" x2="508.999582116093" y2="129.444920116747" />
<line x1="508.999582116093" y1="129.444920116747" x2="510.999578366728" y2="129.444920116747" />
<line x1="510.999578366728" y1="129.444920116747" x2="511.999576492045" y2="127.712872563792" />
<line x1="511.999576492045" y1="127.712872563792" x2="513.999572729571" y2="127.712872563792" />
<line x1="513.999572729571" y1="127.712872563792" x2="514.999570848333" y2="125.980825022191" />
<line x1="514.999570848333" y1="125.980825022191" x2="516.999567072749" y2="125.980825022191" />
<line x1="516.999567072749" y1="125.980825022191" x2="517.999565184957" y2="124.248777491943" />
<line x1="517.999565184957" y1="124.248777491943" x2="516.999567085858" y2="122.516729961695" />
<line x1="516.999567085858" y1="122.516729961695" x2="517.999565191511" y2="120.7846824428" />
<line x1="517.999565191511" y1="120.7846824428" x2="519.999561389708" y2="120.7846824428" />
<line x1="519.999561389708" y1="120.7846824428" x2="520.999559488806" y2="122.516729950341" />
<line x1="520.999559488806" y1="122.516729950341" x2="522.999555673893" y2="122.516729950341" />
<line x1="522.999555673893" y1="122.516729950341" x2="523.999553766436" y2="120.784682454153" />
<line x1="523.999553766436" y1="120.784682454153" x2="525.999549938413" y2="120.784682454153" />
<line x1="525.999549938413" y1="120.784682454153" x2="526.999548024402" y2="119.052634969318" />
<line x1="526.999548024402" y1="119.052634969318" x2="528.999544183269" y2="119.052634969318" />
<line x1="528.999544183269" y1="119.052634969318" x2="529.999542262703" y2="117.320587495837" />
<line x1="529.999542262703" y1="117.320587495837" x2="528.999544196379" y2="115.588540022355" />
<line x1="528.999544196379" y1="115.588540022355" x2="529.999542269258" y2="113.856492560227" />
<line x1="529.999542269258" y1="113.856492560227" x2="528.999544209488" y2="112.124445098098" />
<line x1="528.999544209488" y1="112.124445098098" x2="529.999542275812" y2="110.392397647323" />
<line x1="529.999542275812" y1="110.392397647323" x2="528.999544222598" y2="108.660350196548" />
<line x1="528.999544222598" y1="108.660350196548" x2="526.999548109614" y2="108.660350185195" />
<line x1="526.999548109614" y1="108.660350185195" x2="525.999550062955" y2="106.928302745773" />
<line x1="525.999550062955" y1="106.928302745773" x2="526.999548116169" y2="105.196255317705" />
<line x1="526.999548116169" y1="105.196255317705" x2="528.999544209488" y2="105.196255317705" />
<line x1="528.999544209488" y1="105.196255317705" x2="529.999542256148" y2="103.46420790099" />
<line x1="529.999542256148" y1="103.46420790099" x2="528.999544222598" y2="101.732160484275" />
<line x1="528.999544222598" y1="101.732160484275" x2="529.999542262703" y2="100.000113078913" />
<line x1="529.999542262703" y1="100.000113078913" x2="531.999538329802" y2="100.000113078913" />
<line x1="531.999538329802" y1="100.000113078913" x2="532.999536363352" y2="101.732160472922" />
<line x1="532.999536363352" y1="101.732160472922" x2="534.999532417342" y2="101.732160472922" />
<line x1="534.999532417342" y1="101.732160472922" x2="535.999530444338" y2="100.000113090266" />
<line x1="535.999530444338" y1="100.000113090266" x2="537.999526485218" y2="100.000113090266" />
<line x1="537.999526485218" y1="100.000113090266" x2="538.999524505658" y2="101.732160461568" />
<line x1="538.999524505658" y1="101.732160461568" x2="537.999526498328" y2="103.46420783287" />
<line x1="537.999526498328" y1="103.46420783287" x2="538.999524512213" y2="105.196255192819" />
<line x1="538.999524512213" y1="105.196255192819" x2="540.999520526874" y2="105.196255192819" />
<line x1="540.999520526874" y1="105.196255192819" x2="541.999518534205" y2="106.928302541414" />
<line x1="541.999518534205" y1="106.928302541414" x2="543.999514535756" y2="106.928302541414" />
<line x1="543.999514535756" y1="106.928302541414" x2="544.999512536532" y2="108.660349878656" />
<line x1="544.999512536532" y1="108.660349878656" x2="546.999508524974" y2="108.660349878656" />
<line x1="546.999508524974" y1="108.660349878656" x2="547.999506519195" y2="106.928302552768" />
<line x1="547.999506519195" y1="106.928302552768" x2="549.999502494527" y2="106.928302552768" />
<line x1="549.999502494527" y1="106.928302552768" x2="550.999500482193" y2="105.196255238232" />
<line x1="550.999500482193" y1="105.196255238232" x2="552.999496444416" y2="105.196255238232" />
<line x1="552.999496444416" y1="105.196255238232" x2="553.999494425527" y2="103.46420793505" />
<line x1="553.999494425527" y1="103.46420793505" x2="552.999496457526" y2="101.732160631868" />
<line x1="552.999496457526" y1="101.732160631868" x2="553.999494432082" y2="100.000113340039" />
<line x1="553.999494432082" y1="100.000113340039" x2="555.999490368085" y2="100.000113340039" />
<line x1="555.999490368085" y1="100.000113340039" x2="556.999488336087" y2="101.732160620514" />
<line x1="556.999488336087" y1="101.732160620514" x2="558.99948425898" y2="101.732160620514" />
<line x1="558.99948425898" y1="101.732160620514" x2="559.999482220427" y2="100.000113351392" />
<line x1="559.999482220427" y1="100.000113351392" x2="561.999478130211" y2="100.000113351392" />
</svg>

