<svg xmlns="http://www.w3.org/2000/svg" xmlns:svg="http://www.w3.org/2000/svg" xmlns:xlink="http://www.w3.org/1999/xlink" width="600" height="300" style="stroke:rgb(0,0,255)"><rect width="100%" height="100%" fill="white" /><polyline points="50,100,52,100,53,101.73,54,100,56,100,57,101.73,56,103.46,58,103.46,59,105.2,60,103.46,62,103.46,61,101.73,62,100,64,100,65,101.73,66,100,68,100,69,101.73,68,103.46,70,103.46,71,105.2,70,106.93,68,106.93,69,108.66,68,110.39,70,110.39,71,112.12,72,110.39,74,110.39,75,112.12,74,113.86,76,113.86,77,115.59,78,113.86,80,113.86,79,112.12,80,110.39,82,110.39,83,112.12,84,110.39,86,110.39,85,108.66,86,106.93,84,106.93,83,105.2,84,103.46,86,103.46,85,101.73,86,100,88,100,89,101.73,90,100,92,100,93,101.73,92,103.46,94,103.46,95,105.2,96,103.46,98,103.46,97,101.73,98,100,100,100,101,101.73,102,100,104,100,105,101.73,104,103.46,106,103.46,107,105.2,106,106.93,104,106.93,105,108.66,104,110.39,106,110.39,107,112.12,108,110.39,110,110.39,111,112.12,110,113.86,112,113.86,113,115.59,112,117.32,110,117.32,111,119.05,110,120.78,108,120.78,107,119.05,106,120.78,104,120.78,105,122.52,104,124.25,106,124.25,107,125.98,106,127.71,104,127.71,105,129.44,104,131.18,106,131.18,107,132.91,108,131.18,110,131.18,111,132.91,110,134.64,112,134.64,113,136.37,114,134.64,116,134.64,115,132.91,116,131.18,118,131.18,119,132.91,120,131.18,122,131.18,123,132.91,122,134.64,124,134.64,125,136.37,124,138.11,122,138.11,123,139.84,122,141.57,124,141.57,125,143.3,126,141.57,128,141.57,129,143.3,128,145.03,130,145.03,131,146.77,132,145.03,134,145.03,133,143.3,134,141.57,136,141.57,137,143.3,138,141.57,140,141.57,139,139.84,140,138.11,138,138.11,137,136.37,138,134.64,140,134.64,139,132.91,140,131.18,142,131.18,143,132.91,144,131.18,146,131.18,147,132.91,146,134.64,148,134.64,149,136.37,150,134.64,152,134.64,151,132.91,152,131.18,154,131.18,155,132.91,156,131.18,158,131.18,157,129.44,158,127.71,156,127.71,155,125.98,156,124.25,158,124.25,157,122.52,158,120.78,156,120.78,155,119.05,154,120.78,152,120.78,151,119.05,152,117.32,150,117.32,149,115.59,150,113.86,152,113.86,151,112.12,152,110.39,154,110.39,155,112.12,156,110.39,158,110.39,157,108.66,158,106.93,156,106.93,155,105.2,156,103.46,158,103.46,157,101.73,158,100,160,100,161,101.73,162,100,164,100,165,101.73,164,103.46,166,103.46,167,105.2,168,103.46,170,103.46,169,101.73,170,100,172,100,173,101.73,174,100,176,100,177,101.73,176,103.46,178,103.46,179,105.2,178,106.93,176,106.93,177,108.66,176,110.39,178,110.39,179,112.12,180,110.39,182,110.39,183,112.12,182,113.86,184,113.86,185,115.59,186,113.86,188,113.86,187,112.12,188,110.39,190,110.39,191,112.12,192,110.39,194,110.39,193,108.66,194,106.93,192,106.93,191,105.2,192,103.46,194,103.46,193,101.73,194,100,196,100,197,101.73,198,100,200,100,201,101.73,200,103.46,202,103.46,203,105.2,204,103.46,206,103.46,205,101.73,206,100,208,100,209,101.73,210,100,212,100,213,101.73,212,103.46,214,103.46,215,105.2,214,106.93,212,106.93,213,108.66,212,110.39,214,110.39,215,112.12,216,110.39,218,110.39,219,112.12,218,113.86,220,113.86,221,115.59,220,117.32,218,117.32,219,119.05,218,120.78,216,120.78,215,119.05,214,120.78,212,120.78,213,122.52,212,124.25,214,124.25,215,125.98,214,127.71,212,127.71,213,129.44,212,131.18,214,131.18,215,132.91,216,131.18,218,131.18,219,132.91,218,134.64,220,134.64,221,136.37,222,134.64,224,134.64,223,132.91,224,131.18,226,131.18,227,132.91,228,131.18,230,131.18,231,132.91,230,134.64,232,134.64,233,136.37,232,138.11,230,138.11,231,139.84,230,141.57,232,141.57,233,143.3,234,141.57,236,141.57,237,143.3,236,145.03,238,145.03,239,146.77,238,148.5,236,148.5,237,150.23,236,151.96,234,151.96,233,150.23,232,151.96,230,151.96,231,153.69,230,155.43,232,155.43,233,157.16,232,158.89,230,158.89,231,160.62,230,162.35,228,162.35,227,160.62,226,162.35,224,162.35,223,160.62,224,158.89,222,158.89,221,157.16,220,158.89,218,158.89,219,160.62,218,162.35,216,162.35,215,160.62,214,162.35,212,162.35,213,164.09,212,165.82,214,165.82,215,167.55,214,169.28,212,169.28,213,171.01,212,172.75,214,172.75,215,174.48,216,172.75,218,172.75,219,174.48,218,176.21,220,176.21,221,177.94,220,179.67,218,179.67,219,181.41,218,183.14,216,183.14,215,181.41,214,183.14,212,183.14,213,184.87,212,186.6,214,186.6,215,188.33,214,190.07,212,190.07,213,191.8,212,193.53,214,193.53,215,195.26,216,193.53,218,193.53,219,195.26,218,196.99,220,196.99,221,198.73,222,196.99,224,196.99,223,195.26,224,193.53,226,193.53,227,195.26,228,193.53,230,193.53,231,195.26,230,196.99,232,196.99,233,198.73,232,200.46,230,200.46,231,202.19,230,203.92,232,203.92,233,205.65,234,203.92,236,203.92,237,205.65,236,207.39,238,207.39,239,209.12,240,207.39,242,207.39,241,205.65,242,203.92,244,203.92,245,205.65,246,203.92,248,203.92,247,202.19,248,200.46,246,200.46,245,198.73,246,196.99,248,196.99,247,195.26,248,193.53,250,193.53,251,195.26,252,193.53,254,193.53,255,195.26,254,196.99,256,196.99,257,198.73,258,196.99,260,196.99,259,195.26,260,193.53,262,193.53,263,195.26,264,193.53,266,193.53,267,195.26,266,196.99,268,196.99,269,198.73,268,200.46,266,200.46,267,202.19,266,203.92,268,203.92,269,205.65,270,203.92,272,203.92,273,205.65,272,207.39,274,207.39,275,209.12,274,210.85,272,210.85,273,212.58,272,214.32,270,214.32,269,212.58,268,214.32,266,214.32,267,216.05,266,217.78,268,217.78,269,219.51,268,221.24,266,221.24,267,222.98,266,224.71,268,224.71,269,226.44,270,224.71,272,224.71,273,226.44,272,228.17,274,228.17,275,229.9,276,228.17,278,228.17,277,226.44,278,224.71,280,224.71,281,226.44,282,224.71,284,224.71,285,226.44,284,228.17,286,228.17,287,229.9,286,231.64,284,231.64,285,233.37,284,235.1,286,235.1,287,236.83,288,235.1,290,235.1,291,236.83,290,238.56,292,238.56,293,240.3,294,238.56,296,238.56,295,236.83,296,235.1,298,235.1,299,236.83,300,235.1,302,235.1,301,233.37,302,231.64,300,231.64,299,229.9,300,228.17,302,228.17,301,226.44,302,224.71,304,224.71,305,226.44,306,224.71,308,224.71,309,226.44,308,228.17,310,228.17,311,229.9,312,228.17,314,228.17,313,226.44,314,224.71,316,224.71,317,226.44,318,224.71,320,224.71,319,222.98,320,221.24,318,221.24,317,219.51,318,217.78,320,217.78,319,216.05,320,214.32,318,214.32,317,212.58,316,214.32,314,214.32,313,212.58,314,210.85,312,210.85,311,209.12,312,207.39,314,207.39,313,205.65,314,203.92,316,203.92,317,205.65,318,203.92,320,203.92,319,202.19,320,200.46,318,200.46,317,198.73,318,196.99,320,196.99,319,195.26,320,193.53,322,193.53,323,195.26,324,193.53,326,193.53,327,195.26,326,196.99,328,196.99,329,198.73,330,196.99,332,196.99,331,195.26,332,193.53,334,193.53,335,195.26,336,193.53,338,193.53,339,195.26,338,196.99,340,196.99,341,198.73,340,200.46,338,200.46,339,202.19,338,203.92,340,203.92,341,205.65,342,203.92,344,203.92,345,205.65,344,207.39,346,207.39,347,209.12,348,207.39,350,207.39,349,205.65,350,203.92,352,203.92,353,205.65,354,203.92,356,203.92,355,202.19,356,200.46,354,200.46,353,198.73,354,196.99,356,196.99,355,195.26,356,193.53,358,193.53,359,195.26,360,193.53,362,193.53,363,195.26,362,196.99,364,196.99,365,198.73,366,196.99,368,196.99,367,195.26,368,193.53,370,193.53,371,195.26,372,193.53,374,193.53,373,191.8,374,190.07,372,190.07,371,188.33,372,186.6,374,186.6,373,184.87,374,183.14,372,183.14,371,181.41,370,183.14,368,183.14,367,181.41,368,179.67,366,179.67,365,177.94,366,176.21,368,176.21,367,174.48,368,172.75,370,172.75,371,174.48,372,172.75,374,172.75,373,171.01,374,169.28,372,169.28,371,167.55,372,165.82,374,165.82,373,164.09,374,162.35,372,162.35,371,160.62,370,162.35,368,162.35,367,160.62,368,158.89,366,158.89,365,157.16,364,158.89,362,158.89,363,160.62,362,162.35,360,162.35,359,160.62,358,162.35,356,162.35,355,160.62,356,158.89,354,158.89,353,157.16,354,155.43,356,155.43,355,153.69,356,151.96,354,151.96,353,150.23,352,151.96,350,151.96,349,150.23,350,148.5,348,148.5,347,146.77,348,145.03,350,145.03,349,143.3,350,141.57,352,141.57,353,143.3,354,141.57,356,141.57,355,139.84,356,138.11,354,138.11,353,136.37,354,134.64,356,134.64,355,132.91,356,131.18,358,131.18,359,132.91,360,131.18,362,131.18,363,132.91,362,134.64,364,134.64,365,136.37,366,134.64,368,134.64,367,132.91,368,131.18,370,131.18,371,132.91,372,131.18,374,131.18,373,129.44,374,127.71,372,127.71,371,125.98,372,124.25,374,124.25,373,122.52,374,120.78,372,120.78,371,119.05,370,120.78,368,120.78,367,119.05,368,117.32,366,117.32,365,115.59,366,113.86,368,113.86,367,112.12,368,110.39,370,110.39,371,112.12,372,110.39,374,110.39,373,108.66,374,106.93,372,106.93,371,105.2,372,103.46,374,103.46,373,101.73,374,100,376,100,377,101.73,378,100,380,100,381,101.73,380,103.46,382,103.46,383,105.2,384,103.46,386,103.46,385,101.73,386,100,388,100,389,101.73,390,100,392,100,393,101.73,392,103.46,394,103.46,395,105.2,394,106.93,392,106.93,393,108.66,392,110.39,394,110.39,395,112.12,396,110.39,398,110.39,399,112.12,398,113.86,400,113.86,401,115.59,402,113.86,404,113.86,403,112.12,404,110.39,406,110.39,407,112.12,408,110.39,410,110.39,409,108.66,410,106.93,408,106.93,407,105.2,408,103.46,410,103.46,409,101.73,410,100,412,100,413,101.73,414,100,416,100,417,101.73,416,103.46,418,103.46,419,105.2,420,103.46,422,103.46,421,101.73,422,100,424,100,425,101.73,426,100,428,100,429,101.73,428,103.46,430,103.46,431,105.2,430,106.93,428,106.93,429,108.66,428,110.39,430,110.39,431,112.12,432,110.39,434,110.39,435,112.12,434,113.86,436,113.86,437,115.59,436,117.32,434,117.32,435,119.05,434,120.78,432,120.78,431,119.05,430,120.78,428,120.78,429,122.52,428,124.25,430,124.25,431,125.98,430,127.71,428,127.71,429,129.44,428,131.18,430,131.18,431,132.91,432,131.18,434,131.18,435,132.91,434,134.64,436,134.64,437,136.37,438,134.64,440,134.64,439,132.91,440,131.18,442,131.18,443,132.91,444,131.18,446,131.18,447,132.91,446,134.64,448,134.64,449,136.37,448,138.11,446,138.11,447,139.84,446,141.57,448,141.57,449,143.3,450,141.57,452,141.57,453,143.3,452,145.03,454,145.03,455,146.77,456,145.03,458,145.03,457,143.3,458,141.57,460,141.57,461,143.3,462,141.57,464,141.57,463,139.84,464,138.11,462,138.11,461,136.37,462,134.64,464,134.64,463,132.91,464,131.18,466,131.18,467,132.91,468,131.18,470,131.18,471,132.91,470,134.64,472,134.64,473,136.37,474,134.64,476,134.64,475,132.91,476,131.18,478,131.18,479,132.91,480,131.18,482,131.18,481,129.44,482,127.71,480,127.71,479,125.98,480,124.25,482,124.25,481,122.52,482,120.78,480,120.78,479,119.05,478,120.78,476,120.78,475,119.05,476,117.32,474,117.32,473,115.59,474,113.86,476,113.86,475,112.12,476,110.39,478,110.39,479,112.12,480,110.39,482,110.39,481,108.66,482,106.93,480,106.93,479,105.2,480,103.46,482,103.46,481,101.73,482,100,484,100,485,101.73,486,100,488,100,489,101.73,488,103.46,490,103.46,491,105.2,492,103.46,494,103.46,493,101.73,494,100,496,100,497,101.73,498,100,500,100,501,101.73,500,103.46,502,103.46,503,105.2,502,106.93,500,106.93,501,108.66,500,110.39,502,110.39,503,112.12,504,110.39,506,110.39,507,112.12,506,113.86,508,113.86,509,115.59,510,113.86,512,113.86,511,112.12,512,110.39,514,110.39,515,112.12,516,110.39,518,110.39,517,108.66,518,106.93,516,106.93,515,105.2,516,103.46,518,103.46,517,101.73,518,100,520,100,521,101.73,522,100,524,100,525,101.73,524,103.46,526,103.46,527,105.2,528,103.46,530,103.46,529,101.73,530,100,532,100,533,101.73,534,100,536,100" fill="white" />
</svg>

