<svg xmlns="http://www.w3.org/2000/svg" xmlns:svg="http://www.w3.org/2000/svg" xmlns:xlink="http://www.w3.org/1999/xlink" width="500" height="300" style="stroke:rgb(0,0,255)"><rect width="100%" height="100%" fill="white" /><line x1="450" y1="250" x2="445" y2="250" />
<line x1="445" y1="250" x2="445" y2="245" /><line x1="445" y1="245" x2="440" y2="245" />
<line x1="440" y1="245" x2="440" y2="250" /><line x1="440" y1="250" x2="435" y2="250" />
<line x1="435" y1="250" x2="435" y2="245" /><line x1="435" y1="245" x2="440" y2="245" />
<line x1="440" y1="245" x2="440" y2="240" /><line x1="440" y1="240" x2="435" y2="240" />
<line x1="435" y1="240" x2="435" y2="235" /><line x1="435" y1="235" x2="430" y2="235" />
<line x1="430" y1="235" x2="430" y2="230" /><line x1="430" y1="230" x2="425" y2="230" />
<line x1="425" y1="230" x2="425" y2="235" /><line x1="425" y1="235" x2="420" y2="235" />
<line x1="420" y1="235" x2="420" y2="240" /><line x1="420" y1="240" x2="415" y2="240" />
<line x1="415" y1="240" x2="415" y2="245" /><line x1="415" y1="245" x2="420" y2="245" />
<line x1="420" y1="245" x2="420" y2="250" /><line x1="420" y1="250" x2="415" y2="250" />
<line x1="415" y1="250" x2="415" y2="245" /><line x1="415" y1="245" x2="410" y2="245" />
<line x1="410" y1="245" x2="410" y2="250" /><line x1="410" y1="250" x2="405" y2="250" />
<line x1="405" y1="250" x2="405" y2="245" /><line x1="405" y1="245" x2="410" y2="245" />
<line x1="410" y1="245" x2="410" y2="240" /><line x1="410" y1="240" x2="405" y2="240" />
<line x1="405" y1="240" x2="405" y2="235" /><line x1="405" y1="235" x2="410" y2="235" />
<line x1="410" y1="235" x2="410" y2="240" /><line x1="410" y1="240" x2="415" y2="240" />
<line x1="415" y1="240" x2="415" y2="235" /><line x1="415" y1="235" x2="420" y2="235" />
<line x1="420" y1="235" x2="420" y2="230" /><line x1="420" y1="230" x2="425" y2="230" />
<line x1="425" y1="230" x2="425" y2="225" /><line x1="425" y1="225" x2="420" y2="225" />
<line x1="420" y1="225" x2="420" y2="220" /><line x1="420" y1="220" x2="415" y2="220" />
<line x1="415" y1="220" x2="415" y2="215" /><line x1="415" y1="215" x2="410" y2="215" />
<line x1="410" y1="215" x2="410" y2="220" /><line x1="410" y1="220" x2="405" y2="220" />
<line x1="405" y1="220" x2="405" y2="215" /><line x1="405" y1="215" x2="410" y2="215" />
<line x1="410" y1="215" x2="410" y2="210" /><line x1="410" y1="210" x2="405" y2="210" />
<line x1="405" y1="210" x2="405" y2="205" /><line x1="405" y1="205" x2="400" y2="205" />
<line x1="400" y1="205" x2="400" y2="200" /><line x1="400" y1="200" x2="395" y2="200" />
<line x1="395" y1="200" x2="395" y2="205" /><line x1="395" y1="205" x2="390" y2="205" />
<line x1="390" y1="205" x2="390" y2="200" /><line x1="390" y1="200" x2="395" y2="200" />
<line x1="395" y1="200" x2="395" y2="195" /><line x1="395" y1="195" x2="390" y2="195" />
<line x1="390" y1="195" x2="390" y2="190" /><line x1="390" y1="190" x2="385" y2="190" />
<line x1="385" y1="190" x2="385" y2="185" /><line x1="385" y1="185" x2="380" y2="185" />
<line x1="380" y1="185" x2="380" y2="190" /><line x1="380" y1="190" x2="375" y2="190" />
<line x1="375" y1="190" x2="375" y2="195" /><line x1="375" y1="195" x2="370" y2="195" />
<line x1="370" y1="195" x2="370" y2="200" /><line x1="370" y1="200" x2="375" y2="200" />
<line x1="375" y1="200" x2="375" y2="205" /><line x1="375" y1="205" x2="370" y2="205" />
<line x1="370" y1="205" x2="370" y2="200" /><line x1="370" y1="200" x2="365" y2="200" />
<line x1="365" y1="200" x2="365" y2="205" /><line x1="365" y1="205" x2="360" y2="205" />
<line x1="360" y1="205" x2="360" y2="210" /><line x1="360" y1="210" x2="355" y2="210" />
<line x1="355" y1="210" x2="355" y2="215" /><line x1="355" y1="215" x2="360" y2="215" />
<line x1="360" y1="215" x2="360" y2="220" /><line x1="360" y1="220" x2="355" y2="220" />
<line x1="355" y1="220" x2="355" y2="215" /><line x1="355" y1="215" x2="350" y2="215" />
<line x1="350" y1="215" x2="350" y2="220" /><line x1="350" y1="220" x2="345" y2="220" />
<line x1="345" y1="220" x2="345" y2="225" /><line x1="345" y1="225" x2="340" y2="225" />
<line x1="340" y1="225" x2="340" y2="230" /><line x1="340" y1="230" x2="345" y2="230" />
<line x1="345" y1="230" x2="345" y2="235" /><line x1="345" y1="235" x2="350" y2="235" />
<line x1="350" y1="235" x2="350" y2="240" /><line x1="350" y1="240" x2="355" y2="240" />
<line x1="355" y1="240" x2="355" y2="235" /><line x1="355" y1="235" x2="360" y2="235" />
<line x1="360" y1="235" x2="360" y2="240" /><line x1="360" y1="240" x2="355" y2="240" />
<line x1="355" y1="240" x2="355" y2="245" /><line x1="355" y1="245" x2="360" y2="245" />
<line x1="360" y1="245" x2="360" y2="250" /><line x1="360" y1="250" x2="355" y2="250" />
<line x1="355" y1="250" x2="355" y2="245" /><line x1="355" y1="245" x2="350" y2="245" />
<line x1="350" y1="245" x2="350" y2="250" /><line x1="350" y1="250" x2="345" y2="250" />
<line x1="345" y1="250" x2="345" y2="245" /><line x1="345" y1="245" x2="350" y2="245" />
<line x1="350" y1="245" x2="350" y2="240" /><line x1="350" y1="240" x2="345" y2="240" />
<line x1="345" y1="240" x2="345" y2="235" /><line x1="345" y1="235" x2="340" y2="235" />
<line x1="340" y1="235" x2="340" y2="230" /><line x1="340" y1="230" x2="335" y2="230" />
<line x1="335" y1="230" x2="335" y2="235" /><line x1="335" y1="235" x2="330" y2="235" />
<line x1="330" y1="235" x2="330" y2="240" /><line x1="330" y1="240" x2="325" y2="240" />
<line x1="325" y1="240" x2="325" y2="245" /><line x1="325" y1="245" x2="330" y2="245" />
<line x1="330" y1="245" x2="330" y2="250" /><line x1="330" y1="250" x2="325" y2="250" />
<line x1="325" y1="250" x2="325" y2="245" /><line x1="325" y1="245" x2="320" y2="245" />
<line x1="320" y1="245" x2="320" y2="250" /><line x1="320" y1="250" x2="315" y2="250" />
<line x1="315" y1="250" x2="315" y2="245" /><line x1="315" y1="245" x2="320" y2="245" />
<line x1="320" y1="245" x2="320" y2="240" /><line x1="320" y1="240" x2="315" y2="240" />
<line x1="315" y1="240" x2="315" y2="235" /><line x1="315" y1="235" x2="320" y2="235" />
<line x1="320" y1="235" x2="320" y2="240" /><line x1="320" y1="240" x2="325" y2="240" />
<line x1="325" y1="240" x2="325" y2="235" /><line x1="325" y1="235" x2="330" y2="235" />
<line x1="330" y1="235" x2="330" y2="230" /><line x1="330" y1="230" x2="335" y2="230" />
<line x1="335" y1="230" x2="335" y2="225" /><line x1="335" y1="225" x2="330" y2="225" />
<line x1="330" y1="225" x2="330" y2="220" /><line x1="330" y1="220" x2="325" y2="220" />
<line x1="325" y1="220" x2="325" y2="215" /><line x1="325" y1="215" x2="320" y2="215" />
<line x1="320" y1="215" x2="320" y2="220" /><line x1="320" y1="220" x2="315" y2="220" />
<line x1="315" y1="220" x2="315" y2="215" /><line x1="315" y1="215" x2="320" y2="215" />
<line x1="320" y1="215" x2="320" y2="210" /><line x1="320" y1="210" x2="315" y2="210" />
<line x1="315" y1="210" x2="315" y2="205" /><line x1="315" y1="205" x2="320" y2="205" />
<line x1="320" y1="205" x2="320" y2="210" /><line x1="320" y1="210" x2="325" y2="210" />
<line x1="325" y1="210" x2="325" y2="205" /><line x1="325" y1="205" x2="330" y2="205" />
<line x1="330" y1="205" x2="330" y2="210" /><line x1="330" y1="210" x2="325" y2="210" />
<line x1="325" y1="210" x2="325" y2="215" /><line x1="325" y1="215" x2="330" y2="215" />
<line x1="330" y1="215" x2="330" y2="220" /><line x1="330" y1="220" x2="335" y2="220" />
<line x1="335" y1="220" x2="335" y2="225" /><line x1="335" y1="225" x2="340" y2="225" />
<line x1="340" y1="225" x2="340" y2="220" /><line x1="340" y1="220" x2="345" y2="220" />
<line x1="345" y1="220" x2="345" y2="215" /><line x1="345" y1="215" x2="350" y2="215" />
<line x1="350" y1="215" x2="350" y2="210" /><line x1="350" y1="210" x2="345" y2="210" />
<line x1="345" y1="210" x2="345" y2="205" /><line x1="345" y1="205" x2="350" y2="205" />
<line x1="350" y1="205" x2="350" y2="210" /><line x1="350" y1="210" x2="355" y2="210" />
<line x1="355" y1="210" x2="355" y2="205" /><line x1="355" y1="205" x2="360" y2="205" />
<line x1="360" y1="205" x2="360" y2="200" /><line x1="360" y1="200" x2="365" y2="200" />
<line x1="365" y1="200" x2="365" y2="195" /><line x1="365" y1="195" x2="360" y2="195" />
<line x1="360" y1="195" x2="360" y2="190" /><line x1="360" y1="190" x2="365" y2="190" />
<line x1="365" y1="190" x2="365" y2="195" /><line x1="365" y1="195" x2="370" y2="195" />
<line x1="370" y1="195" x2="370" y2="190" /><line x1="370" y1="190" x2="375" y2="190" />
<line x1="375" y1="190" x2="375" y2="185" /><line x1="375" y1="185" x2="380" y2="185" />
<line x1="380" y1="185" x2="380" y2="180" /><line x1="380" y1="180" x2="375" y2="180" />
<line x1="375" y1="180" x2="375" y2="175" /><line x1="375" y1="175" x2="370" y2="175" />
<line x1="370" y1="175" x2="370" y2="170" /><line x1="370" y1="170" x2="365" y2="170" />
<line x1="365" y1="170" x2="365" y2="175" /><line x1="365" y1="175" x2="360" y2="175" />
<line x1="360" y1="175" x2="360" y2="170" /><line x1="360" y1="170" x2="365" y2="170" />
<line x1="365" y1="170" x2="365" y2="165" /><line x1="365" y1="165" x2="360" y2="165" />
<line x1="360" y1="165" x2="360" y2="160" /><line x1="360" y1="160" x2="355" y2="160" />
<line x1="355" y1="160" x2="355" y2="155" /><line x1="355" y1="155" x2="350" y2="155" />
<line x1="350" y1="155" x2="350" y2="160" /><line x1="350" y1="160" x2="345" y2="160" />
<line x1="345" y1="160" x2="345" y2="155" /><line x1="345" y1="155" x2="350" y2="155" />
<line x1="350" y1="155" x2="350" y2="150" /><line x1="350" y1="150" x2="345" y2="150" />
<line x1="345" y1="150" x2="345" y2="145" /><line x1="345" y1="145" x2="340" y2="145" />
<line x1="340" y1="145" x2="340" y2="140" /><line x1="340" y1="140" x2="335" y2="140" />
<line x1="335" y1="140" x2="335" y2="145" /><line x1="335" y1="145" x2="330" y2="145" />
<line x1="330" y1="145" x2="330" y2="150" /><line x1="330" y1="150" x2="325" y2="150" />
<line x1="325" y1="150" x2="325" y2="155" /><line x1="325" y1="155" x2="330" y2="155" />
<line x1="330" y1="155" x2="330" y2="160" /><line x1="330" y1="160" x2="325" y2="160" />
<line x1="325" y1="160" x2="325" y2="155" /><line x1="325" y1="155" x2="320" y2="155" />
<line x1="320" y1="155" x2="320" y2="160" /><line x1="320" y1="160" x2="315" y2="160" />
<line x1="315" y1="160" x2="315" y2="155" /><line x1="315" y1="155" x2="320" y2="155" />
<line x1="320" y1="155" x2="320" y2="150" /><line x1="320" y1="150" x2="315" y2="150" />
<line x1="315" y1="150" x2="315" y2="145" /><line x1="315" y1="145" x2="320" y2="145" />
<line x1="320" y1="145" x2="320" y2="150" /><line x1="320" y1="150" x2="325" y2="150" />
<line x1="325" y1="150" x2="325" y2="145" /><line x1="325" y1="145" x2="330" y2="145" />
<line x1="330" y1="145" x2="330" y2="140" /><line x1="330" y1="140" x2="335" y2="140" />
<line x1="335" y1="140" x2="335" y2="135" /><line x1="335" y1="135" x2="330" y2="135" />
<line x1="330" y1="135" x2="330" y2="130" /><line x1="330" y1="130" x2="325" y2="130" />
<line x1="325" y1="130" x2="325" y2="125" /><line x1="325" y1="125" x2="320" y2="125" />
<line x1="320" y1="125" x2="320" y2="130" /><line x1="320" y1="130" x2="315" y2="130" />
<line x1="315" y1="130" x2="315" y2="125" /><line x1="315" y1="125" x2="320" y2="125" />
<line x1="320" y1="125" x2="320" y2="120" /><line x1="320" y1="120" x2="315" y2="120" />
<line x1="315" y1="120" x2="315" y2="115" /><line x1="315" y1="115" x2="310" y2="115" />
<line x1="310" y1="115" x2="310" y2="110" /><line x1="310" y1="110" x2="305" y2="110" />
<line x1="305" y1="110" x2="305" y2="115" /><line x1="305" y1="115" x2="300" y2="115" />
<line x1="300" y1="115" x2="300" y2="110" /><line x1="300" y1="110" x2="305" y2="110" />
<line x1="305" y1="110" x2="305" y2="105" /><line x1="305" y1="105" x2="300" y2="105" />
<line x1="300" y1="105" x2="300" y2="100" /><line x1="300" y1="100" x2="295" y2="100" />
<line x1="295" y1="100" x2="295" y2="95" /><line x1="295" y1="95" x2="290" y2="95" />
<line x1="290" y1="95" x2="290" y2="100" /><line x1="290" y1="100" x2="285" y2="100" />
<line x1="285" y1="100" x2="285" y2="105" /><line x1="285" y1="105" x2="280" y2="105" />
<line x1="280" y1="105" x2="280" y2="110" /><line x1="280" y1="110" x2="285" y2="110" />
<line x1="285" y1="110" x2="285" y2="115" /><line x1="285" y1="115" x2="280" y2="115" />
<line x1="280" y1="115" x2="280" y2="110" /><line x1="280" y1="110" x2="275" y2="110" />
<line x1="275" y1="110" x2="275" y2="115" /><line x1="275" y1="115" x2="270" y2="115" />
<line x1="270" y1="115" x2="270" y2="110" /><line x1="270" y1="110" x2="275" y2="110" />
<line x1="275" y1="110" x2="275" y2="105" /><line x1="275" y1="105" x2="270" y2="105" />
<line x1="270" y1="105" x2="270" y2="100" /><line x1="270" y1="100" x2="275" y2="100" />
<line x1="275" y1="100" x2="275" y2="105" /><line x1="275" y1="105" x2="280" y2="105" />
<line x1="280" y1="105" x2="280" y2="100" /><line x1="280" y1="100" x2="285" y2="100" />
<line x1="285" y1="100" x2="285" y2="95" /><line x1="285" y1="95" x2="290" y2="95" />
<line x1="290" y1="95" x2="290" y2="90" /><line x1="290" y1="90" x2="285" y2="90" />
<line x1="285" y1="90" x2="285" y2="85" /><line x1="285" y1="85" x2="280" y2="85" />
<line x1="280" y1="85" x2="280" y2="80" /><line x1="280" y1="80" x2="275" y2="80" />
<line x1="275" y1="80" x2="275" y2="85" /><line x1="275" y1="85" x2="270" y2="85" />
<line x1="270" y1="85" x2="270" y2="80" /><line x1="270" y1="80" x2="275" y2="80" />
<line x1="275" y1="80" x2="275" y2="75" /><line x1="275" y1="75" x2="270" y2="75" />
<line x1="270" y1="75" x2="270" y2="70" /><line x1="270" y1="70" x2="265" y2="70" />
<line x1="265" y1="70" x2="265" y2="65" /><line x1="265" y1="65" x2="260" y2="65" />
<line x1="260" y1="65" x2="260" y2="70" /><line x1="260" y1="70" x2="255" y2="70" />
<line x1="255" y1="70" x2="255" y2="65" /><line x1="255" y1="65" x2="260" y2="65" />
<line x1="260" y1="65" x2="260" y2="60" /><line x1="260" y1="60" x2="255" y2="60" />
<line x1="255" y1="60" x2="255" y2="55" /><line x1="255" y1="55" x2="250" y2="55" />
<line x1="250" y1="55" x2="250" y2="50" /><line x1="250" y1="50" x2="245" y2="50" />
<line x1="245" y1="50" x2="245" y2="55" /><line x1="245" y1="55" x2="240" y2="55" />
<line x1="240" y1="55" x2="240" y2="60" /><line x1="240" y1="60" x2="235" y2="60" />
<line x1="235" y1="60" x2="235" y2="65" /><line x1="235" y1="65" x2="240" y2="65" />
<line x1="240" y1="65" x2="240" y2="70" /><line x1="240" y1="70" x2="235" y2="70" />
<line x1="235" y1="70" x2="235" y2="65" /><line x1="235" y1="65" x2="230" y2="65" />
<line x1="230" y1="65" x2="230" y2="70" /><line x1="230" y1="70" x2="225" y2="70" />
<line x1="225" y1="70" x2="225" y2="75" /><line x1="225" y1="75" x2="220" y2="75" />
<line x1="220" y1="75" x2="220" y2="80" /><line x1="220" y1="80" x2="225" y2="80" />
<line x1="225" y1="80" x2="225" y2="85" /><line x1="225" y1="85" x2="220" y2="85" />
<line x1="220" y1="85" x2="220" y2="80" /><line x1="220" y1="80" x2="215" y2="80" />
<line x1="215" y1="80" x2="215" y2="85" /><line x1="215" y1="85" x2="210" y2="85" />
<line x1="210" y1="85" x2="210" y2="90" /><line x1="210" y1="90" x2="205" y2="90" />
<line x1="205" y1="90" x2="205" y2="95" /><line x1="205" y1="95" x2="210" y2="95" />
<line x1="210" y1="95" x2="210" y2="100" /><line x1="210" y1="100" x2="215" y2="100" />
<line x1="215" y1="100" x2="215" y2="105" /><line x1="215" y1="105" x2="220" y2="105" />
<line x1="220" y1="105" x2="220" y2="100" /><line x1="220" y1="100" x2="225" y2="100" />
<line x1="225" y1="100" x2="225" y2="105" /><line x1="225" y1="105" x2="220" y2="105" />
<line x1="220" y1="105" x2="220" y2="110" /><line x1="220" y1="110" x2="225" y2="110" />
<line x1="225" y1="110" x2="225" y2="115" /><line x1="225" y1="115" x2="220" y2="115" />
<line x1="220" y1="115" x2="220" y2="110" /><line x1="220" y1="110" x2="215" y2="110" />
<line x1="215" y1="110" x2="215" y2="115" /><line x1="215" y1="115" x2="210" y2="115" />
<line x1="210" y1="115" x2="210" y2="110" /><line x1="210" y1="110" x2="215" y2="110" />
<line x1="215" y1="110" x2="215" y2="105" /><line x1="215" y1="105" x2="210" y2="105" />
<line x1="210" y1="105" x2="210" y2="100" /><line x1="210" y1="100" x2="205" y2="100" />
<line x1="205" y1="100" x2="205" y2="95" /><line x1="205" y1="95" x2="200" y2="95" />
<line x1="200" y1="95" x2="200" y2="100" /><line x1="200" y1="100" x2="195" y2="100" />
<line x1="195" y1="100" x2="195" y2="105" /><line x1="195" y1="105" x2="190" y2="105" />
<line x1="190" y1="105" x2="190" y2="110" /><line x1="190" y1="110" x2="195" y2="110" />
<line x1="195" y1="110" x2="195" y2="115" /><line x1="195" y1="115" x2="190" y2="115" />
<line x1="190" y1="115" x2="190" y2="110" /><line x1="190" y1="110" x2="185" y2="110" />
<line x1="185" y1="110" x2="185" y2="115" /><line x1="185" y1="115" x2="180" y2="115" />
<line x1="180" y1="115" x2="180" y2="120" /><line x1="180" y1="120" x2="175" y2="120" />
<line x1="175" y1="120" x2="175" y2="125" /><line x1="175" y1="125" x2="180" y2="125" />
<line x1="180" y1="125" x2="180" y2="130" /><line x1="180" y1="130" x2="175" y2="130" />
<line x1="175" y1="130" x2="175" y2="125" /><line x1="175" y1="125" x2="170" y2="125" />
<line x1="170" y1="125" x2="170" y2="130" /><line x1="170" y1="130" x2="165" y2="130" />
<line x1="165" y1="130" x2="165" y2="135" /><line x1="165" y1="135" x2="160" y2="135" />
<line x1="160" y1="135" x2="160" y2="140" /><line x1="160" y1="140" x2="165" y2="140" />
<line x1="165" y1="140" x2="165" y2="145" /><line x1="165" y1="145" x2="170" y2="145" />
<line x1="170" y1="145" x2="170" y2="150" /><line x1="170" y1="150" x2="175" y2="150" />
<line x1="175" y1="150" x2="175" y2="145" /><line x1="175" y1="145" x2="180" y2="145" />
<line x1="180" y1="145" x2="180" y2="150" /><line x1="180" y1="150" x2="175" y2="150" />
<line x1="175" y1="150" x2="175" y2="155" /><line x1="175" y1="155" x2="180" y2="155" />
<line x1="180" y1="155" x2="180" y2="160" /><line x1="180" y1="160" x2="175" y2="160" />
<line x1="175" y1="160" x2="175" y2="155" /><line x1="175" y1="155" x2="170" y2="155" />
<line x1="170" y1="155" x2="170" y2="160" /><line x1="170" y1="160" x2="165" y2="160" />
<line x1="165" y1="160" x2="165" y2="155" /><line x1="165" y1="155" x2="170" y2="155" />
<line x1="170" y1="155" x2="170" y2="150" /><line x1="170" y1="150" x2="165" y2="150" />
<line x1="165" y1="150" x2="165" y2="145" /><line x1="165" y1="145" x2="160" y2="145" />
<line x1="160" y1="145" x2="160" y2="140" /><line x1="160" y1="140" x2="155" y2="140" />
<line x1="155" y1="140" x2="155" y2="145" /><line x1="155" y1="145" x2="150" y2="145" />
<line x1="150" y1="145" x2="150" y2="150" /><line x1="150" y1="150" x2="145" y2="150" />
<line x1="145" y1="150" x2="145" y2="155" /><line x1="145" y1="155" x2="150" y2="155" />
<line x1="150" y1="155" x2="150" y2="160" /><line x1="150" y1="160" x2="145" y2="160" />
<line x1="145" y1="160" x2="145" y2="155" /><line x1="145" y1="155" x2="140" y2="155" />
<line x1="140" y1="155" x2="140" y2="160" /><line x1="140" y1="160" x2="135" y2="160" />
<line x1="135" y1="160" x2="135" y2="165" /><line x1="135" y1="165" x2="130" y2="165" />
<line x1="130" y1="165" x2="130" y2="170" /><line x1="130" y1="170" x2="135" y2="170" />
<line x1="135" y1="170" x2="135" y2="175" /><line x1="135" y1="175" x2="130" y2="175" />
<line x1="130" y1="175" x2="130" y2="170" /><line x1="130" y1="170" x2="125" y2="170" />
<line x1="125" y1="170" x2="125" y2="175" /><line x1="125" y1="175" x2="120" y2="175" />
<line x1="120" y1="175" x2="120" y2="180" /><line x1="120" y1="180" x2="115" y2="180" />
<line x1="115" y1="180" x2="115" y2="185" /><line x1="115" y1="185" x2="120" y2="185" />
<line x1="120" y1="185" x2="120" y2="190" /><line x1="120" y1="190" x2="125" y2="190" />
<line x1="125" y1="190" x2="125" y2="195" /><line x1="125" y1="195" x2="130" y2="195" />
<line x1="130" y1="195" x2="130" y2="190" /><line x1="130" y1="190" x2="135" y2="190" />
<line x1="135" y1="190" x2="135" y2="195" /><line x1="135" y1="195" x2="130" y2="195" />
<line x1="130" y1="195" x2="130" y2="200" /><line x1="130" y1="200" x2="135" y2="200" />
<line x1="135" y1="200" x2="135" y2="205" /><line x1="135" y1="205" x2="140" y2="205" />
<line x1="140" y1="205" x2="140" y2="210" /><line x1="140" y1="210" x2="145" y2="210" />
<line x1="145" y1="210" x2="145" y2="205" /><line x1="145" y1="205" x2="150" y2="205" />
<line x1="150" y1="205" x2="150" y2="210" /><line x1="150" y1="210" x2="145" y2="210" />
<line x1="145" y1="210" x2="145" y2="215" /><line x1="145" y1="215" x2="150" y2="215" />
<line x1="150" y1="215" x2="150" y2="220" /><line x1="150" y1="220" x2="155" y2="220" />
<line x1="155" y1="220" x2="155" y2="225" /><line x1="155" y1="225" x2="160" y2="225" />
<line x1="160" y1="225" x2="160" y2="220" /><line x1="160" y1="220" x2="165" y2="220" />
<line x1="165" y1="220" x2="165" y2="215" /><line x1="165" y1="215" x2="170" y2="215" />
<line x1="170" y1="215" x2="170" y2="210" /><line x1="170" y1="210" x2="165" y2="210" />
<line x1="165" y1="210" x2="165" y2="205" /><line x1="165" y1="205" x2="170" y2="205" />
<line x1="170" y1="205" x2="170" y2="210" /><line x1="170" y1="210" x2="175" y2="210" />
<line x1="175" y1="210" x2="175" y2="205" /><line x1="175" y1="205" x2="180" y2="205" />
<line x1="180" y1="205" x2="180" y2="210" /><line x1="180" y1="210" x2="175" y2="210" />
<line x1="175" y1="210" x2="175" y2="215" /><line x1="175" y1="215" x2="180" y2="215" />
<line x1="180" y1="215" x2="180" y2="220" /><line x1="180" y1="220" x2="175" y2="220" />
<line x1="175" y1="220" x2="175" y2="215" /><line x1="175" y1="215" x2="170" y2="215" />
<line x1="170" y1="215" x2="170" y2="220" /><line x1="170" y1="220" x2="165" y2="220" />
<line x1="165" y1="220" x2="165" y2="225" /><line x1="165" y1="225" x2="160" y2="225" />
<line x1="160" y1="225" x2="160" y2="230" /><line x1="160" y1="230" x2="165" y2="230" />
<line x1="165" y1="230" x2="165" y2="235" /><line x1="165" y1="235" x2="170" y2="235" />
<line x1="170" y1="235" x2="170" y2="240" /><line x1="170" y1="240" x2="175" y2="240" />
<line x1="175" y1="240" x2="175" y2="235" /><line x1="175" y1="235" x2="180" y2="235" />
<line x1="180" y1="235" x2="180" y2="240" /><line x1="180" y1="240" x2="175" y2="240" />
<line x1="175" y1="240" x2="175" y2="245" /><line x1="175" y1="245" x2="180" y2="245" />
<line x1="180" y1="245" x2="180" y2="250" /><line x1="180" y1="250" x2="175" y2="250" />
<line x1="175" y1="250" x2="175" y2="245" /><line x1="175" y1="245" x2="170" y2="245" />
<line x1="170" y1="245" x2="170" y2="250" /><line x1="170" y1="250" x2="165" y2="250" />
<line x1="165" y1="250" x2="165" y2="245" /><line x1="165" y1="245" x2="170" y2="245" />
<line x1="170" y1="245" x2="170" y2="240" /><line x1="170" y1="240" x2="165" y2="240" />
<line x1="165" y1="240" x2="165" y2="235" /><line x1="165" y1="235" x2="160" y2="235" />
<line x1="160" y1="235" x2="160" y2="230" /><line x1="160" y1="230" x2="155" y2="230" />
<line x1="155" y1="230" x2="155" y2="235" /><line x1="155" y1="235" x2="150" y2="235" />
<line x1="150" y1="235" x2="150" y2="240" /><line x1="150" y1="240" x2="145" y2="240" />
<line x1="145" y1="240" x2="145" y2="245" /><line x1="145" y1="245" x2="150" y2="245" />
<line x1="150" y1="245" x2="150" y2="250" /><line x1="150" y1="250" x2="145" y2="250" />
<line x1="145" y1="250" x2="145" y2="245" /><line x1="145" y1="245" x2="140" y2="245" />
<line x1="140" y1="245" x2="140" y2="250" /><line x1="140" y1="250" x2="135" y2="250" />
<line x1="135" y1="250" x2="135" y2="245" /><line x1="135" y1="245" x2="140" y2="245" />
<line x1="140" y1="245" x2="140" y2="240" /><line x1="140" y1="240" x2="135" y2="240" />
<line x1="135" y1="240" x2="135" y2="235" /><line x1="135" y1="235" x2="140" y2="235" />
<line x1="140" y1="235" x2="140" y2="240" /><line x1="140" y1="240" x2="145" y2="240" />
<line x1="145" y1="240" x2="145" y2="235" /><line x1="145" y1="235" x2="150" y2="235" />
<line x1="150" y1="235" x2="150" y2="230" /><line x1="150" y1="230" x2="155" y2="230" />
<line x1="155" y1="230" x2="155" y2="225" /><line x1="155" y1="225" x2="150" y2="225" />
<line x1="150" y1="225" x2="150" y2="220" /><line x1="150" y1="220" x2="145" y2="220" />
<line x1="145" y1="220" x2="145" y2="215" /><line x1="145" y1="215" x2="140" y2="215" />
<line x1="140" y1="215" x2="140" y2="220" /><line x1="140" y1="220" x2="135" y2="220" />
<line x1="135" y1="220" x2="135" y2="215" /><line x1="135" y1="215" x2="140" y2="215" />
<line x1="140" y1="215" x2="140" y2="210" /><line x1="140" y1="210" x2="135" y2="210" />
<line x1="135" y1="210" x2="135" y2="205" /><line x1="135" y1="205" x2="130" y2="205" />
<line x1="130" y1="205" x2="130" y2="200" /><line x1="130" y1="200" x2="125" y2="200" />
<line x1="125" y1="200" x2="125" y2="205" /><line x1="125" y1="205" x2="120" y2="205" />
<line x1="120" y1="205" x2="120" y2="200" /><line x1="120" y1="200" x2="125" y2="200" />
<line x1="125" y1="200" x2="125" y2="195" /><line x1="125" y1="195" x2="120" y2="195" />
<line x1="120" y1="195" x2="120" y2="190" /><line x1="120" y1="190" x2="115" y2="190" />
<line x1="115" y1="190" x2="115" y2="185" /><line x1="115" y1="185" x2="110" y2="185" />
<line x1="110" y1="185" x2="110" y2="190" /><line x1="110" y1="190" x2="105" y2="190" />
<line x1="105" y1="190" x2="105" y2="195" /><line x1="105" y1="195" x2="100" y2="195" />
<line x1="100" y1="195" x2="100" y2="200" /><line x1="100" y1="200" x2="105" y2="200" />
<line x1="105" y1="200" x2="105" y2="205" /><line x1="105" y1="205" x2="100" y2="205" />
<line x1="100" y1="205" x2="100" y2="200" /><line x1="100" y1="200" x2="95" y2="200" />
<line x1="95" y1="200" x2="95" y2="205" /><line x1="95" y1="205" x2="90" y2="205" />
<line x1="90" y1="205" x2="90" y2="210" /><line x1="90" y1="210" x2="85" y2="210" />
<line x1="85" y1="210" x2="85" y2="215" /><line x1="85" y1="215" x2="90" y2="215" />
<line x1="90" y1="215" x2="90" y2="220" /><line x1="90" y1="220" x2="85" y2="220" />
<line x1="85" y1="220" x2="85" y2="215" /><line x1="85" y1="215" x2="80" y2="215" />
<line x1="80" y1="215" x2="80" y2="220" /><line x1="80" y1="220" x2="75" y2="220" />
<line x1="75" y1="220" x2="75" y2="225" /><line x1="75" y1="225" x2="70" y2="225" />
<line x1="70" y1="225" x2="70" y2="230" /><line x1="70" y1="230" x2="75" y2="230" />
<line x1="75" y1="230" x2="75" y2="235" /><line x1="75" y1="235" x2="80" y2="235" />
<line x1="80" y1="235" x2="80" y2="240" /><line x1="80" y1="240" x2="85" y2="240" />
<line x1="85" y1="240" x2="85" y2="235" /><line x1="85" y1="235" x2="90" y2="235" />
<line x1="90" y1="235" x2="90" y2="240" /><line x1="90" y1="240" x2="85" y2="240" />
<line x1="85" y1="240" x2="85" y2="245" /><line x1="85" y1="245" x2="90" y2="245" />
<line x1="90" y1="245" x2="90" y2="250" /><line x1="90" y1="250" x2="85" y2="250" />
<line x1="85" y1="250" x2="85" y2="245" /><line x1="85" y1="245" x2="80" y2="245" />
<line x1="80" y1="245" x2="80" y2="250" /><line x1="80" y1="250" x2="75" y2="250" />
<line x1="75" y1="250" x2="75" y2="245" /><line x1="75" y1="245" x2="80" y2="245" />
<line x1="80" y1="245" x2="80" y2="240" /><line x1="80" y1="240" x2="75" y2="240" />
<line x1="75" y1="240" x2="75" y2="235" /><line x1="75" y1="235" x2="70" y2="235" />
<line x1="70" y1="235" x2="70" y2="230" /><line x1="70" y1="230" x2="65" y2="230" />
<line x1="65" y1="230" x2="65" y2="235" /><line x1="65" y1="235" x2="60" y2="235" />
<line x1="60" y1="235" x2="60" y2="240" /><line x1="60" y1="240" x2="55" y2="240" />
<line x1="55" y1="240" x2="55" y2="245" /><line x1="55" y1="245" x2="60" y2="245" />
<line x1="60" y1="245" x2="60" y2="250" /><line x1="60" y1="250" x2="55" y2="250" />
<line x1="55" y1="250" x2="55" y2="245" /><line x1="55" y1="245" x2="50" y2="245" />
<line x1="50" y1="245" x2="50" y2="250" /><line x1="50" y1="250" x2="45" y2="250" />
</svg>

