<svg xmlns="http://www.w3.org/2000/svg" xmlns:svg="http://www.w3.org/2000/svg" xmlns:xlink="http://www.w3.org/1999/xlink" width="600" height="400" style="stroke:rgb(250,12,210)"><rect width="100%" height="100%" fill="black" /><line x1="300" y1="200" x2="343.91" y2="233.14" />
<line x1="343.91" y1="233.14" x2="388.99" y2="201.62" /><line x1="388.99" y1="201.62" x2="345.08" y2="168.48" />
<line x1="345.08" y1="168.48" x2="300" y2="200" /><line x1="388.99" y1="201.62" x2="443.99" y2="202.62" />
<line x1="443.99" y1="202.62" x2="400.08" y2="169.48" /><line x1="400.08" y1="169.48" x2="345.08" y2="168.48" />
<line x1="345.08" y1="168.48" x2="388.99" y2="201.62" /><line x1="400.08" y1="169.48" x2="418.03" y2="117.48" />
<line x1="418.03" y1="117.48" x2="461.94" y2="150.62" /><line x1="461.94" y1="150.62" x2="443.99" y2="202.62" />
<line x1="443.99" y1="202.62" x2="400.08" y2="169.48" /><line x1="400.08" y1="169.48" x2="418.03" y2="117.48" />
<line x1="443.99" y1="202.62" x2="398.91" y2="234.14" /><line x1="398.91" y1="234.14" x2="414.95" y2="286.75" />
<line x1="414.95" y1="286.75" x2="460.04" y2="255.24" /><line x1="460.04" y1="255.24" x2="443.99" y2="202.62" />
<line x1="414.95" y1="286.75" x2="398.91" y2="234.14" /><line x1="398.91" y1="234.14" x2="343.91" y2="233.14" />
<line x1="343.91" y1="233.14" x2="388.99" y2="201.62" /><line x1="388.99" y1="201.62" x2="443.99" y2="202.62" />
<line x1="443.99" y1="202.62" x2="398.91" y2="234.14" /><line x1="443.99" y1="202.62" x2="461.94" y2="150.62" />
<line x1="461.94" y1="150.62" x2="418.03" y2="117.48" /><line x1="418.03" y1="117.48" x2="400.08" y2="169.48" />
<line x1="400.08" y1="169.48" x2="443.99" y2="202.62" /><line x1="418.03" y1="117.48" x2="461.94" y2="150.62" />
<line x1="461.94" y1="150.62" x2="445.89" y2="98" /><line x1="445.89" y1="98" x2="401.99" y2="64.86" />
<line x1="401.99" y1="64.86" x2="418.03" y2="117.48" /><line x1="445.89" y1="98" x2="490.98" y2="66.48" />
<line x1="490.98" y1="66.48" x2="507.02" y2="119.1" /><line x1="507.02" y1="119.1" x2="562.02" y2="120.1" />
<line x1="562.02" y1="120.1" x2="516.94" y2="151.62" /><line x1="516.94" y1="151.62" x2="461.94" y2="150.62" />
<line x1="461.94" y1="150.62" x2="507.02" y2="119.1" /><line x1="516.94" y1="151.62" x2="498.99" y2="203.62" />
<line x1="498.99" y1="203.62" x2="443.99" y2="202.62" /><line x1="443.99" y1="202.62" x2="461.94" y2="150.62" />
<line x1="461.94" y1="150.62" x2="516.94" y2="151.62" /><line x1="490.98" y1="66.48" x2="447.07" y2="33.35" />
<line x1="447.07" y1="33.35" x2="401.99" y2="64.86" /><line x1="401.99" y1="64.86" x2="419.93" y2="12.87" />
<line x1="419.93" y1="12.87" x2="465.02" y2="-18.65" /><line x1="465.02" y1="-18.65" x2="447.07" y2="33.35" />
<line x1="419.93" y1="12.87" x2="401.99" y2="64.86" /><line x1="401.99" y1="64.86" x2="346.99" y2="63.86" />
<line x1="346.99" y1="63.86" x2="364.93" y2="11.87" /><line x1="364.93" y1="11.87" x2="419.93" y2="12.87" />
<line x1="346.99" y1="63.86" x2="363.03" y2="116.48" /><line x1="363.03" y1="116.48" x2="418.03" y2="117.48" />
<line x1="418.03" y1="117.48" x2="401.99" y2="64.86" /><line x1="401.99" y1="64.86" x2="346.99" y2="63.86" />
<line x1="418.03" y1="117.48" x2="461.94" y2="150.62" /><line x1="461.94" y1="150.62" x2="445.89" y2="98" />
<line x1="445.89" y1="98" x2="401.99" y2="64.86" /><line x1="401.99" y1="64.86" x2="418.03" y2="117.48" />
<line x1="445.89" y1="98" x2="490.98" y2="66.48" /><line x1="346.99" y1="63.86" x2="303.08" y2="30.73" />
<line x1="303.08" y1="30.73" x2="257.99" y2="62.25" /><line x1="257.99" y1="62.25" x2="301.9" y2="95.38" />
<line x1="301.9" y1="95.38" x2="346.99" y2="63.86" /><line x1="257.99" y1="62.25" x2="301.9" y2="95.38" />
<line x1="301.9" y1="95.38" x2="346.99" y2="63.86" /><line x1="346.99" y1="63.86" x2="329.04" y2="115.86" />
<line x1="329.04" y1="115.86" x2="283.96" y2="147.38" /><line x1="283.96" y1="147.38" x2="301.9" y2="95.38" />
<line x1="329.04" y1="115.86" x2="345.08" y2="168.48" /><line x1="345.08" y1="168.48" x2="363.03" y2="116.48" />
<line x1="363.03" y1="116.48" x2="346.99" y2="63.86" /><line x1="346.99" y1="63.86" x2="329.04" y2="115.86" />
<line x1="363.03" y1="116.48" x2="418.03" y2="117.48" /><line x1="418.03" y1="117.48" x2="363.03" y2="116.48" />
<line x1="363.03" y1="116.48" x2="346.99" y2="63.86" /><line x1="346.99" y1="63.86" x2="401.99" y2="64.86" />
<line x1="401.99" y1="64.86" x2="418.03" y2="117.48" /><line x1="329.04" y1="115.86" x2="345.08" y2="168.48" />
<line x1="345.08" y1="168.48" x2="300" y2="200" /><line x1="300" y1="200" x2="283.96" y2="147.38" />
<line x1="283.96" y1="147.38" x2="329.04" y2="115.86" /><line x1="490.98" y1="66.48" x2="445.89" y2="98" />
<line x1="445.89" y1="98" x2="461.94" y2="150.62" /><line x1="461.94" y1="150.62" x2="418.03" y2="117.48" />
<line x1="418.03" y1="117.48" x2="401.99" y2="64.86" /><line x1="401.99" y1="64.86" x2="445.89" y2="98" />
<line x1="418.03" y1="117.48" x2="461.94" y2="150.62" /><line x1="461.94" y1="150.62" x2="443.99" y2="202.62" />
<line x1="443.99" y1="202.62" x2="400.08" y2="169.48" /><line x1="400.08" y1="169.48" x2="418.03" y2="117.48" />
<line x1="443.99" y1="202.62" x2="498.99" y2="203.62" /><line x1="498.99" y1="203.62" x2="516.94" y2="151.62" />
<line x1="516.94" y1="151.62" x2="461.94" y2="150.62" /><line x1="461.94" y1="150.62" x2="443.99" y2="202.62" />
<line x1="516.94" y1="151.62" x2="562.02" y2="120.1" /><line x1="562.02" y1="120.1" x2="507.02" y2="119.1" />
<line x1="507.02" y1="119.1" x2="461.94" y2="150.62" /><line x1="461.94" y1="150.62" x2="516.94" y2="151.62" />
<line x1="507.02" y1="119.1" x2="490.98" y2="66.48" /><line x1="443.99" y1="202.62" x2="498.99" y2="203.62" />
<line x1="498.99" y1="203.62" x2="516.94" y2="151.62" /><line x1="516.94" y1="151.62" x2="461.94" y2="150.62" />
<line x1="461.94" y1="150.62" x2="443.99" y2="202.62" /><line x1="516.94" y1="151.62" x2="562.02" y2="120.1" />
<line x1="562.02" y1="120.1" x2="507.02" y2="119.1" /><line x1="507.02" y1="119.1" x2="461.94" y2="150.62" />
<line x1="461.94" y1="150.62" x2="516.94" y2="151.62" /><line x1="507.02" y1="119.1" x2="490.98" y2="66.48" />
<line x1="490.98" y1="66.48" x2="545.98" y2="67.48" /><line x1="545.98" y1="67.48" x2="562.02" y2="120.1" />
<line x1="562.02" y1="120.1" x2="507.02" y2="119.1" /><line x1="507.02" y1="119.1" x2="490.98" y2="66.48" />
<line x1="562.02" y1="120.1" x2="544.08" y2="172.1" /><line x1="544.08" y1="172.1" x2="587.98" y2="205.24" />
<line x1="587.98" y1="205.24" x2="605.93" y2="153.24" /><line x1="605.93" y1="153.24" x2="562.02" y2="120.1" />
<line x1="587.98" y1="205.24" x2="544.08" y2="172.1" /><line x1="544.08" y1="172.1" x2="498.99" y2="203.62" />
<line x1="498.99" y1="203.62" x2="516.94" y2="151.62" /><line x1="516.94" y1="151.62" x2="562.02" y2="120.1" />
<line x1="562.02" y1="120.1" x2="544.08" y2="172.1" /><line x1="562.02" y1="120.1" x2="605.93" y2="153.24" />
<line x1="605.93" y1="153.24" x2="651.01" y2="121.72" /><line x1="651.01" y1="121.72" x2="607.11" y2="88.58" />
<line x1="607.11" y1="88.58" x2="562.02" y2="120.1" /><line x1="651.01" y1="121.72" x2="607.11" y2="88.58" />
<line x1="607.11" y1="88.58" x2="562.02" y2="120.1" /><line x1="562.02" y1="120.1" x2="579.97" y2="68.1" />
<line x1="579.97" y1="68.1" x2="625.05" y2="36.58" /><line x1="625.05" y1="36.58" x2="607.11" y2="88.58" />
<line x1="579.97" y1="68.1" x2="563.92" y2="15.48" /><line x1="563.92" y1="15.48" x2="545.98" y2="67.48" />
<line x1="545.98" y1="67.48" x2="562.02" y2="120.1" /><line x1="562.02" y1="120.1" x2="579.97" y2="68.1" />
<line x1="545.98" y1="67.48" x2="490.98" y2="66.48" /><line x1="490.98" y1="66.48" x2="545.98" y2="67.48" />
<line x1="545.98" y1="67.48" x2="562.02" y2="120.1" /><line x1="562.02" y1="120.1" x2="507.02" y2="119.1" />
<line x1="507.02" y1="119.1" x2="490.98" y2="66.48" /><line x1="579.97" y1="68.1" x2="563.92" y2="15.48" />
<line x1="563.92" y1="15.48" x2="609.01" y2="-16.04" /><line x1="609.01" y1="-16.04" x2="625.05" y2="36.58" />
<line x1="625.05" y1="36.58" x2="579.97" y2="68.1" /><line x1="609.01" y1="-16.04" x2="563.92" y2="15.48" />
<line x1="563.92" y1="15.48" x2="579.97" y2="68.1" /><line x1="579.97" y1="68.1" x2="625.05" y2="36.58" />
<line x1="625.05" y1="36.58" x2="609.01" y2="-16.04" /><line x1="579.97" y1="68.1" x2="563.92" y2="15.48" />
<line x1="563.92" y1="15.48" x2="545.98" y2="67.48" /><line x1="545.98" y1="67.48" x2="562.02" y2="120.1" />
<line x1="562.02" y1="120.1" x2="579.97" y2="68.1" /><line x1="545.98" y1="67.48" x2="490.98" y2="66.48" />
<line x1="490.98" y1="66.48" x2="508.92" y2="14.48" /><line x1="508.92" y1="14.48" x2="465.02" y2="-18.65" />
<line x1="465.02" y1="-18.65" x2="520.02" y2="-17.65" /><line x1="520.02" y1="-17.65" x2="563.92" y2="15.48" />
<line x1="563.92" y1="15.48" x2="508.92" y2="14.48" /><line x1="520.02" y1="-17.65" x2="565.1" y2="-49.17" />
<line x1="565.1" y1="-49.17" x2="609.01" y2="-16.04" /><line x1="609.01" y1="-16.04" x2="563.92" y2="15.48" />
<line x1="563.92" y1="15.48" x2="520.02" y2="-17.65" /><line x1="562.02" y1="120.1" x2="605.93" y2="153.24" />
<line x1="605.93" y1="153.24" x2="651.01" y2="121.72" /><line x1="651.01" y1="121.72" x2="607.11" y2="88.58" />
<line x1="607.11" y1="88.58" x2="562.02" y2="120.1" /><line x1="651.01" y1="121.72" x2="605.93" y2="153.24" />
<line x1="605.93" y1="153.24" x2="660.93" y2="154.24" /><line x1="660.93" y1="154.24" x2="706.01" y2="122.72" />
<line x1="706.01" y1="122.72" x2="651.01" y2="121.72" /><line x1="660.93" y1="154.24" x2="676.98" y2="206.85" />
<line x1="676.98" y1="206.85" x2="621.98" y2="205.85" /><line x1="621.98" y1="205.85" x2="604.03" y2="257.85" />
<line x1="604.03" y1="257.85" x2="587.98" y2="205.24" /><line x1="587.98" y1="205.24" x2="605.93" y2="153.24" />
<line x1="605.93" y1="153.24" x2="621.98" y2="205.85" /><line x1="587.98" y1="205.24" x2="544.08" y2="172.1" />
<line x1="544.08" y1="172.1" x2="562.02" y2="120.1" /><line x1="562.02" y1="120.1" x2="605.93" y2="153.24" />
<line x1="605.93" y1="153.24" x2="587.98" y2="205.24" /><line x1="676.98" y1="206.85" x2="621.98" y2="205.85" />
<line x1="621.98" y1="205.85" x2="604.03" y2="257.85" /><line x1="604.03" y1="257.85" x2="587.98" y2="205.24" />
<line x1="587.98" y1="205.24" x2="605.93" y2="153.24" /><line x1="605.93" y1="153.24" x2="621.98" y2="205.85" />
<line x1="587.98" y1="205.24" x2="604.03" y2="257.85" /><line x1="604.03" y1="257.85" x2="558.94" y2="289.37" />
<line x1="558.94" y1="289.37" x2="542.9" y2="236.76" /><line x1="542.9" y1="236.76" x2="587.98" y2="205.24" />
<line x1="558.94" y1="289.37" x2="602.85" y2="322.51" /><line x1="602.85" y1="322.51" x2="647.94" y2="290.99" />
<line x1="647.94" y1="290.99" x2="604.03" y2="257.85" /><line x1="604.03" y1="257.85" x2="558.94" y2="289.37" />
<line x1="647.94" y1="290.99" x2="702.94" y2="291.99" /><line x1="702.94" y1="291.99" x2="659.03" y2="258.85" />
<line x1="659.03" y1="258.85" x2="604.03" y2="257.85" /><line x1="604.03" y1="257.85" x2="647.94" y2="290.99" />
<line x1="659.03" y1="258.85" x2="676.98" y2="206.85" /><line x1="558.94" y1="289.37" x2="503.94" y2="288.37" />
<line x1="503.94" y1="288.37" x2="486" y2="340.37" /><line x1="486" y1="340.37" x2="541" y2="341.37" />
<line x1="541" y1="341.37" x2="558.94" y2="289.37" /><line x1="486" y1="340.37" x2="541" y2="341.37" />
<line x1="541" y1="341.37" x2="558.94" y2="289.37" /><line x1="558.94" y1="289.37" x2="574.99" y2="341.99" />
<line x1="574.99" y1="341.99" x2="557.04" y2="393.99" /><line x1="557.04" y1="393.99" x2="541" y2="341.37" />
<line x1="574.99" y1="341.99" x2="618.9" y2="375.13" /><line x1="618.9" y1="375.13" x2="602.85" y2="322.51" />
<line x1="602.85" y1="322.51" x2="558.94" y2="289.37" /><line x1="558.94" y1="289.37" x2="574.99" y2="341.99" />
<line x1="602.85" y1="322.51" x2="647.94" y2="290.99" /><line x1="647.94" y1="290.99" x2="602.85" y2="322.51" />
<line x1="602.85" y1="322.51" x2="558.94" y2="289.37" /><line x1="558.94" y1="289.37" x2="604.03" y2="257.85" />
<line x1="604.03" y1="257.85" x2="647.94" y2="290.99" /><line x1="574.99" y1="341.99" x2="618.9" y2="375.13" />
<line x1="618.9" y1="375.13" x2="600.95" y2="427.13" /><line x1="600.95" y1="427.13" x2="557.04" y2="393.99" />
<line x1="557.04" y1="393.99" x2="574.99" y2="341.99" /><line x1="600.95" y1="427.13" x2="557.04" y2="393.99" />
<line x1="557.04" y1="393.99" x2="511.96" y2="425.51" /><line x1="511.96" y1="425.51" x2="555.87" y2="458.64" />
<line x1="555.87" y1="458.64" x2="600.95" y2="427.13" /><line x1="511.96" y1="425.51" x2="557.04" y2="393.99" />
<line x1="557.04" y1="393.99" x2="502.04" y2="392.99" /><line x1="502.04" y1="392.99" x2="456.96" y2="424.51" />
<line x1="456.96" y1="424.51" x2="511.96" y2="425.51" /><line x1="502.04" y1="392.99" x2="486" y2="340.37" />
<line x1="486" y1="340.37" x2="541" y2="341.37" /><line x1="541" y1="341.37" x2="558.94" y2="289.37" />
<line x1="558.94" y1="289.37" x2="574.99" y2="341.99" /><line x1="574.99" y1="341.99" x2="557.04" y2="393.99" />
<line x1="557.04" y1="393.99" x2="541" y2="341.37" /><line x1="574.99" y1="341.99" x2="618.9" y2="375.13" />
<line x1="618.9" y1="375.13" x2="600.95" y2="427.13" /><line x1="600.95" y1="427.13" x2="557.04" y2="393.99" />
<line x1="557.04" y1="393.99" x2="574.99" y2="341.99" /><line x1="486" y1="340.37" x2="503.94" y2="288.37" />
<line x1="503.94" y1="288.37" x2="460.04" y2="255.24" /><line x1="460.04" y1="255.24" x2="515.04" y2="256.24" />
<line x1="515.04" y1="256.24" x2="558.94" y2="289.37" /><line x1="558.94" y1="289.37" x2="503.94" y2="288.37" />
<line x1="515.04" y1="256.24" x2="460.04" y2="255.24" /><line x1="460.04" y1="255.24" x2="443.99" y2="202.62" />
<line x1="443.99" y1="202.62" x2="498.99" y2="203.62" /><line x1="498.99" y1="203.62" x2="515.04" y2="256.24" />
<line x1="443.99" y1="202.62" x2="398.91" y2="234.14" /><line x1="398.91" y1="234.14" x2="414.95" y2="286.75" />
<line x1="414.95" y1="286.75" x2="460.04" y2="255.24" /><line x1="460.04" y1="255.24" x2="443.99" y2="202.62" />
<line x1="414.95" y1="286.75" x2="397.01" y2="338.75" /><line x1="397.01" y1="338.75" x2="442.09" y2="307.23" />
<line x1="442.09" y1="307.23" x2="460.04" y2="255.24" /><line x1="460.04" y1="255.24" x2="414.95" y2="286.75" />
<line x1="442.09" y1="307.23" x2="486" y2="340.37" /><line x1="443.99" y1="202.62" x2="460.04" y2="255.24" />
<line x1="460.04" y1="255.24" x2="515.04" y2="256.24" /><line x1="515.04" y1="256.24" x2="498.99" y2="203.62" />
<line x1="498.99" y1="203.62" x2="443.99" y2="202.62" /><line x1="515.04" y1="256.24" x2="558.94" y2="289.37" />
<line x1="558.94" y1="289.37" x2="542.9" y2="236.76" /><line x1="542.9" y1="236.76" x2="498.99" y2="203.62" />
<line x1="498.99" y1="203.62" x2="515.04" y2="256.24" /><line x1="542.9" y1="236.76" x2="587.98" y2="205.24" />
<line x1="587.98" y1="205.24" x2="604.03" y2="257.85" /><line x1="604.03" y1="257.85" x2="558.94" y2="289.37" />
<line x1="558.94" y1="289.37" x2="542.9" y2="236.76" /><line x1="542.9" y1="236.76" x2="587.98" y2="205.24" />
<line x1="558.94" y1="289.37" x2="503.94" y2="288.37" /><line x1="503.94" y1="288.37" x2="486" y2="340.37" />
<line x1="486" y1="340.37" x2="541" y2="341.37" /><line x1="541" y1="341.37" x2="558.94" y2="289.37" />
<line x1="486" y1="340.37" x2="503.94" y2="288.37" /><line x1="503.94" y1="288.37" x2="460.04" y2="255.24" />
<line x1="460.04" y1="255.24" x2="515.04" y2="256.24" /><line x1="515.04" y1="256.24" x2="558.94" y2="289.37" />
<line x1="558.94" y1="289.37" x2="503.94" y2="288.37" /><line x1="486" y1="340.37" x2="442.09" y2="307.23" />
<line x1="442.09" y1="307.23" x2="397.01" y2="338.75" /><line x1="397.01" y1="338.75" x2="414.95" y2="286.75" />
<line x1="414.95" y1="286.75" x2="460.04" y2="255.24" /><line x1="460.04" y1="255.24" x2="442.09" y2="307.23" />
<line x1="414.95" y1="286.75" x2="397.01" y2="338.75" /><line x1="397.01" y1="338.75" x2="342.01" y2="337.75" />
<line x1="342.01" y1="337.75" x2="359.95" y2="285.75" /><line x1="359.95" y1="285.75" x2="414.95" y2="286.75" />
<line x1="342.01" y1="337.75" x2="358.05" y2="390.37" /><line x1="358.05" y1="390.37" x2="413.05" y2="391.37" />
<line x1="413.05" y1="391.37" x2="397.01" y2="338.75" /><line x1="397.01" y1="338.75" x2="342.01" y2="337.75" />
<line x1="413.05" y1="391.37" x2="456.96" y2="424.51" /><line x1="456.96" y1="424.51" x2="440.91" y2="371.89" />
<line x1="440.91" y1="371.89" x2="397.01" y2="338.75" /><line x1="397.01" y1="338.75" x2="413.05" y2="391.37" />
<line x1="440.91" y1="371.89" x2="486" y2="340.37" /><line x1="342.01" y1="337.75" x2="397.01" y2="338.75" />
<line x1="397.01" y1="338.75" x2="414.95" y2="286.75" /><line x1="414.95" y1="286.75" x2="359.95" y2="285.75" />
<line x1="359.95" y1="285.75" x2="342.01" y2="337.75" /><line x1="414.95" y1="286.75" x2="359.95" y2="285.75" />
<line x1="359.95" y1="285.75" x2="342.01" y2="337.75" /><line x1="342.01" y1="337.75" x2="325.96" y2="285.14" />
<line x1="325.96" y1="285.14" x2="343.91" y2="233.14" /><line x1="343.91" y1="233.14" x2="359.95" y2="285.75" />
<line x1="325.96" y1="285.14" x2="282.05" y2="252" /><line x1="282.05" y1="252" x2="298.1" y2="304.62" />
<line x1="298.1" y1="304.62" x2="342.01" y2="337.75" /><line x1="342.01" y1="337.75" x2="325.96" y2="285.14" />
<line x1="298.1" y1="304.62" x2="253.01" y2="336.14" /><line x1="253.01" y1="336.14" x2="298.1" y2="304.62" />
<line x1="298.1" y1="304.62" x2="342.01" y2="337.75" /><line x1="342.01" y1="337.75" x2="296.92" y2="369.27" />
<line x1="296.92" y1="369.27" x2="253.01" y2="336.14" /><line x1="325.96" y1="285.14" x2="282.05" y2="252" />
<line x1="282.05" y1="252" x2="300" y2="200" /><line x1="300" y1="200" x2="343.91" y2="233.14" />
<line x1="343.91" y1="233.14" x2="325.96" y2="285.14" /><line x1="300" y1="200" x2="343.91" y2="233.14" />
<line x1="343.91" y1="233.14" x2="388.99" y2="201.62" /><line x1="388.99" y1="201.62" x2="345.08" y2="168.48" />
<line x1="345.08" y1="168.48" x2="300" y2="200" /><line x1="388.99" y1="201.62" x2="443.99" y2="202.62" />
<line x1="443.99" y1="202.62" x2="400.08" y2="169.48" /><line x1="400.08" y1="169.48" x2="345.08" y2="168.48" />
<line x1="345.08" y1="168.48" x2="388.99" y2="201.62" /><line x1="400.08" y1="169.48" x2="418.03" y2="117.48" />
<line x1="418.03" y1="117.48" x2="461.94" y2="150.62" /><line x1="461.94" y1="150.62" x2="443.99" y2="202.62" />
<line x1="443.99" y1="202.62" x2="400.08" y2="169.48" /><line x1="400.08" y1="169.48" x2="418.03" y2="117.48" />
<line x1="443.99" y1="202.62" x2="398.91" y2="234.14" /><line x1="398.91" y1="234.14" x2="414.95" y2="286.75" />
<line x1="414.95" y1="286.75" x2="460.04" y2="255.24" /><line x1="460.04" y1="255.24" x2="443.99" y2="202.62" />
<line x1="414.95" y1="286.75" x2="398.91" y2="234.14" /><line x1="398.91" y1="234.14" x2="343.91" y2="233.14" />
<line x1="343.91" y1="233.14" x2="388.99" y2="201.62" /><line x1="388.99" y1="201.62" x2="443.99" y2="202.62" />
<line x1="443.99" y1="202.62" x2="398.91" y2="234.14" /><line x1="443.99" y1="202.62" x2="460.04" y2="255.24" />
<line x1="460.04" y1="255.24" x2="515.04" y2="256.24" /><line x1="515.04" y1="256.24" x2="498.99" y2="203.62" />
<line x1="498.99" y1="203.62" x2="443.99" y2="202.62" /><line x1="515.04" y1="256.24" x2="460.04" y2="255.24" />
<line x1="460.04" y1="255.24" x2="503.94" y2="288.37" /><line x1="503.94" y1="288.37" x2="558.94" y2="289.37" />
<line x1="558.94" y1="289.37" x2="515.04" y2="256.24" /><line x1="503.94" y1="288.37" x2="486" y2="340.37" />
<line x1="486" y1="340.37" x2="442.09" y2="307.23" /><line x1="442.09" y1="307.23" x2="397.01" y2="338.75" />
<line x1="397.01" y1="338.75" x2="414.95" y2="286.75" /><line x1="414.95" y1="286.75" x2="460.04" y2="255.24" />
<line x1="460.04" y1="255.24" x2="442.09" y2="307.23" /><line x1="414.95" y1="286.75" x2="398.91" y2="234.14" />
<line x1="398.91" y1="234.14" x2="443.99" y2="202.62" /><line x1="443.99" y1="202.62" x2="460.04" y2="255.24" />
<line x1="460.04" y1="255.24" x2="414.95" y2="286.75" /><line x1="300" y1="200" x2="345.08" y2="168.48" />
<line x1="345.08" y1="168.48" x2="329.04" y2="115.86" /><line x1="329.04" y1="115.86" x2="283.96" y2="147.38" />
<line x1="283.96" y1="147.38" x2="300" y2="200" /><line x1="329.04" y1="115.86" x2="346.99" y2="63.86" />
<line x1="346.99" y1="63.86" x2="301.9" y2="95.38" /><line x1="301.9" y1="95.38" x2="283.96" y2="147.38" />
<line x1="283.96" y1="147.38" x2="329.04" y2="115.86" /><line x1="301.9" y1="95.38" x2="257.99" y2="62.25" />
<line x1="257.99" y1="62.25" x2="303.08" y2="30.73" /><line x1="303.08" y1="30.73" x2="346.99" y2="63.86" />
<line x1="346.99" y1="63.86" x2="301.9" y2="95.38" /><line x1="301.9" y1="95.38" x2="257.99" y2="62.25" />
<line x1="346.99" y1="63.86" x2="363.03" y2="116.48" /><line x1="363.03" y1="116.48" x2="418.03" y2="117.48" />
<line x1="418.03" y1="117.48" x2="401.99" y2="64.86" /><line x1="401.99" y1="64.86" x2="346.99" y2="63.86" />
<line x1="418.03" y1="117.48" x2="363.03" y2="116.48" /><line x1="363.03" y1="116.48" x2="345.08" y2="168.48" />
<line x1="345.08" y1="168.48" x2="329.04" y2="115.86" /><line x1="329.04" y1="115.86" x2="346.99" y2="63.86" />
<line x1="346.99" y1="63.86" x2="363.03" y2="116.48" /><line x1="346.99" y1="63.86" x2="303.08" y2="30.73" />
<line x1="303.08" y1="30.73" x2="257.99" y2="62.25" /><line x1="257.99" y1="62.25" x2="301.9" y2="95.38" />
<line x1="301.9" y1="95.38" x2="346.99" y2="63.86" /><line x1="257.99" y1="62.25" x2="303.08" y2="30.73" />
<line x1="303.08" y1="30.73" x2="248.08" y2="29.73" /><line x1="248.08" y1="29.73" x2="202.99" y2="61.25" />
<line x1="202.99" y1="61.25" x2="257.99" y2="62.25" /><line x1="248.08" y1="29.73" x2="232.03" y2="-22.89" />
<line x1="232.03" y1="-22.89" x2="287.03" y2="-21.89" /><line x1="287.03" y1="-21.89" x2="304.98" y2="-73.89" />
<line x1="304.98" y1="-73.89" x2="321.02" y2="-21.27" /><line x1="321.02" y1="-21.27" x2="303.08" y2="30.73" />
<line x1="303.08" y1="30.73" x2="287.03" y2="-21.89" /><line x1="321.02" y1="-21.27" x2="364.93" y2="11.87" />
<line x1="364.93" y1="11.87" x2="346.99" y2="63.86" /><line x1="346.99" y1="63.86" x2="303.08" y2="30.73" />
<line x1="303.08" y1="30.73" x2="321.02" y2="-21.27" /><line x1="232.03" y1="-22.89" x2="186.95" y2="8.63" />
<line x1="186.95" y1="8.63" x2="202.99" y2="61.25" /><line x1="202.99" y1="61.25" x2="159.09" y2="28.11" />
<line x1="159.09" y1="28.11" x2="143.04" y2="-24.51" /><line x1="143.04" y1="-24.51" x2="186.95" y2="8.63" />
<line x1="159.09" y1="28.11" x2="202.99" y2="61.25" /><line x1="202.99" y1="61.25" x2="185.05" y2="113.25" />
<line x1="185.05" y1="113.25" x2="141.14" y2="80.11" /><line x1="141.14" y1="80.11" x2="159.09" y2="28.11" />
<line x1="185.05" y1="113.25" x2="240.05" y2="114.25" /><line x1="240.05" y1="114.25" x2="257.99" y2="62.25" />
<line x1="257.99" y1="62.25" x2="202.99" y2="61.25" /><line x1="202.99" y1="61.25" x2="185.05" y2="113.25" />
<line x1="257.99" y1="62.25" x2="303.08" y2="30.73" /><line x1="303.08" y1="30.73" x2="248.08" y2="29.73" />
<line x1="248.08" y1="29.73" x2="202.99" y2="61.25" /><line x1="202.99" y1="61.25" x2="257.99" y2="62.25" />
<line x1="248.08" y1="29.73" x2="232.03" y2="-22.89" /><line x1="185.05" y1="113.25" x2="139.96" y2="144.76" />
<line x1="139.96" y1="144.76" x2="156.01" y2="197.38" /><line x1="156.01" y1="197.38" x2="201.09" y2="165.86" />
<line x1="201.09" y1="165.86" x2="185.05" y2="113.25" /><line x1="156.01" y1="197.38" x2="201.09" y2="165.86" />
<line x1="201.09" y1="165.86" x2="185.05" y2="113.25" /><line x1="185.05" y1="113.25" x2="228.96" y2="146.38" />
<line x1="228.96" y1="146.38" x2="245" y2="199" /><line x1="245" y1="199" x2="201.09" y2="165.86" />
<line x1="228.96" y1="146.38" x2="283.96" y2="147.38" /><line x1="283.96" y1="147.38" x2="240.05" y2="114.25" />
<line x1="240.05" y1="114.25" x2="185.05" y2="113.25" /><line x1="185.05" y1="113.25" x2="228.96" y2="146.38" />
<line x1="240.05" y1="114.25" x2="257.99" y2="62.25" /><line x1="257.99" y1="62.25" x2="240.05" y2="114.25" />
<line x1="240.05" y1="114.25" x2="185.05" y2="113.25" /><line x1="185.05" y1="113.25" x2="202.99" y2="61.25" />
<line x1="202.99" y1="61.25" x2="257.99" y2="62.25" /><line x1="228.96" y1="146.38" x2="283.96" y2="147.38" />
<line x1="283.96" y1="147.38" x2="300" y2="200" /><line x1="300" y1="200" x2="245" y2="199" />
<line x1="245" y1="199" x2="228.96" y2="146.38" /><line x1="232.03" y1="-22.89" x2="248.08" y2="29.73" />
<line x1="248.08" y1="29.73" x2="303.08" y2="30.73" /><line x1="303.08" y1="30.73" x2="257.99" y2="62.25" />
<line x1="257.99" y1="62.25" x2="202.99" y2="61.25" /><line x1="202.99" y1="61.25" x2="248.08" y2="29.73" />
<line x1="257.99" y1="62.25" x2="303.08" y2="30.73" /><line x1="303.08" y1="30.73" x2="346.99" y2="63.86" />
<line x1="346.99" y1="63.86" x2="301.9" y2="95.38" /><line x1="301.9" y1="95.38" x2="257.99" y2="62.25" />
<line x1="346.99" y1="63.86" x2="364.93" y2="11.87" /><line x1="364.93" y1="11.87" x2="321.02" y2="-21.27" />
<line x1="321.02" y1="-21.27" x2="303.08" y2="30.73" /><line x1="303.08" y1="30.73" x2="346.99" y2="63.86" />
<line x1="321.02" y1="-21.27" x2="304.98" y2="-73.89" /><line x1="304.98" y1="-73.89" x2="287.03" y2="-21.89" />
<line x1="287.03" y1="-21.89" x2="303.08" y2="30.73" /><line x1="303.08" y1="30.73" x2="321.02" y2="-21.27" />
<line x1="287.03" y1="-21.89" x2="232.03" y2="-22.89" /><line x1="346.99" y1="63.86" x2="364.93" y2="11.87" />
<line x1="364.93" y1="11.87" x2="321.02" y2="-21.27" /><line x1="321.02" y1="-21.27" x2="303.08" y2="30.73" />
<line x1="303.08" y1="30.73" x2="346.99" y2="63.86" /><line x1="321.02" y1="-21.27" x2="304.98" y2="-73.89" />
<line x1="304.98" y1="-73.89" x2="287.03" y2="-21.89" /><line x1="287.03" y1="-21.89" x2="303.08" y2="30.73" />
<line x1="303.08" y1="30.73" x2="321.02" y2="-21.27" /><line x1="287.03" y1="-21.89" x2="232.03" y2="-22.89" />
<line x1="232.03" y1="-22.89" x2="249.98" y2="-74.89" /><line x1="249.98" y1="-74.89" x2="304.98" y2="-73.89" />
<line x1="304.98" y1="-73.89" x2="287.03" y2="-21.89" /><line x1="287.03" y1="-21.89" x2="232.03" y2="-22.89" />
<line x1="304.98" y1="-73.89" x2="348.89" y2="-40.75" /><line x1="348.89" y1="-40.75" x2="393.97" y2="-72.27" />
<line x1="393.97" y1="-72.27" x2="350.06" y2="-105.41" /><line x1="350.06" y1="-105.41" x2="304.98" y2="-73.89" />
<line x1="393.97" y1="-72.27" x2="348.89" y2="-40.75" /><line x1="348.89" y1="-40.75" x2="364.93" y2="11.87" />
<line x1="364.93" y1="11.87" x2="321.02" y2="-21.27" /><line x1="321.02" y1="-21.27" x2="304.98" y2="-73.89" />
<line x1="304.98" y1="-73.89" x2="348.89" y2="-40.75" /><line x1="304.98" y1="-73.89" x2="350.06" y2="-105.41" />
<line x1="350.06" y1="-105.41" x2="334.02" y2="-158.03" /><line x1="334.02" y1="-158.03" x2="288.93" y2="-126.51" />
<line x1="288.93" y1="-126.51" x2="304.98" y2="-73.89" /><line x1="334.02" y1="-158.03" x2="288.93" y2="-126.51" />
<line x1="288.93" y1="-126.51" x2="304.98" y2="-73.89" /><line x1="304.98" y1="-73.89" x2="261.07" y2="-107.03" />
<line x1="261.07" y1="-107.03" x2="245.03" y2="-159.64" /><line x1="245.03" y1="-159.64" x2="288.93" y2="-126.51" />
<line x1="261.07" y1="-107.03" x2="206.07" y2="-108.03" /><line x1="206.07" y1="-108.03" x2="249.98" y2="-74.89" />
<line x1="249.98" y1="-74.89" x2="304.98" y2="-73.89" /><line x1="304.98" y1="-73.89" x2="261.07" y2="-107.03" />
<line x1="249.98" y1="-74.89" x2="232.03" y2="-22.89" /><line x1="232.03" y1="-22.89" x2="249.98" y2="-74.89" />
<line x1="249.98" y1="-74.89" x2="304.98" y2="-73.89" /><line x1="304.98" y1="-73.89" x2="287.03" y2="-21.89" />
<line x1="287.03" y1="-21.89" x2="232.03" y2="-22.89" /><line x1="261.07" y1="-107.03" x2="206.07" y2="-108.03" />
<line x1="206.07" y1="-108.03" x2="190.03" y2="-160.64" /><line x1="190.03" y1="-160.64" x2="245.03" y2="-159.64" />
<line x1="245.03" y1="-159.64" x2="261.07" y2="-107.03" /><line x1="190.03" y1="-160.64" x2="206.07" y2="-108.03" />
<line x1="206.07" y1="-108.03" x2="261.07" y2="-107.03" /><line x1="261.07" y1="-107.03" x2="245.03" y2="-159.64" />
<line x1="245.03" y1="-159.64" x2="190.03" y2="-160.64" /><line x1="261.07" y1="-107.03" x2="206.07" y2="-108.03" />
<line x1="206.07" y1="-108.03" x2="249.98" y2="-74.89" /><line x1="249.98" y1="-74.89" x2="304.98" y2="-73.89" />
<line x1="304.98" y1="-73.89" x2="261.07" y2="-107.03" /><line x1="249.98" y1="-74.89" x2="232.03" y2="-22.89" />
<line x1="232.03" y1="-22.89" x2="188.12" y2="-56.03" /><line x1="188.12" y1="-56.03" x2="143.04" y2="-24.51" />
<line x1="143.04" y1="-24.51" x2="160.99" y2="-76.51" /><line x1="160.99" y1="-76.51" x2="206.07" y2="-108.03" />
<line x1="206.07" y1="-108.03" x2="188.12" y2="-56.03" /><line x1="160.99" y1="-76.51" x2="144.94" y2="-129.12" />
<line x1="144.94" y1="-129.12" x2="190.03" y2="-160.64" /><line x1="190.03" y1="-160.64" x2="206.07" y2="-108.03" />
<line x1="206.07" y1="-108.03" x2="160.99" y2="-76.51" /><line x1="304.98" y1="-73.89" x2="350.06" y2="-105.41" />
<line x1="350.06" y1="-105.41" x2="334.02" y2="-158.03" /><line x1="334.02" y1="-158.03" x2="288.93" y2="-126.51" />
<line x1="288.93" y1="-126.51" x2="304.98" y2="-73.89" /><line x1="334.02" y1="-158.03" x2="350.06" y2="-105.41" />
<line x1="350.06" y1="-105.41" x2="368.01" y2="-157.41" /><line x1="368.01" y1="-157.41" x2="351.97" y2="-210.02" />
<line x1="351.97" y1="-210.02" x2="334.02" y2="-158.03" /><line x1="368.01" y1="-157.41" x2="423.01" y2="-156.41" />
<line x1="423.01" y1="-156.41" x2="405.06" y2="-104.41" /><line x1="405.06" y1="-104.41" x2="448.97" y2="-71.27" />
<line x1="448.97" y1="-71.27" x2="393.97" y2="-72.27" /><line x1="393.97" y1="-72.27" x2="350.06" y2="-105.41" />
<line x1="350.06" y1="-105.41" x2="405.06" y2="-104.41" /><line x1="393.97" y1="-72.27" x2="348.89" y2="-40.75" />
<line x1="348.89" y1="-40.75" x2="304.98" y2="-73.89" /><line x1="304.98" y1="-73.89" x2="350.06" y2="-105.41" />
<line x1="350.06" y1="-105.41" x2="393.97" y2="-72.27" /><line x1="423.01" y1="-156.41" x2="405.06" y2="-104.41" />
<line x1="405.06" y1="-104.41" x2="448.97" y2="-71.27" /><line x1="448.97" y1="-71.27" x2="393.97" y2="-72.27" />
<line x1="393.97" y1="-72.27" x2="350.06" y2="-105.41" /><line x1="350.06" y1="-105.41" x2="405.06" y2="-104.41" />
<line x1="393.97" y1="-72.27" x2="448.97" y2="-71.27" /><line x1="448.97" y1="-71.27" x2="465.02" y2="-18.65" />
<line x1="465.02" y1="-18.65" x2="410.02" y2="-19.65" /><line x1="410.02" y1="-19.65" x2="393.97" y2="-72.27" />
<line x1="465.02" y1="-18.65" x2="510.1" y2="-50.17" /><line x1="510.1" y1="-50.17" x2="494.06" y2="-102.79" />
<line x1="494.06" y1="-102.79" x2="448.97" y2="-71.27" /><line x1="448.97" y1="-71.27" x2="465.02" y2="-18.65" />
<line x1="494.06" y1="-102.79" x2="512" y2="-154.79" /><line x1="512" y1="-154.79" x2="466.92" y2="-123.27" />
<line x1="466.92" y1="-123.27" x2="448.97" y2="-71.27" /><line x1="448.97" y1="-71.27" x2="494.06" y2="-102.79" />
<line x1="466.92" y1="-123.27" x2="423.01" y2="-156.41" /><line x1="465.02" y1="-18.65" x2="447.07" y2="33.35" />
<line x1="447.07" y1="33.35" x2="490.98" y2="66.48" /><line x1="490.98" y1="66.48" x2="508.92" y2="14.48" />
<line x1="508.92" y1="14.48" x2="465.02" y2="-18.65" /><line x1="490.98" y1="66.48" x2="508.92" y2="14.48" />
<line x1="508.92" y1="14.48" x2="465.02" y2="-18.65" /><line x1="465.02" y1="-18.65" x2="520.02" y2="-17.65" />
<line x1="520.02" y1="-17.65" x2="563.92" y2="15.48" /><line x1="563.92" y1="15.48" x2="508.92" y2="14.48" />
<line x1="520.02" y1="-17.65" x2="565.1" y2="-49.17" /><line x1="565.1" y1="-49.17" x2="510.1" y2="-50.17" />
<line x1="510.1" y1="-50.17" x2="465.02" y2="-18.65" /><line x1="465.02" y1="-18.65" x2="520.02" y2="-17.65" />
<line x1="510.1" y1="-50.17" x2="494.06" y2="-102.79" /><line x1="494.06" y1="-102.79" x2="510.1" y2="-50.17" />
<line x1="510.1" y1="-50.17" x2="465.02" y2="-18.65" /><line x1="465.02" y1="-18.65" x2="448.97" y2="-71.27" />
<line x1="448.97" y1="-71.27" x2="494.06" y2="-102.79" /><line x1="520.02" y1="-17.65" x2="565.1" y2="-49.17" />
<line x1="565.1" y1="-49.17" x2="609.01" y2="-16.04" /><line x1="609.01" y1="-16.04" x2="563.92" y2="15.48" />
<line x1="563.92" y1="15.48" x2="520.02" y2="-17.65" /><line x1="609.01" y1="-16.04" x2="563.92" y2="15.48" />
<line x1="563.92" y1="15.48" x2="579.97" y2="68.1" /><line x1="579.97" y1="68.1" x2="625.05" y2="36.58" />
<line x1="625.05" y1="36.58" x2="609.01" y2="-16.04" /><line x1="579.97" y1="68.1" x2="563.92" y2="15.48" />
<line x1="563.92" y1="15.48" x2="545.98" y2="67.48" /><line x1="545.98" y1="67.48" x2="562.02" y2="120.1" />
<line x1="562.02" y1="120.1" x2="579.97" y2="68.1" /><line x1="545.98" y1="67.48" x2="490.98" y2="66.48" />
<line x1="490.98" y1="66.48" x2="508.92" y2="14.48" /><line x1="508.92" y1="14.48" x2="465.02" y2="-18.65" />
<line x1="465.02" y1="-18.65" x2="520.02" y2="-17.65" /><line x1="520.02" y1="-17.65" x2="563.92" y2="15.48" />
<line x1="563.92" y1="15.48" x2="508.92" y2="14.48" /><line x1="520.02" y1="-17.65" x2="565.1" y2="-49.17" />
<line x1="565.1" y1="-49.17" x2="609.01" y2="-16.04" /><line x1="609.01" y1="-16.04" x2="563.92" y2="15.48" />
<line x1="563.92" y1="15.48" x2="520.02" y2="-17.65" /><line x1="490.98" y1="66.48" x2="447.07" y2="33.35" />
<line x1="447.07" y1="33.35" x2="401.99" y2="64.86" /><line x1="401.99" y1="64.86" x2="419.93" y2="12.87" />
<line x1="419.93" y1="12.87" x2="465.02" y2="-18.65" /><line x1="465.02" y1="-18.65" x2="447.07" y2="33.35" />
<line x1="419.93" y1="12.87" x2="401.99" y2="64.86" /><line x1="401.99" y1="64.86" x2="346.99" y2="63.86" />
<line x1="346.99" y1="63.86" x2="364.93" y2="11.87" /><line x1="364.93" y1="11.87" x2="419.93" y2="12.87" />
<line x1="346.99" y1="63.86" x2="363.03" y2="116.48" /><line x1="363.03" y1="116.48" x2="418.03" y2="117.48" />
<line x1="418.03" y1="117.48" x2="401.99" y2="64.86" /><line x1="401.99" y1="64.86" x2="346.99" y2="63.86" />
<line x1="418.03" y1="117.48" x2="461.94" y2="150.62" /><line x1="461.94" y1="150.62" x2="445.89" y2="98" />
<line x1="445.89" y1="98" x2="401.99" y2="64.86" /><line x1="401.99" y1="64.86" x2="418.03" y2="117.48" />
<line x1="445.89" y1="98" x2="490.98" y2="66.48" /><line x1="346.99" y1="63.86" x2="401.99" y2="64.86" />
<line x1="401.99" y1="64.86" x2="419.93" y2="12.87" /><line x1="419.93" y1="12.87" x2="364.93" y2="11.87" />
<line x1="364.93" y1="11.87" x2="346.99" y2="63.86" /><line x1="419.93" y1="12.87" x2="465.02" y2="-18.65" />
<line x1="465.02" y1="-18.65" x2="410.02" y2="-19.65" /><line x1="410.02" y1="-19.65" x2="364.93" y2="11.87" />
<line x1="364.93" y1="11.87" x2="419.93" y2="12.87" /><line x1="410.02" y1="-19.65" x2="393.97" y2="-72.27" />
<line x1="393.97" y1="-72.27" x2="448.97" y2="-71.27" /><line x1="448.97" y1="-71.27" x2="465.02" y2="-18.65" />
<line x1="465.02" y1="-18.65" x2="410.02" y2="-19.65" /><line x1="410.02" y1="-19.65" x2="393.97" y2="-72.27" />
<line x1="465.02" y1="-18.65" x2="447.07" y2="33.35" /><line x1="447.07" y1="33.35" x2="490.98" y2="66.48" />
<line x1="490.98" y1="66.48" x2="508.92" y2="14.48" /><line x1="508.92" y1="14.48" x2="465.02" y2="-18.65" />
<line x1="490.98" y1="66.48" x2="447.07" y2="33.35" /><line x1="447.07" y1="33.35" x2="401.99" y2="64.86" />
<line x1="401.99" y1="64.86" x2="419.93" y2="12.87" /><line x1="419.93" y1="12.87" x2="465.02" y2="-18.65" />
<line x1="465.02" y1="-18.65" x2="447.07" y2="33.35" /><line x1="490.98" y1="66.48" x2="445.89" y2="98" />
<line x1="445.89" y1="98" x2="461.94" y2="150.62" /><line x1="461.94" y1="150.62" x2="418.03" y2="117.48" />
<line x1="418.03" y1="117.48" x2="401.99" y2="64.86" /><line x1="401.99" y1="64.86" x2="445.89" y2="98" />
<line x1="418.03" y1="117.48" x2="461.94" y2="150.62" /><line x1="461.94" y1="150.62" x2="443.99" y2="202.62" />
<line x1="443.99" y1="202.62" x2="400.08" y2="169.48" /><line x1="400.08" y1="169.48" x2="418.03" y2="117.48" />
<line x1="443.99" y1="202.62" x2="498.99" y2="203.62" /><line x1="498.99" y1="203.62" x2="516.94" y2="151.62" />
<line x1="516.94" y1="151.62" x2="461.94" y2="150.62" /><line x1="461.94" y1="150.62" x2="443.99" y2="202.62" />
<line x1="516.94" y1="151.62" x2="562.02" y2="120.1" /><line x1="562.02" y1="120.1" x2="507.02" y2="119.1" />
<line x1="507.02" y1="119.1" x2="461.94" y2="150.62" /><line x1="461.94" y1="150.62" x2="516.94" y2="151.62" />
<line x1="507.02" y1="119.1" x2="490.98" y2="66.48" /><line x1="443.99" y1="202.62" x2="461.94" y2="150.62" />
<line x1="461.94" y1="150.62" x2="418.03" y2="117.48" /><line x1="418.03" y1="117.48" x2="400.08" y2="169.48" />
<line x1="400.08" y1="169.48" x2="443.99" y2="202.62" /><line x1="418.03" y1="117.48" x2="400.08" y2="169.48" />
<line x1="400.08" y1="169.48" x2="443.99" y2="202.62" /><line x1="443.99" y1="202.62" x2="388.99" y2="201.62" />
<line x1="388.99" y1="201.62" x2="345.08" y2="168.48" /><line x1="345.08" y1="168.48" x2="400.08" y2="169.48" />
<line x1="388.99" y1="201.62" x2="343.91" y2="233.14" /><line x1="343.91" y1="233.14" x2="398.91" y2="234.14" />
<line x1="398.91" y1="234.14" x2="443.99" y2="202.62" /><line x1="443.99" y1="202.62" x2="388.99" y2="201.62" />
<line x1="398.91" y1="234.14" x2="414.95" y2="286.75" /><line x1="414.95" y1="286.75" x2="398.91" y2="234.14" />
<line x1="398.91" y1="234.14" x2="443.99" y2="202.62" /><line x1="443.99" y1="202.62" x2="460.04" y2="255.24" />
<line x1="460.04" y1="255.24" x2="414.95" y2="286.75" /><line x1="388.99" y1="201.62" x2="343.91" y2="233.14" />
<line x1="343.91" y1="233.14" x2="300" y2="200" /><line x1="300" y1="200" x2="345.08" y2="168.48" />
<line x1="345.08" y1="168.48" x2="388.99" y2="201.62" /><line x1="300" y1="200" x2="345.08" y2="168.48" />
<line x1="345.08" y1="168.48" x2="329.04" y2="115.86" /><line x1="329.04" y1="115.86" x2="283.96" y2="147.38" />
<line x1="283.96" y1="147.38" x2="300" y2="200" /><line x1="329.04" y1="115.86" x2="346.99" y2="63.86" />
<line x1="346.99" y1="63.86" x2="301.9" y2="95.38" /><line x1="301.9" y1="95.38" x2="283.96" y2="147.38" />
<line x1="283.96" y1="147.38" x2="329.04" y2="115.86" /><line x1="301.9" y1="95.38" x2="257.99" y2="62.25" />
<line x1="257.99" y1="62.25" x2="303.08" y2="30.73" /><line x1="303.08" y1="30.73" x2="346.99" y2="63.86" />
<line x1="346.99" y1="63.86" x2="301.9" y2="95.38" /><line x1="301.9" y1="95.38" x2="257.99" y2="62.25" />
<line x1="346.99" y1="63.86" x2="363.03" y2="116.48" /><line x1="363.03" y1="116.48" x2="418.03" y2="117.48" />
<line x1="418.03" y1="117.48" x2="401.99" y2="64.86" /><line x1="401.99" y1="64.86" x2="346.99" y2="63.86" />
<line x1="418.03" y1="117.48" x2="363.03" y2="116.48" /><line x1="363.03" y1="116.48" x2="345.08" y2="168.48" />
<line x1="345.08" y1="168.48" x2="329.04" y2="115.86" /><line x1="329.04" y1="115.86" x2="346.99" y2="63.86" />
<line x1="346.99" y1="63.86" x2="363.03" y2="116.48" /><line x1="346.99" y1="63.86" x2="401.99" y2="64.86" />
<line x1="401.99" y1="64.86" x2="419.93" y2="12.87" /><line x1="419.93" y1="12.87" x2="364.93" y2="11.87" />
<line x1="364.93" y1="11.87" x2="346.99" y2="63.86" /><line x1="419.93" y1="12.87" x2="401.99" y2="64.86" />
<line x1="401.99" y1="64.86" x2="447.07" y2="33.35" /><line x1="447.07" y1="33.35" x2="465.02" y2="-18.65" />
<line x1="465.02" y1="-18.65" x2="419.93" y2="12.87" /><line x1="447.07" y1="33.35" x2="490.98" y2="66.48" />
<line x1="490.98" y1="66.48" x2="445.89" y2="98" /><line x1="445.89" y1="98" x2="461.94" y2="150.62" />
<line x1="461.94" y1="150.62" x2="418.03" y2="117.48" /><line x1="418.03" y1="117.48" x2="401.99" y2="64.86" />
<line x1="401.99" y1="64.86" x2="445.89" y2="98" /><line x1="418.03" y1="117.48" x2="363.03" y2="116.48" />
<line x1="363.03" y1="116.48" x2="346.99" y2="63.86" /><line x1="346.99" y1="63.86" x2="401.99" y2="64.86" />
<line x1="401.99" y1="64.86" x2="418.03" y2="117.48" /><line x1="300" y1="200" x2="283.96" y2="147.38" />
<line x1="283.96" y1="147.38" x2="228.96" y2="146.38" /><line x1="228.96" y1="146.38" x2="245" y2="199" />
<line x1="245" y1="199" x2="300" y2="200" /><line x1="228.96" y1="146.38" x2="185.05" y2="113.25" />
<line x1="185.05" y1="113.25" x2="201.09" y2="165.86" /><line x1="201.09" y1="165.86" x2="245" y2="199" />
<line x1="245" y1="199" x2="228.96" y2="146.38" /><line x1="201.09" y1="165.86" x2="156.01" y2="197.38" />
<line x1="156.01" y1="197.38" x2="139.96" y2="144.76" /><line x1="139.96" y1="144.76" x2="185.05" y2="113.25" />
<line x1="185.05" y1="113.25" x2="201.09" y2="165.86" /><line x1="201.09" y1="165.86" x2="156.01" y2="197.38" />
<line x1="185.05" y1="113.25" x2="240.05" y2="114.25" /><line x1="240.05" y1="114.25" x2="257.99" y2="62.25" />
<line x1="257.99" y1="62.25" x2="202.99" y2="61.25" /><line x1="202.99" y1="61.25" x2="185.05" y2="113.25" />
<line x1="257.99" y1="62.25" x2="240.05" y2="114.25" /><line x1="240.05" y1="114.25" x2="283.96" y2="147.38" />
<line x1="283.96" y1="147.38" x2="228.96" y2="146.38" /><line x1="228.96" y1="146.38" x2="185.05" y2="113.25" />
<line x1="185.05" y1="113.25" x2="240.05" y2="114.25" /><line x1="185.05" y1="113.25" x2="139.96" y2="144.76" />
<line x1="139.96" y1="144.76" x2="156.01" y2="197.38" /><line x1="156.01" y1="197.38" x2="201.09" y2="165.86" />
<line x1="201.09" y1="165.86" x2="185.05" y2="113.25" /><line x1="156.01" y1="197.38" x2="139.96" y2="144.76" />
<line x1="139.96" y1="144.76" x2="122.02" y2="196.76" /><line x1="122.02" y1="196.76" x2="138.06" y2="249.38" />
<line x1="138.06" y1="249.38" x2="156.01" y2="197.38" /><line x1="122.02" y1="196.76" x2="67.02" y2="195.76" />
<line x1="67.02" y1="195.76" x2="84.96" y2="143.76" /><line x1="84.96" y1="143.76" x2="41.06" y2="110.63" />
<line x1="41.06" y1="110.63" x2="96.06" y2="111.63" /><line x1="96.06" y1="111.63" x2="139.96" y2="144.76" />
<line x1="139.96" y1="144.76" x2="84.96" y2="143.76" /><line x1="96.06" y1="111.63" x2="141.14" y2="80.11" />
<line x1="141.14" y1="80.11" x2="185.05" y2="113.25" /><line x1="185.05" y1="113.25" x2="139.96" y2="144.76" />
<line x1="139.96" y1="144.76" x2="96.06" y2="111.63" /><line x1="67.02" y1="195.76" x2="83.06" y2="248.38" />
<line x1="83.06" y1="248.38" x2="138.06" y2="249.38" /><line x1="138.06" y1="249.38" x2="92.98" y2="280.9" />
<line x1="92.98" y1="280.9" x2="37.98" y2="279.9" /><line x1="37.98" y1="279.9" x2="83.06" y2="248.38" />
<line x1="92.98" y1="280.9" x2="138.06" y2="249.38" /><line x1="138.06" y1="249.38" x2="181.97" y2="282.52" />
<line x1="181.97" y1="282.52" x2="136.89" y2="314.04" /><line x1="136.89" y1="314.04" x2="92.98" y2="280.9" />
<line x1="181.97" y1="282.52" x2="199.92" y2="230.52" /><line x1="199.92" y1="230.52" x2="156.01" y2="197.38" />
<line x1="156.01" y1="197.38" x2="138.06" y2="249.38" /><line x1="138.06" y1="249.38" x2="181.97" y2="282.52" />
<line x1="156.01" y1="197.38" x2="139.96" y2="144.76" /><line x1="139.96" y1="144.76" x2="122.02" y2="196.76" />
<line x1="122.02" y1="196.76" x2="138.06" y2="249.38" /><line x1="138.06" y1="249.38" x2="156.01" y2="197.38" />
<line x1="122.02" y1="196.76" x2="67.02" y2="195.76" /><line x1="181.97" y1="282.52" x2="198.01" y2="335.14" />
<line x1="198.01" y1="335.14" x2="253.01" y2="336.14" /><line x1="253.01" y1="336.14" x2="236.97" y2="283.52" />
<line x1="236.97" y1="283.52" x2="181.97" y2="282.52" /><line x1="253.01" y1="336.14" x2="236.97" y2="283.52" />
<line x1="236.97" y1="283.52" x2="181.97" y2="282.52" /><line x1="181.97" y1="282.52" x2="227.05" y2="251" />
<line x1="227.05" y1="251" x2="282.05" y2="252" /><line x1="282.05" y1="252" x2="236.97" y2="283.52" />
<line x1="227.05" y1="251" x2="245" y2="199" /><line x1="245" y1="199" x2="199.92" y2="230.52" />
<line x1="199.92" y1="230.52" x2="181.97" y2="282.52" /><line x1="181.97" y1="282.52" x2="227.05" y2="251" />
<line x1="199.92" y1="230.52" x2="156.01" y2="197.38" /><line x1="156.01" y1="197.38" x2="199.92" y2="230.52" />
<line x1="199.92" y1="230.52" x2="181.97" y2="282.52" /><line x1="181.97" y1="282.52" x2="138.06" y2="249.38" />
<line x1="138.06" y1="249.38" x2="156.01" y2="197.38" /><line x1="227.05" y1="251" x2="245" y2="199" />
<line x1="245" y1="199" x2="300" y2="200" /><line x1="300" y1="200" x2="282.05" y2="252" />
<line x1="282.05" y1="252" x2="227.05" y2="251" /><line x1="67.02" y1="195.76" x2="122.02" y2="196.76" />
<line x1="122.02" y1="196.76" x2="139.96" y2="144.76" /><line x1="139.96" y1="144.76" x2="156.01" y2="197.38" />
<line x1="156.01" y1="197.38" x2="138.06" y2="249.38" /><line x1="138.06" y1="249.38" x2="122.02" y2="196.76" />
<line x1="156.01" y1="197.38" x2="139.96" y2="144.76" /><line x1="139.96" y1="144.76" x2="185.05" y2="113.25" />
<line x1="185.05" y1="113.25" x2="201.09" y2="165.86" /><line x1="201.09" y1="165.86" x2="156.01" y2="197.38" />
<line x1="185.05" y1="113.25" x2="141.14" y2="80.11" /><line x1="141.14" y1="80.11" x2="96.06" y2="111.63" />
<line x1="96.06" y1="111.63" x2="139.96" y2="144.76" /><line x1="139.96" y1="144.76" x2="185.05" y2="113.25" />
<line x1="96.06" y1="111.63" x2="41.06" y2="110.63" /><line x1="41.06" y1="110.63" x2="84.96" y2="143.76" />
<line x1="84.96" y1="143.76" x2="139.96" y2="144.76" /><line x1="139.96" y1="144.76" x2="96.06" y2="111.63" />
<line x1="84.96" y1="143.76" x2="67.02" y2="195.76" /><line x1="185.05" y1="113.25" x2="141.14" y2="80.11" />
<line x1="141.14" y1="80.11" x2="96.06" y2="111.63" /><line x1="96.06" y1="111.63" x2="139.96" y2="144.76" />
<line x1="139.96" y1="144.76" x2="185.05" y2="113.25" /><line x1="96.06" y1="111.63" x2="41.06" y2="110.63" />
<line x1="41.06" y1="110.63" x2="84.96" y2="143.76" /><line x1="84.96" y1="143.76" x2="139.96" y2="144.76" />
<line x1="139.96" y1="144.76" x2="96.06" y2="111.63" /><line x1="84.96" y1="143.76" x2="67.02" y2="195.76" />
<line x1="67.02" y1="195.76" x2="23.11" y2="162.63" /><line x1="23.11" y1="162.63" x2="41.06" y2="110.63" />
<line x1="41.06" y1="110.63" x2="84.96" y2="143.76" /><line x1="84.96" y1="143.76" x2="67.02" y2="195.76" />
<line x1="41.06" y1="110.63" x2="86.14" y2="79.11" /><line x1="86.14" y1="79.11" x2="70.09" y2="26.49" />
<line x1="70.09" y1="26.49" x2="25.01" y2="58.01" /><line x1="25.01" y1="58.01" x2="41.06" y2="110.63" />
<line x1="70.09" y1="26.49" x2="86.14" y2="79.11" /><line x1="86.14" y1="79.11" x2="141.14" y2="80.11" />
<line x1="141.14" y1="80.11" x2="96.06" y2="111.63" /><line x1="96.06" y1="111.63" x2="41.06" y2="110.63" />
<line x1="41.06" y1="110.63" x2="86.14" y2="79.11" /><line x1="41.06" y1="110.63" x2="25.01" y2="58.01" />
<line x1="25.01" y1="58.01" x2="-29.99" y2="57.01" /><line x1="-29.99" y1="57.01" x2="-13.94" y2="109.63" />
<line x1="-13.94" y1="109.63" x2="41.06" y2="110.63" /><line x1="-29.99" y1="57.01" x2="-13.94" y2="109.63" />
<line x1="-13.94" y1="109.63" x2="41.06" y2="110.63" /><line x1="41.06" y1="110.63" x2="-4.03" y2="142.15" />
<line x1="-4.03" y1="142.15" x2="-59.03" y2="141.15" /><line x1="-59.03" y1="141.15" x2="-13.94" y2="109.63" />
<line x1="-4.03" y1="142.15" x2="-21.98" y2="194.15" /><line x1="-21.98" y1="194.15" x2="23.11" y2="162.63" />
<line x1="23.11" y1="162.63" x2="41.06" y2="110.63" /><line x1="41.06" y1="110.63" x2="-4.03" y2="142.15" />
<line x1="23.11" y1="162.63" x2="67.02" y2="195.76" /><line x1="67.02" y1="195.76" x2="23.11" y2="162.63" />
<line x1="23.11" y1="162.63" x2="41.06" y2="110.63" /><line x1="41.06" y1="110.63" x2="84.96" y2="143.76" />
<line x1="84.96" y1="143.76" x2="67.02" y2="195.76" /><line x1="-4.03" y1="142.15" x2="-21.98" y2="194.15" />
<line x1="-21.98" y1="194.15" x2="-76.98" y2="193.15" /><line x1="-76.98" y1="193.15" x2="-59.03" y2="141.15" />
<line x1="-59.03" y1="141.15" x2="-4.03" y2="142.15" /><line x1="-76.98" y1="193.15" x2="-21.98" y2="194.15" />
<line x1="-21.98" y1="194.15" x2="-4.03" y2="142.15" /><line x1="-4.03" y1="142.15" x2="-59.03" y2="141.15" />
<line x1="-59.03" y1="141.15" x2="-76.98" y2="193.15" /><line x1="-4.03" y1="142.15" x2="-21.98" y2="194.15" />
<line x1="-21.98" y1="194.15" x2="23.11" y2="162.63" /><line x1="23.11" y1="162.63" x2="41.06" y2="110.63" />
<line x1="41.06" y1="110.63" x2="-4.03" y2="142.15" /><line x1="23.11" y1="162.63" x2="67.02" y2="195.76" />
<line x1="67.02" y1="195.76" x2="21.93" y2="227.28" /><line x1="21.93" y1="227.28" x2="37.98" y2="279.9" />
<line x1="37.98" y1="279.9" x2="-5.93" y2="246.76" /><line x1="-5.93" y1="246.76" x2="-21.98" y2="194.15" />
<line x1="-21.98" y1="194.15" x2="21.93" y2="227.28" /><line x1="-5.93" y1="246.76" x2="-60.93" y2="245.76" />
<line x1="-60.93" y1="245.76" x2="-76.98" y2="193.15" /><line x1="-76.98" y1="193.15" x2="-21.98" y2="194.15" />
<line x1="-21.98" y1="194.15" x2="-5.93" y2="246.76" /><line x1="41.06" y1="110.63" x2="25.01" y2="58.01" />
<line x1="25.01" y1="58.01" x2="-29.99" y2="57.01" /><line x1="-29.99" y1="57.01" x2="-13.94" y2="109.63" />
<line x1="-13.94" y1="109.63" x2="41.06" y2="110.63" /><line x1="-29.99" y1="57.01" x2="25.01" y2="58.01" />
<line x1="25.01" y1="58.01" x2="-18.9" y2="24.87" /><line x1="-18.9" y1="24.87" x2="-73.9" y2="23.87" />
<line x1="-73.9" y1="23.87" x2="-29.99" y2="57.01" /><line x1="-18.9" y1="24.87" x2="-0.95" y2="-27.13" />
<line x1="-0.95" y1="-27.13" x2="42.96" y2="6.01" /><line x1="42.96" y1="6.01" x2="88.04" y2="-25.51" />
<line x1="88.04" y1="-25.51" x2="70.09" y2="26.49" /><line x1="70.09" y1="26.49" x2="25.01" y2="58.01" />
<line x1="25.01" y1="58.01" x2="42.96" y2="6.01" /><line x1="70.09" y1="26.49" x2="86.14" y2="79.11" />
<line x1="86.14" y1="79.11" x2="41.06" y2="110.63" /><line x1="41.06" y1="110.63" x2="25.01" y2="58.01" />
<line x1="25.01" y1="58.01" x2="70.09" y2="26.49" /><line x1="-0.95" y1="-27.13" x2="42.96" y2="6.01" />
<line x1="42.96" y1="6.01" x2="88.04" y2="-25.51" /><line x1="88.04" y1="-25.51" x2="70.09" y2="26.49" />
<line x1="70.09" y1="26.49" x2="25.01" y2="58.01" /><line x1="25.01" y1="58.01" x2="42.96" y2="6.01" />
<line x1="70.09" y1="26.49" x2="88.04" y2="-25.51" /><line x1="88.04" y1="-25.51" x2="143.04" y2="-24.51" />
<line x1="143.04" y1="-24.51" x2="125.09" y2="27.49" /><line x1="125.09" y1="27.49" x2="70.09" y2="26.49" />
<line x1="143.04" y1="-24.51" x2="127" y2="-77.12" /><line x1="127" y1="-77.12" x2="72" y2="-78.12" />
<line x1="72" y1="-78.12" x2="88.04" y2="-25.51" /><line x1="88.04" y1="-25.51" x2="143.04" y2="-24.51" />
<line x1="72" y1="-78.12" x2="28.09" y2="-111.26" /><line x1="28.09" y1="-111.26" x2="44.13" y2="-58.64" />
<line x1="44.13" y1="-58.64" x2="88.04" y2="-25.51" /><line x1="88.04" y1="-25.51" x2="72" y2="-78.12" />
<line x1="44.13" y1="-58.64" x2="-0.95" y2="-27.13" /><line x1="143.04" y1="-24.51" x2="186.95" y2="8.63" />
<line x1="186.95" y1="8.63" x2="232.03" y2="-22.89" /><line x1="232.03" y1="-22.89" x2="188.12" y2="-56.03" />
<line x1="188.12" y1="-56.03" x2="143.04" y2="-24.51" /><line x1="232.03" y1="-22.89" x2="188.12" y2="-56.03" />
<line x1="188.12" y1="-56.03" x2="143.04" y2="-24.51" /><line x1="143.04" y1="-24.51" x2="160.99" y2="-76.51" />
<line x1="160.99" y1="-76.51" x2="206.07" y2="-108.03" /><line x1="206.07" y1="-108.03" x2="188.12" y2="-56.03" />
<line x1="160.99" y1="-76.51" x2="144.94" y2="-129.12" /><line x1="144.94" y1="-129.12" x2="127" y2="-77.12" />
<line x1="127" y1="-77.12" x2="143.04" y2="-24.51" /><line x1="143.04" y1="-24.51" x2="160.99" y2="-76.51" />
<line x1="127" y1="-77.12" x2="72" y2="-78.12" /><line x1="72" y1="-78.12" x2="127" y2="-77.12" />
<line x1="127" y1="-77.12" x2="143.04" y2="-24.51" /><line x1="143.04" y1="-24.51" x2="88.04" y2="-25.51" />
<line x1="88.04" y1="-25.51" x2="72" y2="-78.12" /><line x1="160.99" y1="-76.51" x2="144.94" y2="-129.12" />
<line x1="144.94" y1="-129.12" x2="190.03" y2="-160.64" /><line x1="190.03" y1="-160.64" x2="206.07" y2="-108.03" />
<line x1="206.07" y1="-108.03" x2="160.99" y2="-76.51" /><line x1="190.03" y1="-160.64" x2="206.07" y2="-108.03" />
<line x1="206.07" y1="-108.03" x2="261.07" y2="-107.03" /><line x1="261.07" y1="-107.03" x2="245.03" y2="-159.64" />
<line x1="245.03" y1="-159.64" x2="190.03" y2="-160.64" /><line x1="261.07" y1="-107.03" x2="206.07" y2="-108.03" />
<line x1="206.07" y1="-108.03" x2="249.98" y2="-74.89" /><line x1="249.98" y1="-74.89" x2="304.98" y2="-73.89" />
<line x1="304.98" y1="-73.89" x2="261.07" y2="-107.03" /><line x1="249.98" y1="-74.89" x2="232.03" y2="-22.89" />
<line x1="232.03" y1="-22.89" x2="188.12" y2="-56.03" /><line x1="188.12" y1="-56.03" x2="143.04" y2="-24.51" />
<line x1="143.04" y1="-24.51" x2="160.99" y2="-76.51" /><line x1="160.99" y1="-76.51" x2="206.07" y2="-108.03" />
<line x1="206.07" y1="-108.03" x2="188.12" y2="-56.03" /><line x1="160.99" y1="-76.51" x2="144.94" y2="-129.12" />
<line x1="144.94" y1="-129.12" x2="190.03" y2="-160.64" /><line x1="190.03" y1="-160.64" x2="206.07" y2="-108.03" />
<line x1="206.07" y1="-108.03" x2="160.99" y2="-76.51" /><line x1="232.03" y1="-22.89" x2="186.95" y2="8.63" />
<line x1="186.95" y1="8.63" x2="202.99" y2="61.25" /><line x1="202.99" y1="61.25" x2="159.09" y2="28.11" />
<line x1="159.09" y1="28.11" x2="143.04" y2="-24.51" /><line x1="143.04" y1="-24.51" x2="186.95" y2="8.63" />
<line x1="159.09" y1="28.11" x2="202.99" y2="61.25" /><line x1="202.99" y1="61.25" x2="185.05" y2="113.25" />
<line x1="185.05" y1="113.25" x2="141.14" y2="80.11" /><line x1="141.14" y1="80.11" x2="159.09" y2="28.11" />
<line x1="185.05" y1="113.25" x2="240.05" y2="114.25" /><line x1="240.05" y1="114.25" x2="257.99" y2="62.25" />
<line x1="257.99" y1="62.25" x2="202.99" y2="61.25" /><line x1="202.99" y1="61.25" x2="185.05" y2="113.25" />
<line x1="257.99" y1="62.25" x2="303.08" y2="30.73" /><line x1="303.08" y1="30.73" x2="248.08" y2="29.73" />
<line x1="248.08" y1="29.73" x2="202.99" y2="61.25" /><line x1="202.99" y1="61.25" x2="257.99" y2="62.25" />
<line x1="248.08" y1="29.73" x2="232.03" y2="-22.89" /><line x1="185.05" y1="113.25" x2="202.99" y2="61.25" />
<line x1="202.99" y1="61.25" x2="159.09" y2="28.11" /><line x1="159.09" y1="28.11" x2="141.14" y2="80.11" />
<line x1="141.14" y1="80.11" x2="185.05" y2="113.25" /><line x1="159.09" y1="28.11" x2="143.04" y2="-24.51" />
<line x1="143.04" y1="-24.51" x2="125.09" y2="27.49" /><line x1="125.09" y1="27.49" x2="141.14" y2="80.11" />
<line x1="141.14" y1="80.11" x2="159.09" y2="28.11" /><line x1="125.09" y1="27.49" x2="70.09" y2="26.49" />
<line x1="70.09" y1="26.49" x2="88.04" y2="-25.51" /><line x1="88.04" y1="-25.51" x2="143.04" y2="-24.51" />
<line x1="143.04" y1="-24.51" x2="125.09" y2="27.49" /><line x1="125.09" y1="27.49" x2="70.09" y2="26.49" />
<line x1="143.04" y1="-24.51" x2="186.95" y2="8.63" /><line x1="186.95" y1="8.63" x2="232.03" y2="-22.89" />
<line x1="232.03" y1="-22.89" x2="188.12" y2="-56.03" /><line x1="188.12" y1="-56.03" x2="143.04" y2="-24.51" />
<line x1="232.03" y1="-22.89" x2="186.95" y2="8.63" /><line x1="186.95" y1="8.63" x2="202.99" y2="61.25" />
<line x1="202.99" y1="61.25" x2="159.09" y2="28.11" /><line x1="159.09" y1="28.11" x2="143.04" y2="-24.51" />
<line x1="143.04" y1="-24.51" x2="186.95" y2="8.63" /><line x1="232.03" y1="-22.89" x2="248.08" y2="29.73" />
<line x1="248.08" y1="29.73" x2="303.08" y2="30.73" /><line x1="303.08" y1="30.73" x2="257.99" y2="62.25" />
<line x1="257.99" y1="62.25" x2="202.99" y2="61.25" /><line x1="202.99" y1="61.25" x2="248.08" y2="29.73" />
<line x1="257.99" y1="62.25" x2="303.08" y2="30.73" /><line x1="303.08" y1="30.73" x2="346.99" y2="63.86" />
<line x1="346.99" y1="63.86" x2="301.9" y2="95.38" /><line x1="301.9" y1="95.38" x2="257.99" y2="62.25" />
<line x1="346.99" y1="63.86" x2="364.93" y2="11.87" /><line x1="364.93" y1="11.87" x2="321.02" y2="-21.27" />
<line x1="321.02" y1="-21.27" x2="303.08" y2="30.73" /><line x1="303.08" y1="30.73" x2="346.99" y2="63.86" />
<line x1="321.02" y1="-21.27" x2="304.98" y2="-73.89" /><line x1="304.98" y1="-73.89" x2="287.03" y2="-21.89" />
<line x1="287.03" y1="-21.89" x2="303.08" y2="30.73" /><line x1="303.08" y1="30.73" x2="321.02" y2="-21.27" />
<line x1="287.03" y1="-21.89" x2="232.03" y2="-22.89" /><line x1="346.99" y1="63.86" x2="303.08" y2="30.73" />
<line x1="303.08" y1="30.73" x2="257.99" y2="62.25" /><line x1="257.99" y1="62.25" x2="301.9" y2="95.38" />
<line x1="301.9" y1="95.38" x2="346.99" y2="63.86" /><line x1="257.99" y1="62.25" x2="301.9" y2="95.38" />
<line x1="301.9" y1="95.38" x2="346.99" y2="63.86" /><line x1="346.99" y1="63.86" x2="329.04" y2="115.86" />
<line x1="329.04" y1="115.86" x2="283.96" y2="147.38" /><line x1="283.96" y1="147.38" x2="301.9" y2="95.38" />
<line x1="329.04" y1="115.86" x2="345.08" y2="168.48" /><line x1="345.08" y1="168.48" x2="363.03" y2="116.48" />
<line x1="363.03" y1="116.48" x2="346.99" y2="63.86" /><line x1="346.99" y1="63.86" x2="329.04" y2="115.86" />
<line x1="363.03" y1="116.48" x2="418.03" y2="117.48" /><line x1="418.03" y1="117.48" x2="363.03" y2="116.48" />
<line x1="363.03" y1="116.48" x2="346.99" y2="63.86" /><line x1="346.99" y1="63.86" x2="401.99" y2="64.86" />
<line x1="401.99" y1="64.86" x2="418.03" y2="117.48" /><line x1="329.04" y1="115.86" x2="345.08" y2="168.48" />
<line x1="345.08" y1="168.48" x2="300" y2="200" /><line x1="300" y1="200" x2="283.96" y2="147.38" />
<line x1="283.96" y1="147.38" x2="329.04" y2="115.86" /><line x1="300" y1="200" x2="283.96" y2="147.38" />
<line x1="283.96" y1="147.38" x2="228.96" y2="146.38" /><line x1="228.96" y1="146.38" x2="245" y2="199" />
<line x1="245" y1="199" x2="300" y2="200" /><line x1="228.96" y1="146.38" x2="185.05" y2="113.25" />
<line x1="185.05" y1="113.25" x2="201.09" y2="165.86" /><line x1="201.09" y1="165.86" x2="245" y2="199" />
<line x1="245" y1="199" x2="228.96" y2="146.38" /><line x1="201.09" y1="165.86" x2="156.01" y2="197.38" />
<line x1="156.01" y1="197.38" x2="139.96" y2="144.76" /><line x1="139.96" y1="144.76" x2="185.05" y2="113.25" />
<line x1="185.05" y1="113.25" x2="201.09" y2="165.86" /><line x1="201.09" y1="165.86" x2="156.01" y2="197.38" />
<line x1="185.05" y1="113.25" x2="240.05" y2="114.25" /><line x1="240.05" y1="114.25" x2="257.99" y2="62.25" />
<line x1="257.99" y1="62.25" x2="202.99" y2="61.25" /><line x1="202.99" y1="61.25" x2="185.05" y2="113.25" />
<line x1="257.99" y1="62.25" x2="240.05" y2="114.25" /><line x1="240.05" y1="114.25" x2="283.96" y2="147.38" />
<line x1="283.96" y1="147.38" x2="228.96" y2="146.38" /><line x1="228.96" y1="146.38" x2="185.05" y2="113.25" />
<line x1="185.05" y1="113.25" x2="240.05" y2="114.25" /><line x1="185.05" y1="113.25" x2="202.99" y2="61.25" />
<line x1="202.99" y1="61.25" x2="159.09" y2="28.11" /><line x1="159.09" y1="28.11" x2="141.14" y2="80.11" />
<line x1="141.14" y1="80.11" x2="185.05" y2="113.25" /><line x1="159.09" y1="28.11" x2="202.99" y2="61.25" />
<line x1="202.99" y1="61.25" x2="186.95" y2="8.63" /><line x1="186.95" y1="8.63" x2="143.04" y2="-24.51" />
<line x1="143.04" y1="-24.51" x2="159.09" y2="28.11" /><line x1="186.95" y1="8.63" x2="232.03" y2="-22.89" />
<line x1="232.03" y1="-22.89" x2="248.08" y2="29.73" /><line x1="248.08" y1="29.73" x2="303.08" y2="30.73" />
<line x1="303.08" y1="30.73" x2="257.99" y2="62.25" /><line x1="257.99" y1="62.25" x2="202.99" y2="61.25" />
<line x1="202.99" y1="61.25" x2="248.08" y2="29.73" /><line x1="257.99" y1="62.25" x2="240.05" y2="114.25" />
<line x1="240.05" y1="114.25" x2="185.05" y2="113.25" /><line x1="185.05" y1="113.25" x2="202.99" y2="61.25" />
<line x1="202.99" y1="61.25" x2="257.99" y2="62.25" /><line x1="300" y1="200" x2="245" y2="199" />
<line x1="245" y1="199" x2="227.05" y2="251" /><line x1="227.05" y1="251" x2="282.05" y2="252" />
<line x1="282.05" y1="252" x2="300" y2="200" /><line x1="227.05" y1="251" x2="181.97" y2="282.52" />
<line x1="181.97" y1="282.52" x2="236.97" y2="283.52" /><line x1="236.97" y1="283.52" x2="282.05" y2="252" />
<line x1="282.05" y1="252" x2="227.05" y2="251" /><line x1="236.97" y1="283.52" x2="253.01" y2="336.14" />
<line x1="253.01" y1="336.14" x2="198.01" y2="335.14" /><line x1="198.01" y1="335.14" x2="181.97" y2="282.52" />
<line x1="181.97" y1="282.52" x2="236.97" y2="283.52" /><line x1="236.97" y1="283.52" x2="253.01" y2="336.14" />
<line x1="181.97" y1="282.52" x2="199.92" y2="230.52" /><line x1="199.92" y1="230.52" x2="156.01" y2="197.38" />
<line x1="156.01" y1="197.38" x2="138.06" y2="249.38" /><line x1="138.06" y1="249.38" x2="181.97" y2="282.52" />
<line x1="156.01" y1="197.38" x2="199.92" y2="230.52" /><line x1="199.92" y1="230.52" x2="245" y2="199" />
<line x1="245" y1="199" x2="227.05" y2="251" /><line x1="227.05" y1="251" x2="181.97" y2="282.52" />
<line x1="181.97" y1="282.52" x2="199.92" y2="230.52" /><line x1="181.97" y1="282.52" x2="198.01" y2="335.14" />
<line x1="198.01" y1="335.14" x2="253.01" y2="336.14" /><line x1="253.01" y1="336.14" x2="236.97" y2="283.52" />
<line x1="236.97" y1="283.52" x2="181.97" y2="282.52" /><line x1="253.01" y1="336.14" x2="198.01" y2="335.14" />
<line x1="198.01" y1="335.14" x2="241.92" y2="368.27" /><line x1="241.92" y1="368.27" x2="296.92" y2="369.27" />
<line x1="296.92" y1="369.27" x2="253.01" y2="336.14" /><line x1="241.92" y1="368.27" x2="223.98" y2="420.27" />
<line x1="223.98" y1="420.27" x2="180.07" y2="387.13" /><line x1="180.07" y1="387.13" x2="134.98" y2="418.65" />
<line x1="134.98" y1="418.65" x2="152.93" y2="366.65" /><line x1="152.93" y1="366.65" x2="198.01" y2="335.14" />
<line x1="198.01" y1="335.14" x2="180.07" y2="387.13" /><line x1="152.93" y1="366.65" x2="136.89" y2="314.04" />
<line x1="136.89" y1="314.04" x2="181.97" y2="282.52" /><line x1="181.97" y1="282.52" x2="198.01" y2="335.14" />
<line x1="198.01" y1="335.14" x2="152.93" y2="366.65" /><line x1="223.98" y1="420.27" x2="278.98" y2="421.27" />
<line x1="278.98" y1="421.27" x2="296.92" y2="369.27" /><line x1="296.92" y1="369.27" x2="312.97" y2="421.89" />
<line x1="312.97" y1="421.89" x2="295.02" y2="473.89" /><line x1="295.02" y1="473.89" x2="278.98" y2="421.27" />
<line x1="312.97" y1="421.89" x2="296.92" y2="369.27" /><line x1="296.92" y1="369.27" x2="342.01" y2="337.75" />
<line x1="342.01" y1="337.75" x2="358.05" y2="390.37" /><line x1="358.05" y1="390.37" x2="312.97" y2="421.89" />
<line x1="342.01" y1="337.75" x2="298.1" y2="304.62" /><line x1="298.1" y1="304.62" x2="253.01" y2="336.14" />
<line x1="253.01" y1="336.14" x2="296.92" y2="369.27" /><line x1="296.92" y1="369.27" x2="342.01" y2="337.75" />
<line x1="253.01" y1="336.14" x2="198.01" y2="335.14" /><line x1="198.01" y1="335.14" x2="241.92" y2="368.27" />
<line x1="241.92" y1="368.27" x2="296.92" y2="369.27" /><line x1="296.92" y1="369.27" x2="253.01" y2="336.14" />
<line x1="241.92" y1="368.27" x2="223.98" y2="420.27" /><line x1="342.01" y1="337.75" x2="397.01" y2="338.75" />
<line x1="397.01" y1="338.75" x2="414.95" y2="286.75" /><line x1="414.95" y1="286.75" x2="359.95" y2="285.75" />
<line x1="359.95" y1="285.75" x2="342.01" y2="337.75" /><line x1="414.95" y1="286.75" x2="359.95" y2="285.75" />
<line x1="359.95" y1="285.75" x2="342.01" y2="337.75" /><line x1="342.01" y1="337.75" x2="325.96" y2="285.14" />
<line x1="325.96" y1="285.14" x2="343.91" y2="233.14" /><line x1="343.91" y1="233.14" x2="359.95" y2="285.75" />
<line x1="325.96" y1="285.14" x2="282.05" y2="252" /><line x1="282.05" y1="252" x2="298.1" y2="304.62" />
<line x1="298.1" y1="304.62" x2="342.01" y2="337.75" /><line x1="342.01" y1="337.75" x2="325.96" y2="285.14" />
<line x1="298.1" y1="304.62" x2="253.01" y2="336.14" /><line x1="253.01" y1="336.14" x2="298.1" y2="304.62" />
<line x1="298.1" y1="304.62" x2="342.01" y2="337.75" /><line x1="342.01" y1="337.75" x2="296.92" y2="369.27" />
<line x1="296.92" y1="369.27" x2="253.01" y2="336.14" /><line x1="325.96" y1="285.14" x2="282.05" y2="252" />
<line x1="282.05" y1="252" x2="300" y2="200" /><line x1="300" y1="200" x2="343.91" y2="233.14" />
<line x1="343.91" y1="233.14" x2="325.96" y2="285.14" /><line x1="223.98" y1="420.27" x2="241.92" y2="368.27" />
<line x1="241.92" y1="368.27" x2="198.01" y2="335.14" /><line x1="198.01" y1="335.14" x2="253.01" y2="336.14" />
<line x1="253.01" y1="336.14" x2="296.92" y2="369.27" /><line x1="296.92" y1="369.27" x2="241.92" y2="368.27" />
<line x1="253.01" y1="336.14" x2="198.01" y2="335.14" /><line x1="198.01" y1="335.14" x2="181.97" y2="282.52" />
<line x1="181.97" y1="282.52" x2="236.97" y2="283.52" /><line x1="236.97" y1="283.52" x2="253.01" y2="336.14" />
<line x1="181.97" y1="282.52" x2="136.89" y2="314.04" /><line x1="136.89" y1="314.04" x2="152.93" y2="366.65" />
<line x1="152.93" y1="366.65" x2="198.01" y2="335.14" /><line x1="198.01" y1="335.14" x2="181.97" y2="282.52" />
<line x1="152.93" y1="366.65" x2="134.98" y2="418.65" /><line x1="134.98" y1="418.65" x2="180.07" y2="387.13" />
<line x1="180.07" y1="387.13" x2="198.01" y2="335.14" /><line x1="198.01" y1="335.14" x2="152.93" y2="366.65" />
<line x1="180.07" y1="387.13" x2="223.98" y2="420.27" /><line x1="181.97" y1="282.52" x2="136.89" y2="314.04" />
<line x1="136.89" y1="314.04" x2="152.93" y2="366.65" /><line x1="152.93" y1="366.65" x2="198.01" y2="335.14" />
<line x1="198.01" y1="335.14" x2="181.97" y2="282.52" /><line x1="152.93" y1="366.65" x2="134.98" y2="418.65" />
<line x1="134.98" y1="418.65" x2="180.07" y2="387.13" /><line x1="180.07" y1="387.13" x2="198.01" y2="335.14" />
<line x1="198.01" y1="335.14" x2="152.93" y2="366.65" /><line x1="180.07" y1="387.13" x2="223.98" y2="420.27" />
<line x1="223.98" y1="420.27" x2="178.89" y2="451.79" /><line x1="178.89" y1="451.79" x2="134.98" y2="418.65" />
<line x1="134.98" y1="418.65" x2="180.07" y2="387.13" /><line x1="180.07" y1="387.13" x2="223.98" y2="420.27" />
<line x1="134.98" y1="418.65" x2="118.94" y2="366.04" /><line x1="118.94" y1="366.04" x2="63.94" y2="365.04" />
<line x1="63.94" y1="365.04" x2="79.98" y2="417.65" /><line x1="79.98" y1="417.65" x2="134.98" y2="418.65" />
<line x1="63.94" y1="365.04" x2="118.94" y2="366.04" /><line x1="118.94" y1="366.04" x2="136.89" y2="314.04" />
<line x1="136.89" y1="314.04" x2="152.93" y2="366.65" /><line x1="152.93" y1="366.65" x2="134.98" y2="418.65" />
<line x1="134.98" y1="418.65" x2="118.94" y2="366.04" /><line x1="134.98" y1="418.65" x2="79.98" y2="417.65" />
<line x1="79.98" y1="417.65" x2="62.04" y2="469.65" /><line x1="62.04" y1="469.65" x2="117.04" y2="470.65" />
<line x1="117.04" y1="470.65" x2="134.98" y2="418.65" /><line x1="62.04" y1="469.65" x2="117.04" y2="470.65" />
<line x1="117.04" y1="470.65" x2="134.98" y2="418.65" /><line x1="134.98" y1="418.65" x2="151.03" y2="471.27" />
<line x1="151.03" y1="471.27" x2="133.08" y2="523.27" /><line x1="133.08" y1="523.27" x2="117.04" y2="470.65" />
<line x1="151.03" y1="471.27" x2="194.94" y2="504.41" /><line x1="194.94" y1="504.41" x2="178.89" y2="451.79" />
<line x1="178.89" y1="451.79" x2="134.98" y2="418.65" /><line x1="134.98" y1="418.65" x2="151.03" y2="471.27" />
<line x1="178.89" y1="451.79" x2="223.98" y2="420.27" /><line x1="223.98" y1="420.27" x2="178.89" y2="451.79" />
<line x1="178.89" y1="451.79" x2="134.98" y2="418.65" /><line x1="134.98" y1="418.65" x2="180.07" y2="387.13" />
<line x1="180.07" y1="387.13" x2="223.98" y2="420.27" /><line x1="151.03" y1="471.27" x2="194.94" y2="504.41" />
<line x1="194.94" y1="504.41" x2="176.99" y2="556.41" /><line x1="176.99" y1="556.41" x2="133.08" y2="523.27" />
<line x1="133.08" y1="523.27" x2="151.03" y2="471.27" /><line x1="176.99" y1="556.41" x2="194.94" y2="504.41" />
<line x1="194.94" y1="504.41" x2="151.03" y2="471.27" /><line x1="151.03" y1="471.27" x2="133.08" y2="523.27" />
<line x1="133.08" y1="523.27" x2="176.99" y2="556.41" /><line x1="151.03" y1="471.27" x2="194.94" y2="504.41" />
<line x1="194.94" y1="504.41" x2="178.89" y2="451.79" /><line x1="178.89" y1="451.79" x2="134.98" y2="418.65" />
<line x1="134.98" y1="418.65" x2="151.03" y2="471.27" /><line x1="178.89" y1="451.79" x2="223.98" y2="420.27" />
<line x1="223.98" y1="420.27" x2="240.02" y2="472.89" /><line x1="240.02" y1="472.89" x2="295.02" y2="473.89" />
<line x1="295.02" y1="473.89" x2="249.94" y2="505.41" /><line x1="249.94" y1="505.41" x2="194.94" y2="504.41" />
<line x1="194.94" y1="504.41" x2="240.02" y2="472.89" /><line x1="249.94" y1="505.41" x2="231.99" y2="557.41" />
<line x1="231.99" y1="557.41" x2="176.99" y2="556.41" /><line x1="176.99" y1="556.41" x2="194.94" y2="504.41" />
<line x1="194.94" y1="504.41" x2="249.94" y2="505.41" /><line x1="134.98" y1="418.65" x2="79.98" y2="417.65" />
<line x1="79.98" y1="417.65" x2="62.04" y2="469.65" /><line x1="62.04" y1="469.65" x2="117.04" y2="470.65" />
<line x1="117.04" y1="470.65" x2="134.98" y2="418.65" /><line x1="62.04" y1="469.65" x2="79.98" y2="417.65" />
<line x1="79.98" y1="417.65" x2="34.9" y2="449.17" /><line x1="34.9" y1="449.17" x2="16.95" y2="501.17" />
<line x1="16.95" y1="501.17" x2="62.04" y2="469.65" /><line x1="34.9" y1="449.17" x2="-9.01" y2="416.04" />
<line x1="-9.01" y1="416.04" x2="36.08" y2="384.52" /><line x1="36.08" y1="384.52" x2="20.03" y2="331.9" />
<line x1="20.03" y1="331.9" x2="63.94" y2="365.04" /><line x1="63.94" y1="365.04" x2="79.98" y2="417.65" />
<line x1="79.98" y1="417.65" x2="36.08" y2="384.52" /><line x1="63.94" y1="365.04" x2="118.94" y2="366.04" />
<line x1="118.94" y1="366.04" x2="134.98" y2="418.65" /><line x1="134.98" y1="418.65" x2="79.98" y2="417.65" />
<line x1="79.98" y1="417.65" x2="63.94" y2="365.04" /><line x1="-9.01" y1="416.04" x2="36.08" y2="384.52" />
<line x1="36.08" y1="384.52" x2="20.03" y2="331.9" /><line x1="20.03" y1="331.9" x2="63.94" y2="365.04" />
<line x1="63.94" y1="365.04" x2="79.98" y2="417.65" /><line x1="79.98" y1="417.65" x2="36.08" y2="384.52" />
<line x1="63.94" y1="365.04" x2="20.03" y2="331.9" /><line x1="20.03" y1="331.9" x2="37.98" y2="279.9" />
<line x1="37.98" y1="279.9" x2="81.89" y2="313.04" /><line x1="81.89" y1="313.04" x2="63.94" y2="365.04" />
<line x1="37.98" y1="279.9" x2="-17.02" y2="278.9" /><line x1="-17.02" y1="278.9" x2="-34.97" y2="330.9" />
<line x1="-34.97" y1="330.9" x2="20.03" y2="331.9" /><line x1="20.03" y1="331.9" x2="37.98" y2="279.9" />
<line x1="-34.97" y1="330.9" x2="-80.05" y2="362.42" /><line x1="-80.05" y1="362.42" x2="-25.05" y2="363.42" />
<line x1="-25.05" y1="363.42" x2="20.03" y2="331.9" /><line x1="20.03" y1="331.9" x2="-34.97" y2="330.9" />
<line x1="-25.05" y1="363.42" x2="-9.01" y2="416.04" /><line x1="37.98" y1="279.9" x2="83.06" y2="248.38" />
<line x1="83.06" y1="248.38" x2="67.02" y2="195.76" /><line x1="67.02" y1="195.76" x2="21.93" y2="227.28" />
<line x1="21.93" y1="227.28" x2="37.98" y2="279.9" /><line x1="67.02" y1="195.76" x2="21.93" y2="227.28" />
<line x1="21.93" y1="227.28" x2="37.98" y2="279.9" /><line x1="37.98" y1="279.9" x2="-5.93" y2="246.76" />
<line x1="-5.93" y1="246.76" x2="-21.98" y2="194.15" /><line x1="-21.98" y1="194.15" x2="21.93" y2="227.28" />
<line x1="-5.93" y1="246.76" x2="-60.93" y2="245.76" /><line x1="-60.93" y1="245.76" x2="-17.02" y2="278.9" />
<line x1="-17.02" y1="278.9" x2="37.98" y2="279.9" /><line x1="37.98" y1="279.9" x2="-5.93" y2="246.76" />
<line x1="-17.02" y1="278.9" x2="-34.97" y2="330.9" /><line x1="-34.97" y1="330.9" x2="-17.02" y2="278.9" />
<line x1="-17.02" y1="278.9" x2="37.98" y2="279.9" /><line x1="37.98" y1="279.9" x2="20.03" y2="331.9" />
<line x1="20.03" y1="331.9" x2="-34.97" y2="330.9" /><line x1="-5.93" y1="246.76" x2="-60.93" y2="245.76" />
<line x1="-60.93" y1="245.76" x2="-76.98" y2="193.15" /><line x1="-76.98" y1="193.15" x2="-21.98" y2="194.15" />
<line x1="-21.98" y1="194.15" x2="-5.93" y2="246.76" /><line x1="-76.98" y1="193.15" x2="-21.98" y2="194.15" />
<line x1="-21.98" y1="194.15" x2="-4.03" y2="142.15" /><line x1="-4.03" y1="142.15" x2="-59.03" y2="141.15" />
<line x1="-59.03" y1="141.15" x2="-76.98" y2="193.15" /><line x1="-4.03" y1="142.15" x2="-21.98" y2="194.15" />
<line x1="-21.98" y1="194.15" x2="23.11" y2="162.63" /><line x1="23.11" y1="162.63" x2="41.06" y2="110.63" />
<line x1="41.06" y1="110.63" x2="-4.03" y2="142.15" /><line x1="23.11" y1="162.63" x2="67.02" y2="195.76" />
<line x1="67.02" y1="195.76" x2="21.93" y2="227.28" /><line x1="21.93" y1="227.28" x2="37.98" y2="279.9" />
<line x1="37.98" y1="279.9" x2="-5.93" y2="246.76" /><line x1="-5.93" y1="246.76" x2="-21.98" y2="194.15" />
<line x1="-21.98" y1="194.15" x2="21.93" y2="227.28" /><line x1="-5.93" y1="246.76" x2="-60.93" y2="245.76" />
<line x1="-60.93" y1="245.76" x2="-76.98" y2="193.15" /><line x1="-76.98" y1="193.15" x2="-21.98" y2="194.15" />
<line x1="-21.98" y1="194.15" x2="-5.93" y2="246.76" /><line x1="67.02" y1="195.76" x2="83.06" y2="248.38" />
<line x1="83.06" y1="248.38" x2="138.06" y2="249.38" /><line x1="138.06" y1="249.38" x2="92.98" y2="280.9" />
<line x1="92.98" y1="280.9" x2="37.98" y2="279.9" /><line x1="37.98" y1="279.9" x2="83.06" y2="248.38" />
<line x1="92.98" y1="280.9" x2="138.06" y2="249.38" /><line x1="138.06" y1="249.38" x2="181.97" y2="282.52" />
<line x1="181.97" y1="282.52" x2="136.89" y2="314.04" /><line x1="136.89" y1="314.04" x2="92.98" y2="280.9" />
<line x1="181.97" y1="282.52" x2="199.92" y2="230.52" /><line x1="199.92" y1="230.52" x2="156.01" y2="197.38" />
<line x1="156.01" y1="197.38" x2="138.06" y2="249.38" /><line x1="138.06" y1="249.38" x2="181.97" y2="282.52" />
<line x1="156.01" y1="197.38" x2="139.96" y2="144.76" /><line x1="139.96" y1="144.76" x2="122.02" y2="196.76" />
<line x1="122.02" y1="196.76" x2="138.06" y2="249.38" /><line x1="138.06" y1="249.38" x2="156.01" y2="197.38" />
<line x1="122.02" y1="196.76" x2="67.02" y2="195.76" /><line x1="181.97" y1="282.52" x2="138.06" y2="249.38" />
<line x1="138.06" y1="249.38" x2="92.98" y2="280.9" /><line x1="92.98" y1="280.9" x2="136.89" y2="314.04" />
<line x1="136.89" y1="314.04" x2="181.97" y2="282.52" /><line x1="92.98" y1="280.9" x2="37.98" y2="279.9" />
<line x1="37.98" y1="279.9" x2="81.89" y2="313.04" /><line x1="81.89" y1="313.04" x2="136.89" y2="314.04" />
<line x1="136.89" y1="314.04" x2="92.98" y2="280.9" /><line x1="81.89" y1="313.04" x2="63.94" y2="365.04" />
<line x1="63.94" y1="365.04" x2="20.03" y2="331.9" /><line x1="20.03" y1="331.9" x2="37.98" y2="279.9" />
<line x1="37.98" y1="279.9" x2="81.89" y2="313.04" /><line x1="81.89" y1="313.04" x2="63.94" y2="365.04" />
<line x1="37.98" y1="279.9" x2="83.06" y2="248.38" /><line x1="83.06" y1="248.38" x2="67.02" y2="195.76" />
<line x1="67.02" y1="195.76" x2="21.93" y2="227.28" /><line x1="21.93" y1="227.28" x2="37.98" y2="279.9" />
<line x1="67.02" y1="195.76" x2="83.06" y2="248.38" /><line x1="83.06" y1="248.38" x2="138.06" y2="249.38" />
<line x1="138.06" y1="249.38" x2="92.98" y2="280.9" /><line x1="92.98" y1="280.9" x2="37.98" y2="279.9" />
<line x1="37.98" y1="279.9" x2="83.06" y2="248.38" /><line x1="67.02" y1="195.76" x2="122.02" y2="196.76" />
<line x1="122.02" y1="196.76" x2="139.96" y2="144.76" /><line x1="139.96" y1="144.76" x2="156.01" y2="197.38" />
<line x1="156.01" y1="197.38" x2="138.06" y2="249.38" /><line x1="138.06" y1="249.38" x2="122.02" y2="196.76" />
<line x1="156.01" y1="197.38" x2="139.96" y2="144.76" /><line x1="139.96" y1="144.76" x2="185.05" y2="113.25" />
<line x1="185.05" y1="113.25" x2="201.09" y2="165.86" /><line x1="201.09" y1="165.86" x2="156.01" y2="197.38" />
<line x1="185.05" y1="113.25" x2="141.14" y2="80.11" /><line x1="141.14" y1="80.11" x2="96.06" y2="111.63" />
<line x1="96.06" y1="111.63" x2="139.96" y2="144.76" /><line x1="139.96" y1="144.76" x2="185.05" y2="113.25" />
<line x1="96.06" y1="111.63" x2="41.06" y2="110.63" /><line x1="41.06" y1="110.63" x2="84.96" y2="143.76" />
<line x1="84.96" y1="143.76" x2="139.96" y2="144.76" /><line x1="139.96" y1="144.76" x2="96.06" y2="111.63" />
<line x1="84.96" y1="143.76" x2="67.02" y2="195.76" /><line x1="185.05" y1="113.25" x2="139.96" y2="144.76" />
<line x1="139.96" y1="144.76" x2="156.01" y2="197.38" /><line x1="156.01" y1="197.38" x2="201.09" y2="165.86" />
<line x1="201.09" y1="165.86" x2="185.05" y2="113.25" /><line x1="156.01" y1="197.38" x2="201.09" y2="165.86" />
<line x1="201.09" y1="165.86" x2="185.05" y2="113.25" /><line x1="185.05" y1="113.25" x2="228.96" y2="146.38" />
<line x1="228.96" y1="146.38" x2="245" y2="199" /><line x1="245" y1="199" x2="201.09" y2="165.86" />
<line x1="228.96" y1="146.38" x2="283.96" y2="147.38" /><line x1="283.96" y1="147.38" x2="240.05" y2="114.25" />
<line x1="240.05" y1="114.25" x2="185.05" y2="113.25" /><line x1="185.05" y1="113.25" x2="228.96" y2="146.38" />
<line x1="240.05" y1="114.25" x2="257.99" y2="62.25" /><line x1="257.99" y1="62.25" x2="240.05" y2="114.25" />
<line x1="240.05" y1="114.25" x2="185.05" y2="113.25" /><line x1="185.05" y1="113.25" x2="202.99" y2="61.25" />
<line x1="202.99" y1="61.25" x2="257.99" y2="62.25" /><line x1="228.96" y1="146.38" x2="283.96" y2="147.38" />
<line x1="283.96" y1="147.38" x2="300" y2="200" /><line x1="300" y1="200" x2="245" y2="199" />
<line x1="245" y1="199" x2="228.96" y2="146.38" /><line x1="300" y1="200" x2="245" y2="199" />
<line x1="245" y1="199" x2="227.05" y2="251" /><line x1="227.05" y1="251" x2="282.05" y2="252" />
<line x1="282.05" y1="252" x2="300" y2="200" /><line x1="227.05" y1="251" x2="181.97" y2="282.52" />
<line x1="181.97" y1="282.52" x2="236.97" y2="283.52" /><line x1="236.97" y1="283.52" x2="282.05" y2="252" />
<line x1="282.05" y1="252" x2="227.05" y2="251" /><line x1="236.97" y1="283.52" x2="253.01" y2="336.14" />
<line x1="253.01" y1="336.14" x2="198.01" y2="335.14" /><line x1="198.01" y1="335.14" x2="181.97" y2="282.52" />
<line x1="181.97" y1="282.52" x2="236.97" y2="283.52" /><line x1="236.97" y1="283.52" x2="253.01" y2="336.14" />
<line x1="181.97" y1="282.52" x2="199.92" y2="230.52" /><line x1="199.92" y1="230.52" x2="156.01" y2="197.38" />
<line x1="156.01" y1="197.38" x2="138.06" y2="249.38" /><line x1="138.06" y1="249.38" x2="181.97" y2="282.52" />
<line x1="156.01" y1="197.38" x2="199.92" y2="230.52" /><line x1="199.92" y1="230.52" x2="245" y2="199" />
<line x1="245" y1="199" x2="227.05" y2="251" /><line x1="227.05" y1="251" x2="181.97" y2="282.52" />
<line x1="181.97" y1="282.52" x2="199.92" y2="230.52" /><line x1="181.97" y1="282.52" x2="138.06" y2="249.38" />
<line x1="138.06" y1="249.38" x2="92.98" y2="280.9" /><line x1="92.98" y1="280.9" x2="136.89" y2="314.04" />
<line x1="136.89" y1="314.04" x2="181.97" y2="282.52" /><line x1="92.98" y1="280.9" x2="138.06" y2="249.38" />
<line x1="138.06" y1="249.38" x2="83.06" y2="248.38" /><line x1="83.06" y1="248.38" x2="37.98" y2="279.9" />
<line x1="37.98" y1="279.9" x2="92.98" y2="280.9" /><line x1="83.06" y1="248.38" x2="67.02" y2="195.76" />
<line x1="67.02" y1="195.76" x2="122.02" y2="196.76" /><line x1="122.02" y1="196.76" x2="139.96" y2="144.76" />
<line x1="139.96" y1="144.76" x2="156.01" y2="197.38" /><line x1="156.01" y1="197.38" x2="138.06" y2="249.38" />
<line x1="138.06" y1="249.38" x2="122.02" y2="196.76" /><line x1="156.01" y1="197.38" x2="199.92" y2="230.52" />
<line x1="199.92" y1="230.52" x2="181.97" y2="282.52" /><line x1="181.97" y1="282.52" x2="138.06" y2="249.38" />
<line x1="138.06" y1="249.38" x2="156.01" y2="197.38" /><line x1="300" y1="200" x2="282.05" y2="252" />
<line x1="282.05" y1="252" x2="325.96" y2="285.14" /><line x1="325.96" y1="285.14" x2="343.91" y2="233.14" />
<line x1="343.91" y1="233.14" x2="300" y2="200" /><line x1="325.96" y1="285.14" x2="342.01" y2="337.75" />
<line x1="342.01" y1="337.75" x2="359.95" y2="285.75" /><line x1="359.95" y1="285.75" x2="343.91" y2="233.14" />
<line x1="343.91" y1="233.14" x2="325.96" y2="285.14" /><line x1="359.95" y1="285.75" x2="414.95" y2="286.75" />
<line x1="414.95" y1="286.75" x2="397.01" y2="338.75" /><line x1="397.01" y1="338.75" x2="342.01" y2="337.75" />
<line x1="342.01" y1="337.75" x2="359.95" y2="285.75" /><line x1="359.95" y1="285.75" x2="414.95" y2="286.75" />
<line x1="342.01" y1="337.75" x2="298.1" y2="304.62" /><line x1="298.1" y1="304.62" x2="253.01" y2="336.14" />
<line x1="253.01" y1="336.14" x2="296.92" y2="369.27" /><line x1="296.92" y1="369.27" x2="342.01" y2="337.75" />
<line x1="253.01" y1="336.14" x2="298.1" y2="304.62" /><line x1="298.1" y1="304.62" x2="282.05" y2="252" />
<line x1="282.05" y1="252" x2="325.96" y2="285.14" /><line x1="325.96" y1="285.14" x2="342.01" y2="337.75" />
<line x1="342.01" y1="337.75" x2="298.1" y2="304.62" /><line x1="342.01" y1="337.75" x2="397.01" y2="338.75" />
<line x1="397.01" y1="338.75" x2="414.95" y2="286.75" /><line x1="414.95" y1="286.75" x2="359.95" y2="285.75" />
<line x1="359.95" y1="285.75" x2="342.01" y2="337.75" /><line x1="414.95" y1="286.75" x2="397.01" y2="338.75" />
<line x1="397.01" y1="338.75" x2="442.09" y2="307.23" /><line x1="442.09" y1="307.23" x2="460.04" y2="255.24" />
<line x1="460.04" y1="255.24" x2="414.95" y2="286.75" /><line x1="442.09" y1="307.23" x2="486" y2="340.37" />
<line x1="486" y1="340.37" x2="440.91" y2="371.89" /><line x1="440.91" y1="371.89" x2="456.96" y2="424.51" />
<line x1="456.96" y1="424.51" x2="413.05" y2="391.37" /><line x1="413.05" y1="391.37" x2="397.01" y2="338.75" />
<line x1="397.01" y1="338.75" x2="440.91" y2="371.89" /><line x1="413.05" y1="391.37" x2="358.05" y2="390.37" />
<line x1="358.05" y1="390.37" x2="342.01" y2="337.75" /><line x1="342.01" y1="337.75" x2="397.01" y2="338.75" />
<line x1="397.01" y1="338.75" x2="413.05" y2="391.37" /><line x1="486" y1="340.37" x2="503.94" y2="288.37" />
<line x1="503.94" y1="288.37" x2="460.04" y2="255.24" /><line x1="460.04" y1="255.24" x2="515.04" y2="256.24" />
<line x1="515.04" y1="256.24" x2="558.94" y2="289.37" /><line x1="558.94" y1="289.37" x2="503.94" y2="288.37" />
<line x1="515.04" y1="256.24" x2="460.04" y2="255.24" /><line x1="460.04" y1="255.24" x2="443.99" y2="202.62" />
<line x1="443.99" y1="202.62" x2="498.99" y2="203.62" /><line x1="498.99" y1="203.62" x2="515.04" y2="256.24" />
<line x1="443.99" y1="202.62" x2="398.91" y2="234.14" /><line x1="398.91" y1="234.14" x2="414.95" y2="286.75" />
<line x1="414.95" y1="286.75" x2="460.04" y2="255.24" /><line x1="460.04" y1="255.24" x2="443.99" y2="202.62" />
<line x1="414.95" y1="286.75" x2="397.01" y2="338.75" /><line x1="397.01" y1="338.75" x2="442.09" y2="307.23" />
<line x1="442.09" y1="307.23" x2="460.04" y2="255.24" /><line x1="460.04" y1="255.24" x2="414.95" y2="286.75" />
<line x1="442.09" y1="307.23" x2="486" y2="340.37" /><line x1="443.99" y1="202.62" x2="461.94" y2="150.62" />
<line x1="461.94" y1="150.62" x2="418.03" y2="117.48" /><line x1="418.03" y1="117.48" x2="400.08" y2="169.48" />
<line x1="400.08" y1="169.48" x2="443.99" y2="202.62" /><line x1="418.03" y1="117.48" x2="400.08" y2="169.48" />
<line x1="400.08" y1="169.48" x2="443.99" y2="202.62" /><line x1="443.99" y1="202.62" x2="388.99" y2="201.62" />
<line x1="388.99" y1="201.62" x2="345.08" y2="168.48" /><line x1="345.08" y1="168.48" x2="400.08" y2="169.48" />
<line x1="388.99" y1="201.62" x2="343.91" y2="233.14" /><line x1="343.91" y1="233.14" x2="398.91" y2="234.14" />
<line x1="398.91" y1="234.14" x2="443.99" y2="202.62" /><line x1="443.99" y1="202.62" x2="388.99" y2="201.62" />
<line x1="398.91" y1="234.14" x2="414.95" y2="286.75" /><line x1="414.95" y1="286.75" x2="398.91" y2="234.14" />
<line x1="398.91" y1="234.14" x2="443.99" y2="202.62" /><line x1="443.99" y1="202.62" x2="460.04" y2="255.24" />
<line x1="460.04" y1="255.24" x2="414.95" y2="286.75" /><line x1="388.99" y1="201.62" x2="343.91" y2="233.14" />
<line x1="343.91" y1="233.14" x2="300" y2="200" /><line x1="300" y1="200" x2="345.08" y2="168.48" />
<line x1="345.08" y1="168.48" x2="388.99" y2="201.62" /><line x1="486" y1="340.37" x2="442.09" y2="307.23" />
<line x1="442.09" y1="307.23" x2="397.01" y2="338.75" /><line x1="397.01" y1="338.75" x2="414.95" y2="286.75" />
<line x1="414.95" y1="286.75" x2="460.04" y2="255.24" /><line x1="460.04" y1="255.24" x2="442.09" y2="307.23" />
<line x1="414.95" y1="286.75" x2="397.01" y2="338.75" /><line x1="397.01" y1="338.75" x2="342.01" y2="337.75" />
<line x1="342.01" y1="337.75" x2="359.95" y2="285.75" /><line x1="359.95" y1="285.75" x2="414.95" y2="286.75" />
<line x1="342.01" y1="337.75" x2="358.05" y2="390.37" /><line x1="358.05" y1="390.37" x2="413.05" y2="391.37" />
<line x1="413.05" y1="391.37" x2="397.01" y2="338.75" /><line x1="397.01" y1="338.75" x2="342.01" y2="337.75" />
<line x1="413.05" y1="391.37" x2="456.96" y2="424.51" /><line x1="456.96" y1="424.51" x2="440.91" y2="371.89" />
<line x1="440.91" y1="371.89" x2="397.01" y2="338.75" /><line x1="397.01" y1="338.75" x2="413.05" y2="391.37" />
<line x1="440.91" y1="371.89" x2="486" y2="340.37" /><line x1="342.01" y1="337.75" x2="358.05" y2="390.37" />
<line x1="358.05" y1="390.37" x2="413.05" y2="391.37" /><line x1="413.05" y1="391.37" x2="397.01" y2="338.75" />
<line x1="397.01" y1="338.75" x2="342.01" y2="337.75" /><line x1="413.05" y1="391.37" x2="456.96" y2="424.51" />
<line x1="456.96" y1="424.51" x2="440.91" y2="371.89" /><line x1="440.91" y1="371.89" x2="397.01" y2="338.75" />
<line x1="397.01" y1="338.75" x2="413.05" y2="391.37" /><line x1="440.91" y1="371.89" x2="486" y2="340.37" />
<line x1="486" y1="340.37" x2="502.04" y2="392.99" /><line x1="502.04" y1="392.99" x2="456.96" y2="424.51" />
<line x1="456.96" y1="424.51" x2="440.91" y2="371.89" /><line x1="440.91" y1="371.89" x2="486" y2="340.37" />
<line x1="456.96" y1="424.51" x2="401.96" y2="423.51" /><line x1="401.96" y1="423.51" x2="384.01" y2="475.51" />
<line x1="384.01" y1="475.51" x2="439.01" y2="476.51" /><line x1="439.01" y1="476.51" x2="456.96" y2="424.51" />
<line x1="384.01" y1="475.51" x2="401.96" y2="423.51" /><line x1="401.96" y1="423.51" x2="358.05" y2="390.37" />
<line x1="358.05" y1="390.37" x2="413.05" y2="391.37" /><line x1="413.05" y1="391.37" x2="456.96" y2="424.51" />
<line x1="456.96" y1="424.51" x2="401.96" y2="423.51" /><line x1="456.96" y1="424.51" x2="439.01" y2="476.51" />
<line x1="439.01" y1="476.51" x2="482.92" y2="509.64" /><line x1="482.92" y1="509.64" x2="500.87" y2="457.64" />
<line x1="500.87" y1="457.64" x2="456.96" y2="424.51" /><line x1="482.92" y1="509.64" x2="500.87" y2="457.64" />
<line x1="500.87" y1="457.64" x2="456.96" y2="424.51" /><line x1="456.96" y1="424.51" x2="511.96" y2="425.51" />
<line x1="511.96" y1="425.51" x2="555.87" y2="458.64" /><line x1="555.87" y1="458.64" x2="500.87" y2="457.64" />
<line x1="511.96" y1="425.51" x2="557.04" y2="393.99" /><line x1="557.04" y1="393.99" x2="502.04" y2="392.99" />
<line x1="502.04" y1="392.99" x2="456.96" y2="424.51" /><line x1="456.96" y1="424.51" x2="511.96" y2="425.51" />
<line x1="502.04" y1="392.99" x2="486" y2="340.37" /><line x1="486" y1="340.37" x2="502.04" y2="392.99" />
<line x1="502.04" y1="392.99" x2="456.96" y2="424.51" /><line x1="456.96" y1="424.51" x2="440.91" y2="371.89" />
<line x1="440.91" y1="371.89" x2="486" y2="340.37" /><line x1="511.96" y1="425.51" x2="557.04" y2="393.99" />
<line x1="557.04" y1="393.99" x2="600.95" y2="427.13" /><line x1="600.95" y1="427.13" x2="555.87" y2="458.64" />
<line x1="555.87" y1="458.64" x2="511.96" y2="425.51" /><line x1="600.95" y1="427.13" x2="557.04" y2="393.99" />
<line x1="557.04" y1="393.99" x2="511.96" y2="425.51" /><line x1="511.96" y1="425.51" x2="555.87" y2="458.64" />
<line x1="555.87" y1="458.64" x2="600.95" y2="427.13" /><line x1="511.96" y1="425.51" x2="557.04" y2="393.99" />
<line x1="557.04" y1="393.99" x2="502.04" y2="392.99" /><line x1="502.04" y1="392.99" x2="456.96" y2="424.51" />
<line x1="456.96" y1="424.51" x2="511.96" y2="425.51" /><line x1="502.04" y1="392.99" x2="486" y2="340.37" />
<line x1="486" y1="340.37" x2="541" y2="341.37" /><line x1="541" y1="341.37" x2="558.94" y2="289.37" />
<line x1="558.94" y1="289.37" x2="574.99" y2="341.99" /><line x1="574.99" y1="341.99" x2="557.04" y2="393.99" />
<line x1="557.04" y1="393.99" x2="541" y2="341.37" /><line x1="574.99" y1="341.99" x2="618.9" y2="375.13" />
<line x1="618.9" y1="375.13" x2="600.95" y2="427.13" /><line x1="600.95" y1="427.13" x2="557.04" y2="393.99" />
<line x1="557.04" y1="393.99" x2="574.99" y2="341.99" /><line x1="456.96" y1="424.51" x2="439.01" y2="476.51" />
<line x1="439.01" y1="476.51" x2="482.92" y2="509.64" /><line x1="482.92" y1="509.64" x2="500.87" y2="457.64" />
<line x1="500.87" y1="457.64" x2="456.96" y2="424.51" /><line x1="482.92" y1="509.64" x2="439.01" y2="476.51" />
<line x1="439.01" y1="476.51" x2="455.06" y2="529.12" /><line x1="455.06" y1="529.12" x2="498.97" y2="562.26" />
<line x1="498.97" y1="562.26" x2="482.92" y2="509.64" /><line x1="455.06" y1="529.12" x2="409.97" y2="560.64" />
<line x1="409.97" y1="560.64" x2="393.93" y2="508.03" /><line x1="393.93" y1="508.03" x2="338.93" y2="507.03" />
<line x1="338.93" y1="507.03" x2="384.01" y2="475.51" /><line x1="384.01" y1="475.51" x2="439.01" y2="476.51" />
<line x1="439.01" y1="476.51" x2="393.93" y2="508.03" /><line x1="384.01" y1="475.51" x2="401.96" y2="423.51" />
<line x1="401.96" y1="423.51" x2="456.96" y2="424.51" /><line x1="456.96" y1="424.51" x2="439.01" y2="476.51" />
<line x1="439.01" y1="476.51" x2="384.01" y2="475.51" /><line x1="409.97" y1="560.64" x2="393.93" y2="508.03" />
<line x1="393.93" y1="508.03" x2="338.93" y2="507.03" /><line x1="338.93" y1="507.03" x2="384.01" y2="475.51" />
<line x1="384.01" y1="475.51" x2="439.01" y2="476.51" /><line x1="439.01" y1="476.51" x2="393.93" y2="508.03" />
<line x1="384.01" y1="475.51" x2="338.93" y2="507.03" /><line x1="338.93" y1="507.03" x2="295.02" y2="473.89" />
<line x1="295.02" y1="473.89" x2="340.1" y2="442.37" /><line x1="340.1" y1="442.37" x2="384.01" y2="475.51" />
<line x1="295.02" y1="473.89" x2="277.07" y2="525.89" /><line x1="277.07" y1="525.89" x2="320.98" y2="559.03" />
<line x1="320.98" y1="559.03" x2="338.93" y2="507.03" /><line x1="338.93" y1="507.03" x2="295.02" y2="473.89" />
<line x1="320.98" y1="559.03" x2="337.03" y2="611.64" /><line x1="337.03" y1="611.64" x2="354.97" y2="559.64" />
<line x1="354.97" y1="559.64" x2="338.93" y2="507.03" /><line x1="338.93" y1="507.03" x2="320.98" y2="559.03" />
<line x1="354.97" y1="559.64" x2="409.97" y2="560.64" /><line x1="295.02" y1="473.89" x2="278.98" y2="421.27" />
<line x1="278.98" y1="421.27" x2="223.98" y2="420.27" /><line x1="223.98" y1="420.27" x2="240.02" y2="472.89" />
<line x1="240.02" y1="472.89" x2="295.02" y2="473.89" /><line x1="223.98" y1="420.27" x2="240.02" y2="472.89" />
<line x1="240.02" y1="472.89" x2="295.02" y2="473.89" /><line x1="295.02" y1="473.89" x2="249.94" y2="505.41" />
<line x1="249.94" y1="505.41" x2="194.94" y2="504.41" /><line x1="194.94" y1="504.41" x2="240.02" y2="472.89" />
<line x1="249.94" y1="505.41" x2="231.99" y2="557.41" /><line x1="231.99" y1="557.41" x2="277.07" y2="525.89" />
<line x1="277.07" y1="525.89" x2="295.02" y2="473.89" /><line x1="295.02" y1="473.89" x2="249.94" y2="505.41" />
<line x1="277.07" y1="525.89" x2="320.98" y2="559.03" /><line x1="320.98" y1="559.03" x2="277.07" y2="525.89" />
<line x1="277.07" y1="525.89" x2="295.02" y2="473.89" /><line x1="295.02" y1="473.89" x2="338.93" y2="507.03" />
<line x1="338.93" y1="507.03" x2="320.98" y2="559.03" /><line x1="249.94" y1="505.41" x2="231.99" y2="557.41" />
<line x1="231.99" y1="557.41" x2="176.99" y2="556.41" /><line x1="176.99" y1="556.41" x2="194.94" y2="504.41" />
<line x1="194.94" y1="504.41" x2="249.94" y2="505.41" /><line x1="176.99" y1="556.41" x2="194.94" y2="504.41" />
<line x1="194.94" y1="504.41" x2="151.03" y2="471.27" /><line x1="151.03" y1="471.27" x2="133.08" y2="523.27" />
<line x1="133.08" y1="523.27" x2="176.99" y2="556.41" /><line x1="151.03" y1="471.27" x2="194.94" y2="504.41" />
<line x1="194.94" y1="504.41" x2="178.89" y2="451.79" /><line x1="178.89" y1="451.79" x2="134.98" y2="418.65" />
<line x1="134.98" y1="418.65" x2="151.03" y2="471.27" /><line x1="178.89" y1="451.79" x2="223.98" y2="420.27" />
<line x1="223.98" y1="420.27" x2="240.02" y2="472.89" /><line x1="240.02" y1="472.89" x2="295.02" y2="473.89" />
<line x1="295.02" y1="473.89" x2="249.94" y2="505.41" /><line x1="249.94" y1="505.41" x2="194.94" y2="504.41" />
<line x1="194.94" y1="504.41" x2="240.02" y2="472.89" /><line x1="249.94" y1="505.41" x2="231.99" y2="557.41" />
<line x1="231.99" y1="557.41" x2="176.99" y2="556.41" /><line x1="176.99" y1="556.41" x2="194.94" y2="504.41" />
<line x1="194.94" y1="504.41" x2="249.94" y2="505.41" /><line x1="223.98" y1="420.27" x2="278.98" y2="421.27" />
<line x1="278.98" y1="421.27" x2="296.92" y2="369.27" /><line x1="296.92" y1="369.27" x2="312.97" y2="421.89" />
<line x1="312.97" y1="421.89" x2="295.02" y2="473.89" /><line x1="295.02" y1="473.89" x2="278.98" y2="421.27" />
<line x1="312.97" y1="421.89" x2="296.92" y2="369.27" /><line x1="296.92" y1="369.27" x2="342.01" y2="337.75" />
<line x1="342.01" y1="337.75" x2="358.05" y2="390.37" /><line x1="358.05" y1="390.37" x2="312.97" y2="421.89" />
<line x1="342.01" y1="337.75" x2="298.1" y2="304.62" /><line x1="298.1" y1="304.62" x2="253.01" y2="336.14" />
<line x1="253.01" y1="336.14" x2="296.92" y2="369.27" /><line x1="296.92" y1="369.27" x2="342.01" y2="337.75" />
<line x1="253.01" y1="336.14" x2="198.01" y2="335.14" /><line x1="198.01" y1="335.14" x2="241.92" y2="368.27" />
<line x1="241.92" y1="368.27" x2="296.92" y2="369.27" /><line x1="296.92" y1="369.27" x2="253.01" y2="336.14" />
<line x1="241.92" y1="368.27" x2="223.98" y2="420.27" /><line x1="342.01" y1="337.75" x2="296.92" y2="369.27" />
<line x1="296.92" y1="369.27" x2="312.97" y2="421.89" /><line x1="312.97" y1="421.89" x2="358.05" y2="390.37" />
<line x1="358.05" y1="390.37" x2="342.01" y2="337.75" /><line x1="312.97" y1="421.89" x2="295.02" y2="473.89" />
<line x1="295.02" y1="473.89" x2="340.1" y2="442.37" /><line x1="340.1" y1="442.37" x2="358.05" y2="390.37" />
<line x1="358.05" y1="390.37" x2="312.97" y2="421.89" /><line x1="340.1" y1="442.37" x2="384.01" y2="475.51" />
<line x1="384.01" y1="475.51" x2="338.93" y2="507.03" /><line x1="338.93" y1="507.03" x2="295.02" y2="473.89" />
<line x1="295.02" y1="473.89" x2="340.1" y2="442.37" /><line x1="340.1" y1="442.37" x2="384.01" y2="475.51" />
<line x1="295.02" y1="473.89" x2="278.98" y2="421.27" /><line x1="278.98" y1="421.27" x2="223.98" y2="420.27" />
<line x1="223.98" y1="420.27" x2="240.02" y2="472.89" /><line x1="240.02" y1="472.89" x2="295.02" y2="473.89" />
<line x1="223.98" y1="420.27" x2="278.98" y2="421.27" /><line x1="278.98" y1="421.27" x2="296.92" y2="369.27" />
<line x1="296.92" y1="369.27" x2="312.97" y2="421.89" /><line x1="312.97" y1="421.89" x2="295.02" y2="473.89" />
<line x1="295.02" y1="473.89" x2="278.98" y2="421.27" /><line x1="223.98" y1="420.27" x2="241.92" y2="368.27" />
<line x1="241.92" y1="368.27" x2="198.01" y2="335.14" /><line x1="198.01" y1="335.14" x2="253.01" y2="336.14" />
<line x1="253.01" y1="336.14" x2="296.92" y2="369.27" /><line x1="296.92" y1="369.27" x2="241.92" y2="368.27" />
<line x1="253.01" y1="336.14" x2="198.01" y2="335.14" /><line x1="198.01" y1="335.14" x2="181.97" y2="282.52" />
<line x1="181.97" y1="282.52" x2="236.97" y2="283.52" /><line x1="236.97" y1="283.52" x2="253.01" y2="336.14" />
<line x1="181.97" y1="282.52" x2="136.89" y2="314.04" /><line x1="136.89" y1="314.04" x2="152.93" y2="366.65" />
<line x1="152.93" y1="366.65" x2="198.01" y2="335.14" /><line x1="198.01" y1="335.14" x2="181.97" y2="282.52" />
<line x1="152.93" y1="366.65" x2="134.98" y2="418.65" /><line x1="134.98" y1="418.65" x2="180.07" y2="387.13" />
<line x1="180.07" y1="387.13" x2="198.01" y2="335.14" /><line x1="198.01" y1="335.14" x2="152.93" y2="366.65" />
<line x1="180.07" y1="387.13" x2="223.98" y2="420.27" /><line x1="181.97" y1="282.52" x2="198.01" y2="335.14" />
<line x1="198.01" y1="335.14" x2="253.01" y2="336.14" /><line x1="253.01" y1="336.14" x2="236.97" y2="283.52" />
<line x1="236.97" y1="283.52" x2="181.97" y2="282.52" /><line x1="253.01" y1="336.14" x2="236.97" y2="283.52" />
<line x1="236.97" y1="283.52" x2="181.97" y2="282.52" /><line x1="181.97" y1="282.52" x2="227.05" y2="251" />
<line x1="227.05" y1="251" x2="282.05" y2="252" /><line x1="282.05" y1="252" x2="236.97" y2="283.52" />
<line x1="227.05" y1="251" x2="245" y2="199" /><line x1="245" y1="199" x2="199.92" y2="230.52" />
<line x1="199.92" y1="230.52" x2="181.97" y2="282.52" /><line x1="181.97" y1="282.52" x2="227.05" y2="251" />
<line x1="199.92" y1="230.52" x2="156.01" y2="197.38" /><line x1="156.01" y1="197.38" x2="199.92" y2="230.52" />
<line x1="199.92" y1="230.52" x2="181.97" y2="282.52" /><line x1="181.97" y1="282.52" x2="138.06" y2="249.38" />
<line x1="138.06" y1="249.38" x2="156.01" y2="197.38" /><line x1="227.05" y1="251" x2="245" y2="199" />
<line x1="245" y1="199" x2="300" y2="200" /><line x1="300" y1="200" x2="282.05" y2="252" />
<line x1="282.05" y1="252" x2="227.05" y2="251" /><line x1="300" y1="200" x2="282.05" y2="252" />
<line x1="282.05" y1="252" x2="325.96" y2="285.14" /><line x1="325.96" y1="285.14" x2="343.91" y2="233.14" />
<line x1="343.91" y1="233.14" x2="300" y2="200" /><line x1="325.96" y1="285.14" x2="342.01" y2="337.75" />
<line x1="342.01" y1="337.75" x2="359.95" y2="285.75" /><line x1="359.95" y1="285.75" x2="343.91" y2="233.14" />
<line x1="343.91" y1="233.14" x2="325.96" y2="285.14" /><line x1="359.95" y1="285.75" x2="414.95" y2="286.75" />
<line x1="414.95" y1="286.75" x2="397.01" y2="338.75" /><line x1="397.01" y1="338.75" x2="342.01" y2="337.75" />
<line x1="342.01" y1="337.75" x2="359.95" y2="285.75" /><line x1="359.95" y1="285.75" x2="414.95" y2="286.75" />
<line x1="342.01" y1="337.75" x2="298.1" y2="304.62" /><line x1="298.1" y1="304.62" x2="253.01" y2="336.14" />
<line x1="253.01" y1="336.14" x2="296.92" y2="369.27" /><line x1="296.92" y1="369.27" x2="342.01" y2="337.75" />
<line x1="253.01" y1="336.14" x2="298.1" y2="304.62" /><line x1="298.1" y1="304.62" x2="282.05" y2="252" />
<line x1="282.05" y1="252" x2="325.96" y2="285.14" /><line x1="325.96" y1="285.14" x2="342.01" y2="337.75" />
<line x1="342.01" y1="337.75" x2="298.1" y2="304.62" /><line x1="342.01" y1="337.75" x2="296.92" y2="369.27" />
<line x1="296.92" y1="369.27" x2="312.97" y2="421.89" /><line x1="312.97" y1="421.89" x2="358.05" y2="390.37" />
<line x1="358.05" y1="390.37" x2="342.01" y2="337.75" /><line x1="312.97" y1="421.89" x2="296.92" y2="369.27" />
<line x1="296.92" y1="369.27" x2="278.98" y2="421.27" /><line x1="278.98" y1="421.27" x2="295.02" y2="473.89" />
<line x1="295.02" y1="473.89" x2="312.97" y2="421.89" /><line x1="278.98" y1="421.27" x2="223.98" y2="420.27" />
<line x1="223.98" y1="420.27" x2="241.92" y2="368.27" /><line x1="241.92" y1="368.27" x2="198.01" y2="335.14" />
<line x1="198.01" y1="335.14" x2="253.01" y2="336.14" /><line x1="253.01" y1="336.14" x2="296.92" y2="369.27" />
<line x1="296.92" y1="369.27" x2="241.92" y2="368.27" /><line x1="253.01" y1="336.14" x2="298.1" y2="304.62" />
<line x1="298.1" y1="304.62" x2="342.01" y2="337.75" /><line x1="342.01" y1="337.75" x2="296.92" y2="369.27" />
<line x1="296.92" y1="369.27" x2="253.01" y2="336.14" /></svg>

