<svg xmlns="http://www.w3.org/2000/svg" xmlns:svg="http://www.w3.org/2000/svg" xmlns:xlink="http://www.w3.org/1999/xlink" width="640" height="640"><rect width="100%" height="100%" fill="black" /><polyline points="312,-100,320,-100,320,-92,326,-86,334,-86,334,-78,326,-78,320,-73,320,-65,326,-59,334,-59,339,-65,339,-73,347,-73,347,-65,353,-59,361,-59,361,-51,353,-51,347,-45,347,-37,339,-37,339,-45,334,-51,326,-51,320,-45,320,-37,326,-32,334,-32,334,-24,326,-24,320,-18,320,-10,326,-4,334,-4,339,-10,339,-18,347,-18,347,-10,353,-4,361,-4,367,-10,367,-18,361,-24,353,-24,353,-32,361,-32,367,-37,367,-45,375,-45,375,-37,380,-32,388,-32,388,-24,380,-24,375,-18,375,-10,380,-4,388,-4,394,-10,394,-18,402,-18,402,-10,408,-4,416,-4,416,4,408,4,402,9,402,17,394,17,394,9,388,4,380,4,375,9,375,17,380,23,388,23,388,31,380,31,375,37,375,45,367,45,367,37,361,31,353,31,353,23,361,23,367,17,367,9,361,4,353,4,347,9,347,17,339,17,339,9,334,4,326,4,320,9,320,17,326,23,334,23,334,31,326,31,320,37,320,45,326,50,334,50,339,45,339,37,347,37,347,45,353,50,361,50,361,58,353,58,347,64,347,72,339,72,339,64,334,58,326,58,320,64,320,72,326,78,334,78,334,86,326,86,320,91,320,99,326,105,334,105,339,99,339,91,347,91,347,99,353,105,361,105,367,99,367,91,361,86,353,86,353,78,361,78,367,72,367,64,375,64,375,72,380,78,388,78,388,86,380,86,375,91,375,99,380,105,388,105,394,99,394,91,402,91,402,99,408,105,416,105,421,99,421,91,416,86,408,86,408,78,416,78,421,72,421,64,416,58,408,58,402,64,402,72,394,72,394,64,388,58,380,58,380,50,388,50,394,45,394,37,402,37,402,45,408,50,416,50,421,45,421,37,416,31,408,31,408,23,416,23,421,17,421,9,429,9,429,17,435,23,443,23,443,31,435,31,429,37,429,45,435,50,443,50,449,45,449,37,457,37,457,45,462,50,470,50,470,58,462,58,457,64,457,72,449,72,449,64,443,58,435,58,429,64,429,72,435,78,443,78,443,86,435,86,429,91,429,99,435,105,443,105,449,99,449,91,457,91,457,99,462,105,470,105,476,99,476,91,470,86,462,86,462,78,470,78,476,72,476,64,484,64,484,72,490,78,498,78,498,86,490,86,484,91,484,99,490,105,498,105,503,99,503,91,511,91,511,99,517,105,525,105,525,113,517,113,511,119,511,127,503,127,503,119,498,113,490,113,484,119,484,127,490,132,498,132,498,140,490,140,484,146,484,154,476,154,476,146,470,140,462,140,462,132,470,132,476,127,476,119,470,113,462,113,457,119,457,127,449,127,449,119,443,113,435,113,429,119,429,127,435,132,443,132,443,140,435,140,429,146,429,154,435,159,443,159,449,154,449,146,457,146,457,154,462,159,470,159,470,167,462,167,457,173,457,181,449,181,449,173,443,167,435,167,429,173,429,181,435,187,443,187,443,195,435,195,429,200,429,208,421,208,421,200,416,195,408,195,408,187,416,187,421,181,421,173,416,167,408,167,402,173,402,181,394,181,394,173,388,167,380,167,380,159,388,159,394,154,394,146,402,146,402,154,408,159,416,159,421,154,421,146,416,140,408,140,408,132,416,132,421,127,421,119,416,113,408,113,402,119,402,127,394,127,394,119,388,113,380,113,375,119,375,127,380,132,388,132,388,140,380,140,375,146,375,154,367,154,367,146,361,140,353,140,353,132,361,132,367,127,367,119,361,113,353,113,347,119,347,127,339,127,339,119,334,113,326,113,320,119,320,127,326,132,334,132,334,140,326,140,320,146,320,154,326,159,334,159,339,154,339,146,347,146,347,154,353,159,361,159,361,167,353,167,347,173,347,181,339,181,339,173,334,167,326,167,320,173,320,181,326,187,334,187,334,195,326,195,320,200,320,208,326,214,334,214,339,208,339,200,347,200,347,208,353,214,361,214,367,208,367,200,361,195,353,195,353,187,361,187,367,181,367,173,375,173,375,181,380,187,388,187,388,195,380,195,375,200,375,208,380,214,388,214,394,208,394,200,402,200,402,208,408,214,416,214,416,222,408,222,402,228,402,236,394,236,394,228,388,222,380,222,375,228,375,236,380,241,388,241,388,249,380,249,375,255,375,263,367,263,367,255,361,249,353,249,353,241,361,241,367,236,367,228,361,222,353,222,347,228,347,236,339,236,339,228,334,222,326,222,320,228,320,236,326,241,334,241,334,249,326,249,320,255,320,263,326,269,334,269,339,263,339,255,347,255,347,263,353,269,361,269,361,277,353,277,347,282,347,290,339,290,339,282,334,277,326,277,320,282,320,290,326,296,334,296,334,304,326,304,320,310,320,318,326,323,334,323,339,318,339,310,347,310,347,318,353,323,361,323,367,318,367,310,361,304,353,304,353,296,361,296,367,290,367,282,375,282,375,290,380,296,388,296,388,304,380,304,375,310,375,318,380,323,388,323,394,318,394,310,402,310,402,318,408,323,416,323,421,318,421,310,416,304,408,304,408,296,416,296,421,290,421,282,416,277,408,277,402,282,402,290,394,290,394,282,388,277,380,277,380,269,388,269,394,263,394,255,402,255,402,263,408,269,416,269,421,263,421,255,416,249,408,249,408,241,416,241,421,236,421,228,429,228,429,236,435,241,443,241,443,249,435,249,429,255,429,263,435,269,443,269,449,263,449,255,457,255,457,263,462,269,470,269,470,277,462,277,457,282,457,290,449,290,449,282,443,277,435,277,429,282,429,290,435,296,443,296,443,304,435,304,429,310,429,318,435,323,443,323,449,318,449,310,457,310,457,318,462,323,470,323,476,318,476,310,470,304,462,304,462,296,470,296,476,290,476,282,484,282,484,290,490,296,498,296,498,304,490,304,484,310,484,318,490,323,498,323,503,318,503,310,511,310,511,318,517,323,525,323,531,318,531,310,525,304,517,304,517,296,525,296,531,290,531,282,525,277,517,277,511,282,511,290,503,290,503,282,498,277,490,277,490,269,498,269,503,263,503,255,511,255,511,263,517,269,525,269,531,263,531,255,525,249,517,249,517,241,525,241,531,236,531,228,525,222,517,222,511,228,511,236,503,236,503,228,498,222,490,222,484,228,484,236,490,241,498,241,498,249,490,249,484,255,484,263,476,263,476,255,470,249,462,249,462,241,470,241,476,236,476,228,470,222,462,222,457,228,457,236,449,236,449,228,443,222,435,222,435,214,443,214,449,208,449,200,457,200,457,208,462,214,470,214,476,208,476,200,470,195,462,195,462,187,470,187,476,181,476,173,484,173,484,181,490,187,498,187,498,195,490,195,484,200,484,208,490,214,498,214,503,208,503,200,511,200,511,208,517,214,525,214,531,208,531,200,525,195,517,195,517,187,525,187,531,181,531,173,525,167,517,167,511,173,511,181,503,181,503,173,498,167,490,167,490,159,498,159,503,154,503,146,511,146,511,154,517,159,525,159,531,154,531,146,525,140,517,140,517,132,525,132,531,127,531,119,539,119,539,127,544,132,552,132,552,140,544,140,539,146,539,154,544,159,552,159,558,154,558,146,566,146,566,154,571,159,579,159,579,167,571,167,566,173,566,181,558,181,558,173,552,167,544,167,539,173,539,181,544,187,552,187,552,195,544,195,539,200,539,208,544,214,552,214,558,208,558,200,566,200,566,208,571,214,579,214,585,208,585,200,579,195,571,195,571,187,579,187,585,181,585,173,593,173,593,181,599,187,607,187,607,195,599,195,593,200,593,208,599,214,607,214,612,208,612,200,620,200,620,208,626,214,634,214,634,222,626,222,620,228,620,236,612,236,612,228,607,222,599,222,593,228,593,236,599,241,607,241,607,249,599,249,593,255,593,263,585,263,585,255,579,249,571,249,571,241,579,241,585,236,585,228,579,222,571,222,566,228,566,236,558,236,558,228,552,222,544,222,539,228,539,236,544,241,552,241,552,249,544,249,539,255,539,263,544,269,552,269,558,263,558,255,566,255,566,263,571,269,579,269,579,277,571,277,566,282,566,290,558,290,558,282,552,277,544,277,539,282,539,290,544,296,552,296,552,304,544,304,539,310,539,318,544,323,552,323,558,318,558,310,566,310,566,318,571,323,579,323,585,318,585,310,579,304,571,304,571,296,579,296,585,290,585,282,593,282,593,290,599,296,607,296,607,304,599,304,593,310,593,318,599,323,607,323,612,318,612,310,620,310,620,318,626,323,634,323,640,318,640,310,634,304,626,304,626,296,634,296,640,290,640,282,634,277,626,277,620,282,620,290,612,290,612,282,607,277,599,277,599,269,607,269,612,263,612,255,620,255,620,263,626,269,634,269,640,263,640,255,634,249,626,249,626,241,634,241,640,236,640,228,648,228,648,236,653,241,661,241,661,249,653,249,648,255,648,263,653,269,661,269,667,263,667,255,675,255,675,263,681,269,689,269,689,277,681,277,675,282,675,290,667,290,667,282,661,277,653,277,648,282,648,290,653,296,661,296,661,304,653,304,648,310,648,318,653,323,661,323,667,318,667,310,675,310,675,318,681,323,689,323,694,318,694,310,689,304,681,304,681,296,689,296,694,290,694,282,702,282,702,290,708,296,716,296,716,304,708,304,702,310,702,318,708,323,716,323,722,318,722,310,730,310,730,318,735,323,743,323,743,331,735,331,730,337,730,345,722,345,722,337,716,331,708,331,702,337,702,345,708,351,716,351,716,359,708,359,702,364,702,372,694,372,694,364,689,359,681,359,681,351,689,351,694,345,694,337,689,331,681,331,675,337,675,345,667,345,667,337,661,331,653,331,648,337,648,345,653,351,661,351,661,359,653,359,648,364,648,372,653,378,661,378,667,372,667,364,675,364,675,372,681,378,689,378,689,386,681,386,675,392,675,400,667,400,667,392,661,386,653,386,648,392,648,400,653,405,661,405,661,413,653,413,648,419,648,427,640,427,640,419,634,413,626,413,626,405,634,405,640,400,640,392,634,386,626,386,620,392,620,400,612,400,612,392,607,386,599,386,599,378,607,378,612,372,612,364,620,364,620,372,626,378,634,378,640,372,640,364,634,359,626,359,626,351,634,351,640,345,640,337,634,331,626,331,620,337,620,345,612,345,612,337,607,331,599,331,593,337,593,345,599,351,607,351,607,359,599,359,593,364,593,372,585,372,585,364,579,359,571,359,571,351,579,351,585,345,585,337,579,331,571,331,566,337,566,345,558,345,558,337,552,331,544,331,539,337,539,345,544,351,552,351,552,359,544,359,539,364,539,372,544,378,552,378,558,372,558,364,566,364,566,372,571,378,579,378,579,386,571,386,566,392,566,400,558,400,558,392,552,386,544,386,539,392,539,400,544,405,552,405,552,413,544,413,539,419,539,427,544,433,552,433,558,427,558,419,566,419,566,427,571,433,579,433,585,427,585,419,579,413,571,413,571,405,579,405,585,400,585,392,593,392,593,400,599,405,607,405,607,413,599,413,593,419,593,427,599,433,607,433,612,427,612,419,620,419,620,427,626,433,634,433,634,441,626,441,620,446,620,454,612,454,612,446,607,441,599,441,593,446,593,454,599,460,607,460,607,468,599,468,593,474,593,482,585,482,585,474,579,468,571,468,571,460,579,460,585,454,585,446,579,441,571,441,566,446,566,454,558,454,558,446,552,441,544,441,539,446,539,454,544,460,552,460,552,468,544,468,539,474,539,482,544,487,552,487,558,482,558,474,566,474,566,482,571,487,579,487,579,495,571,495,566,501,566,509,558,509,558,501,552,495,544,495,539,501,539,509,544,515,552,515,552,523,544,523,539,528,539,536,531,536,531,528,525,523,517,523,517,515,525,515,531,509,531,501,525,495,517,495,511,501,511,509,503,509,503,501,498,495,490,495,490,487,498,487,503,482,503,474,511,474,511,482,517,487,525,487,531,482,531,474,525,468,517,468,517,460,525,460,531,454,531,446,525,441,517,441,511,446,511,454,503,454,503,446,498,441,490,441,484,446,484,454,490,460,498,460,498,468,490,468,484,474,484,482,476,482,476,474,470,468,462,468,462,460,470,460,476,454,476,446,470,441,462,441,457,446,457,454,449,454,449,446,443,441,435,441,435,433,443,433,449,427,449,419,457,419,457,427,462,433,470,433,476,427,476,419,470,413,462,413,462,405,470,405,476,400,476,392,484,392,484,400,490,405,498,405,498,413,490,413,484,419,484,427,490,433,498,433,503,427,503,419,511,419,511,427,517,433,525,433,531,427,531,419,525,413,517,413,517,405,525,405,531,400,531,392,525,386,517,386,511,392,511,400,503,400,503,392,498,386,490,386,490,378,498,378,503,372,503,364,511,364,511,372,517,378,525,378,531,372,531,364,525,359,517,359,517,351,525,351,531,345,531,337,525,331,517,331,511,337,511,345,503,345,503,337,498,331,490,331,484,337,484,345,490,351,498,351,498,359,490,359,484,364,484,372,476,372,476,364,470,359,462,359,462,351,470,351,476,345,476,337,470,331,462,331,457,337,457,345,449,345,449,337,443,331,435,331,429,337,429,345,435,351,443,351,443,359,435,359,429,364,429,372,435,378,443,378,449,372,449,364,457,364,457,372,462,378,470,378,470,386,462,386,457,392,457,400,449,400,449,392,443,386,435,386,429,392,429,400,435,405,443,405,443,413,435,413,429,419,429,427,421,427,421,419,416,413,408,413,408,405,416,405,421,400,421,392,416,386,408,386,402,392,402,400,394,400,394,392,388,386,380,386,380,378,388,378,394,372,394,364,402,364,402,372,408,378,416,378,421,372,421,364,416,359,408,359,408,351,416,351,421,345,421,337,416,331,408,331,402,337,402,345,394,345,394,337,388,331,380,331,375,337,375,345,380,351,388,351,388,359,380,359,375,364,375,372,367,372,367,364,361,359,353,359,353,351,361,351,367,345,367,337,361,331,353,331,347,337,347,345,339,345,339,337,334,331,326,331,320,337,320,345,326,351,334,351,334,359,326,359,320,364,320,372,326,378,334,378,339,372,339,364,347,364,347,372,353,378,361,378,361,386,353,386,347,392,347,400,339,400,339,392,334,386,326,386,320,392,320,400,326,405,334,405,334,413,326,413,320,419,320,427,326,433,334,433,339,427,339,419,347,419,347,427,353,433,361,433,367,427,367,419,361,413,353,413,353,405,361,405,367,400,367,392,375,392,375,400,380,405,388,405,388,413,380,413,375,419,375,427,380,433,388,433,394,427,394,419,402,419,402,427,408,433,416,433,416,441,408,441,402,446,402,454,394,454,394,446,388,441,380,441,375,446,375,454,380,460,388,460,388,468,380,468,375,474,375,482,367,482,367,474,361,468,353,468,353,460,361,460,367,454,367,446,361,441,353,441,347,446,347,454,339,454,339,446,334,441,326,441,320,446,320,454,326,460,334,460,334,468,326,468,320,474,320,482,326,487,334,487,339,482,339,474,347,474,347,482,353,487,361,487,361,495,353,495,347,501,347,509,339,509,339,501,334,495,326,495,320,501,320,509,326,515,334,515,334,523,326,523,320,528,320,536,326,542,334,542,339,536,339,528,347,528,347,536,353,542,361,542,367,536,367,528,361,523,353,523,353,515,361,515,367,509,367,501,375,501,375,509,380,515,388,515,388,523,380,523,375,528,375,536,380,542,388,542,394,536,394,528,402,528,402,536,408,542,416,542,421,536,421,528,416,523,408,523,408,515,416,515,421,509,421,501,416,495,408,495,402,501,402,509,394,509,394,501,388,495,380,495,380,487,388,487,394,482,394,474,402,474,402,482,408,487,416,487,421,482,421,474,416,468,408,468,408,460,416,460,421,454,421,446,429,446,429,454,435,460,443,460,443,468,435,468,429,474,429,482,435,487,443,487,449,482,449,474,457,474,457,482,462,487,470,487,470,495,462,495,457,501,457,509,449,509,449,501,443,495,435,495,429,501,429,509,435,515,443,515,443,523,435,523,429,528,429,536,435,542,443,542,449,536,449,528,457,528,457,536,462,542,470,542,476,536,476,528,470,523,462,523,462,515,470,515,476,509,476,501,484,501,484,509,490,515,498,515,498,523,490,523,484,528,484,536,490,542,498,542,503,536,503,528,511,528,511,536,517,542,525,542,525,550,517,550,511,556,511,564,503,564,503,556,498,550,490,550,484,556,484,564,490,569,498,569,498,577,490,577,484,583,484,591,476,591,476,583,470,577,462,577,462,569,470,569,476,564,476,556,470,550,462,550,457,556,457,564,449,564,449,556,443,550,435,550,429,556,429,564,435,569,443,569,443,577,435,577,429,583,429,591,435,596,443,596,449,591,449,583,457,583,457,591,462,596,470,596,470,604,462,604,457,610,457,618,449,618,449,610,443,604,435,604,429,610,429,618,435,624,443,624,443,632,435,632,429,637,429,645,421,645,421,637,416,632,408,632,408,624,416,624,421,618,421,610,416,604,408,604,402,610,402,618,394,618,394,610,388,604,380,604,380,596,388,596,394,591,394,583,402,583,402,591,408,596,416,596,421,591,421,583,416,577,408,577,408,569,416,569,421,564,421,556,416,550,408,550,402,556,402,564,394,564,394,556,388,550,380,550,375,556,375,564,380,569,388,569,388,577,380,577,375,583,375,591,367,591,367,583,361,577,353,577,353,569,361,569,367,564,367,556,361,550,353,550,347,556,347,564,339,564,339,556,334,550,326,550,320,556,320,564,326,569,334,569,334,577,326,577,320,583,320,591,326,596,334,596,339,591,339,583,347,583,347,591,353,596,361,596,361,604,353,604,347,610,347,618,339,618,339,610,334,604,326,604,320,610,320,618,326,624,334,624,334,632,326,632,320,637,320,645,326,651,334,651,339,645,339,637,347,637,347,645,353,651,361,651,367,645,367,637,361,632,353,632,353,624,361,624,367,618,367,610,375,610,375,618,380,624,388,624,388,632,380,632,375,637,375,645,380,651,388,651,394,645,394,637,402,637,402,645,408,651,416,651,416,659,408,659,402,665,402,673,394,673,394,665,388,659,380,659,375,665,375,673,380,678,388,678,388,686,380,686,375,692,375,700,367,700,367,692,361,686,353,686,353,678,361,678,367,673,367,665,361,659,353,659,347,665,347,673,339,673,339,665,334,659,326,659,320,665,320,673,326,678,334,678,334,686,326,686,320,692,320,700,326,706,334,706,339,700,339,692,347,692,347,700,353,706,361,706,361,714,353,714,347,719,347,727,339,727,339,719,334,714,326,714,320,719,320,727,326,733,334,733,334,741,326,741,320,747,320,755,312,755,312,747,306,741,298,741,298,733,306,733,312,727,312,719,306,714,298,714,293,719,293,727,285,727,285,719,279,714,271,714,271,706,279,706,285,700,285,692,293,692,293,700,298,706,306,706,312,700,312,692,306,686,298,686,298,678,306,678,312,673,312,665,306,659,298,659,293,665,293,673,285,673,285,665,279,659,271,659,265,665,265,673,271,678,279,678,279,686,271,686,265,692,265,700,257,700,257,692,252,686,244,686,244,678,252,678,257,673,257,665,252,659,244,659,238,665,238,673,230,673,230,665,224,659,216,659,216,651,224,651,230,645,230,637,238,637,238,645,244,651,252,651,257,645,257,637,252,632,244,632,244,624,252,624,257,618,257,610,265,610,265,618,271,624,279,624,279,632,271,632,265,637,265,645,271,651,279,651,285,645,285,637,293,637,293,645,298,651,306,651,312,645,312,637,306,632,298,632,298,624,306,624,312,618,312,610,306,604,298,604,293,610,293,618,285,618,285,610,279,604,271,604,271,596,279,596,285,591,285,583,293,583,293,591,298,596,306,596,312,591,312,583,306,577,298,577,298,569,306,569,312,564,312,556,306,550,298,550,293,556,293,564,285,564,285,556,279,550,271,550,265,556,265,564,271,569,279,569,279,577,271,577,265,583,265,591,257,591,257,583,252,577,244,577,244,569,252,569,257,564,257,556,252,550,244,550,238,556,238,564,230,564,230,556,224,550,216,550,211,556,211,564,216,569,224,569,224,577,216,577,211,583,211,591,216,596,224,596,230,591,230,583,238,583,238,591,244,596,252,596,252,604,244,604,238,610,238,618,230,618,230,610,224,604,216,604,211,610,211,618,216,624,224,624,224,632,216,632,211,637,211,645,203,645,203,637,197,632,189,632,189,624,197,624,203,618,203,610,197,604,189,604,183,610,183,618,175,618,175,610,170,604,162,604,162,596,170,596,175,591,175,583,183,583,183,591,189,596,197,596,203,591,203,583,197,577,189,577,189,569,197,569,203,564,203,556,197,550,189,550,183,556,183,564,175,564,175,556,170,550,162,550,156,556,156,564,162,569,170,569,170,577,162,577,156,583,156,591,148,591,148,583,142,577,134,577,134,569,142,569,148,564,148,556,142,550,134,550,129,556,129,564,121,564,121,556,115,550,107,550,107,542,115,542,121,536,121,528,129,528,129,536,134,542,142,542,148,536,148,528,142,523,134,523,134,515,142,515,148,509,148,501,156,501,156,509,162,515,170,515,170,523,162,523,156,528,156,536,162,542,170,542,175,536,175,528,183,528,183,536,189,542,197,542,203,536,203,528,197,523,189,523,189,515,197,515,203,509,203,501,197,495,189,495,183,501,183,509,175,509,175,501,170,495,162,495,162,487,170,487,175,482,175,474,183,474,183,482,189,487,197,487,203,482,203,474,197,468,189,468,189,460,197,460,203,454,203,446,211,446,211,454,216,460,224,460,224,468,216,468,211,474,211,482,216,487,224,487,230,482,230,474,238,474,238,482,244,487,252,487,252,495,244,495,238,501,238,509,230,509,230,501,224,495,216,495,211,501,211,509,216,515,224,515,224,523,216,523,211,528,211,536,216,542,224,542,230,536,230,528,238,528,238,536,244,542,252,542,257,536,257,528,252,523,244,523,244,515,252,515,257,509,257,501,265,501,265,509,271,515,279,515,279,523,271,523,265,528,265,536,271,542,279,542,285,536,285,528,293,528,293,536,298,542,306,542,312,536,312,528,306,523,298,523,298,515,306,515,312,509,312,501,306,495,298,495,293,501,293,509,285,509,285,501,279,495,271,495,271,487,279,487,285,482,285,474,293,474,293,482,298,487,306,487,312,482,312,474,306,468,298,468,298,460,306,460,312,454,312,446,306,441,298,441,293,446,293,454,285,454,285,446,279,441,271,441,265,446,265,454,271,460,279,460,279,468,271,468,265,474,265,482,257,482,257,474,252,468,244,468,244,460,252,460,257,454,257,446,252,441,244,441,238,446,238,454,230,454,230,446,224,441,216,441,216,433,224,433,230,427,230,419,238,419,238,427,244,433,252,433,257,427,257,419,252,413,244,413,244,405,252,405,257,400,257,392,265,392,265,400,271,405,279,405,279,413,271,413,265,419,265,427,271,433,279,433,285,427,285,419,293,419,293,427,298,433,306,433,312,427,312,419,306,413,298,413,298,405,306,405,312,400,312,392,306,386,298,386,293,392,293,400,285,400,285,392,279,386,271,386,271,378,279,378,285,372,285,364,293,364,293,372,298,378,306,378,312,372,312,364,306,359,298,359,298,351,306,351,312,345,312,337,306,331,298,331,293,337,293,345,285,345,285,337,279,331,271,331,265,337,265,345,271,351,279,351,279,359,271,359,265,364,265,372,257,372,257,364,252,359,244,359,244,351,252,351,257,345,257,337,252,331,244,331,238,337,238,345,230,345,230,337,224,331,216,331,211,337,211,345,216,351,224,351,224,359,216,359,211,364,211,372,216,378,224,378,230,372,230,364,238,364,238,372,244,378,252,378,252,386,244,386,238,392,238,400,230,400,230,392,224,386,216,386,211,392,211,400,216,405,224,405,224,413,216,413,211,419,211,427,203,427,203,419,197,413,189,413,189,405,197,405,203,400,203,392,197,386,189,386,183,392,183,400,175,400,175,392,170,386,162,386,162,378,170,378,175,372,175,364,183,364,183,372,189,378,197,378,203,372,203,364,197,359,189,359,189,351,197,351,203,345,203,337,197,331,189,331,183,337,183,345,175,345,175,337,170,331,162,331,156,337,156,345,162,351,170,351,170,359,162,359,156,364,156,372,148,372,148,364,142,359,134,359,134,351,142,351,148,345,148,337,142,331,134,331,129,337,129,345,121,345,121,337,115,331,107,331,101,337,101,345,107,351,115,351,115,359,107,359,101,364,101,372,107,378,115,378,121,372,121,364,129,364,129,372,134,378,142,378,142,386,134,386,129,392,129,400,121,400,121,392,115,386,107,386,101,392,101,400,107,405,115,405,115,413,107,413,101,419,101,427,107,433,115,433,121,427,121,419,129,419,129,427,134,433,142,433,148,427,148,419,142,413,134,413,134,405,142,405,148,400,148,392,156,392,156,400,162,405,170,405,170,413,162,413,156,419,156,427,162,433,170,433,175,427,175,419,183,419,183,427,189,433,197,433,197,441,189,441,183,446,183,454,175,454,175,446,170,441,162,441,156,446,156,454,162,460,170,460,170,468,162,468,156,474,156,482,148,482,148,474,142,468,134,468,134,460,142,460,148,454,148,446,142,441,134,441,129,446,129,454,121,454,121,446,115,441,107,441,101,446,101,454,107,460,115,460,115,468,107,468,101,474,101,482,107,487,115,487,121,482,121,474,129,474,129,482,134,487,142,487,142,495,134,495,129,501,129,509,121,509,121,501,115,495,107,495,101,501,101,509,107,515,115,515,115,523,107,523,101,528,101,536,93,536,93,528,88,523,80,523,80,515,88,515,93,509,93,501,88,495,80,495,74,501,74,509,66,509,66,501,61,495,53,495,53,487,61,487,66,482,66,474,74,474,74,482,80,487,88,487,93,482,93,474,88,468,80,468,80,460,88,460,93,454,93,446,88,441,80,441,74,446,74,454,66,454,66,446,61,441,53,441,47,446,47,454,53,460,61,460,61,468,53,468,47,474,47,482,39,482,39,474,33,468,25,468,25,460,33,460,39,454,39,446,33,441,25,441,20,446,20,454,12,454,12,446,6,441,-2,441,-2,433,6,433,12,427,12,419,20,419,20,427,25,433,33,433,39,427,39,419,33,413,25,413,25,405,33,405,39,400,39,392,47,392,47,400,53,405,61,405,61,413,53,413,47,419,47,427,53,433,61,433,66,427,66,419,74,419,74,427,80,433,88,433,93,427,93,419,88,413,80,413,80,405,88,405,93,400,93,392,88,386,80,386,74,392,74,400,66,400,66,392,61,386,53,386,53,378,61,378,66,372,66,364,74,364,74,372,80,378,88,378,93,372,93,364,88,359,80,359,80,351,88,351,93,345,93,337,88,331,80,331,74,337,74,345,66,345,66,337,61,331,53,331,47,337,47,345,53,351,61,351,61,359,53,359,47,364,47,372,39,372,39,364,33,359,25,359,25,351,33,351,39,345,39,337,33,331,25,331,20,337,20,345,12,345,12,337,6,331,-2,331,-8,337,-8,345,-2,351,6,351,6,359,-2,359,-8,364,-8,372,-2,378,6,378,12,372,12,364,20,364,20,372,25,378,33,378,33,386,25,386,20,392,20,400,12,400,12,392,6,386,-2,386,-8,392,-8,400,-2,405,6,405,6,413,-2,413,-8,419,-8,427,-16,427,-16,419,-21,413,-29,413,-29,405,-21,405,-16,400,-16,392,-21,386,-29,386,-35,392,-35,400,-43,400,-43,392,-49,386,-57,386,-57,378,-49,378,-43,372,-43,364,-35,364,-35,372,-29,378,-21,378,-16,372,-16,364,-21,359,-29,359,-29,351,-21,351,-16,345,-16,337,-21,331,-29,331,-35,337,-35,345,-43,345,-43,337,-49,331,-57,331,-62,337,-62,345,-57,351,-49,351,-49,359,-57,359,-62,364,-62,372,-70,372,-70,364,-76,359,-84,359,-84,351,-76,351,-70,345,-70,337,-76,331,-84,331,-90,337,-90,345,-98,345,-98,337,-103,331,-111,331,-111,323,-103,323,-98,318,-98,310,-90,310,-90,318,-84,323,-76,323,-70,318,-70,310,-76,304,-84,304,-84,296,-76,296,-70,290,-70,282,-62,282,-62,290,-57,296,-49,296,-49,304,-57,304,-62,310,-62,318,-57,323,-49,323,-43,318,-43,310,-35,310,-35,318,-29,323,-21,323,-16,318,-16,310,-21,304,-29,304,-29,296,-21,296,-16,290,-16,282,-21,277,-29,277,-35,282,-35,290,-43,290,-43,282,-49,277,-57,277,-57,269,-49,269,-43,263,-43,255,-35,255,-35,263,-29,269,-21,269,-16,263,-16,255,-21,249,-29,249,-29,241,-21,241,-16,236,-16,228,-8,228,-8,236,-2,241,6,241,6,249,-2,249,-8,255,-8,263,-2,269,6,269,12,263,12,255,20,255,20,263,25,269,33,269,33,277,25,277,20,282,20,290,12,290,12,282,6,277,-2,277,-8,282,-8,290,-2,296,6,296,6,304,-2,304,-8,310,-8,318,-2,323,6,323,12,318,12,310,20,310,20,318,25,323,33,323,39,318,39,310,33,304,25,304,25,296,33,296,39,290,39,282,47,282,47,290,53,296,61,296,61,304,53,304,47,310,47,318,53,323,61,323,66,318,66,310,74,310,74,318,80,323,88,323,93,318,93,310,88,304,80,304,80,296,88,296,93,290,93,282,88,277,80,277,74,282,74,290,66,290,66,282,61,277,53,277,53,269,61,269,66,263,66,255,74,255,74,263,80,269,88,269,93,263,93,255,88,249,80,249,80,241,88,241,93,236,93,228,88,222,80,222,74,228,74,236,66,236,66,228,61,222,53,222,47,228,47,236,53,241,61,241,61,249,53,249,47,255,47,263,39,263,39,255,33,249,25,249,25,241,33,241,39,236,39,228,33,222,25,222,20,228,20,236,12,236,12,228,6,222,-2,222,-2,214,6,214,12,208,12,200,20,200,20,208,25,214,33,214,39,208,39,200,33,195,25,195,25,187,33,187,39,181,39,173,47,173,47,181,53,187,61,187,61,195,53,195,47,200,47,208,53,214,61,214,66,208,66,200,74,200,74,208,80,214,88,214,93,208,93,200,88,195,80,195,80,187,88,187,93,181,93,173,88,167,80,167,74,173,74,181,66,181,66,173,61,167,53,167,53,159,61,159,66,154,66,146,74,146,74,154,80,159,88,159,93,154,93,146,88,140,80,140,80,132,88,132,93,127,93,119,101,119,101,127,107,132,115,132,115,140,107,140,101,146,101,154,107,159,115,159,121,154,121,146,129,146,129,154,134,159,142,159,142,167,134,167,129,173,129,181,121,181,121,173,115,167,107,167,101,173,101,181,107,187,115,187,115,195,107,195,101,200,101,208,107,214,115,214,121,208,121,200,129,200,129,208,134,214,142,214,148,208,148,200,142,195,134,195,134,187,142,187,148,181,148,173,156,173,156,181,162,187,170,187,170,195,162,195,156,200,156,208,162,214,170,214,175,208,175,200,183,200,183,208,189,214,197,214,197,222,189,222,183,228,183,236,175,236,175,228,170,222,162,222,156,228,156,236,162,241,170,241,170,249,162,249,156,255,156,263,148,263,148,255,142,249,134,249,134,241,142,241,148,236,148,228,142,222,134,222,129,228,129,236,121,236,121,228,115,222,107,222,101,228,101,236,107,241,115,241,115,249,107,249,101,255,101,263,107,269,115,269,121,263,121,255,129,255,129,263,134,269,142,269,142,277,134,277,129,282,129,290,121,290,121,282,115,277,107,277,101,282,101,290,107,296,115,296,115,304,107,304,101,310,101,318,107,323,115,323,121,318,121,310,129,310,129,318,134,323,142,323,148,318,148,310,142,304,134,304,134,296,142,296,148,290,148,282,156,282,156,290,162,296,170,296,170,304,162,304,156,310,156,318,162,323,170,323,175,318,175,310,183,310,183,318,189,323,197,323,203,318,203,310,197,304,189,304,189,296,197,296,203,290,203,282,197,277,189,277,183,282,183,290,175,290,175,282,170,277,162,277,162,269,170,269,175,263,175,255,183,255,183,263,189,269,197,269,203,263,203,255,197,249,189,249,189,241,197,241,203,236,203,228,211,228,211,236,216,241,224,241,224,249,216,249,211,255,211,263,216,269,224,269,230,263,230,255,238,255,238,263,244,269,252,269,252,277,244,277,238,282,238,290,230,290,230,282,224,277,216,277,211,282,211,290,216,296,224,296,224,304,216,304,211,310,211,318,216,323,224,323,230,318,230,310,238,310,238,318,244,323,252,323,257,318,257,310,252,304,244,304,244,296,252,296,257,290,257,282,265,282,265,290,271,296,279,296,279,304,271,304,265,310,265,318,271,323,279,323,285,318,285,310,293,310,293,318,298,323,306,323,312,318,312,310,306,304,298,304,298,296,306,296,312,290,312,282,306,277,298,277,293,282,293,290,285,290,285,282,279,277,271,277,271,269,279,269,285,263,285,255,293,255,293,263,298,269,306,269,312,263,312,255,306,249,298,249,298,241,306,241,312,236,312,228,306,222,298,222,293,228,293,236,285,236,285,228,279,222,271,222,265,228,265,236,271,241,279,241,279,249,271,249,265,255,265,263,257,263,257,255,252,249,244,249,244,241,252,241,257,236,257,228,252,222,244,222,238,228,238,236,230,236,230,228,224,222,216,222,216,214,224,214,230,208,230,200,238,200,238,208,244,214,252,214,257,208,257,200,252,195,244,195,244,187,252,187,257,181,257,173,265,173,265,181,271,187,279,187,279,195,271,195,265,200,265,208,271,214,279,214,285,208,285,200,293,200,293,208,298,214,306,214,312,208,312,200,306,195,298,195,298,187,306,187,312,181,312,173,306,167,298,167,293,173,293,181,285,181,285,173,279,167,271,167,271,159,279,159,285,154,285,146,293,146,293,154,298,159,306,159,312,154,312,146,306,140,298,140,298,132,306,132,312,127,312,119,306,113,298,113,293,119,293,127,285,127,285,119,279,113,271,113,265,119,265,127,271,132,279,132,279,140,271,140,265,146,265,154,257,154,257,146,252,140,244,140,244,132,252,132,257,127,257,119,252,113,244,113,238,119,238,127,230,127,230,119,224,113,216,113,211,119,211,127,216,132,224,132,224,140,216,140,211,146,211,154,216,159,224,159,230,154,230,146,238,146,238,154,244,159,252,159,252,167,244,167,238,173,238,181,230,181,230,173,224,167,216,167,211,173,211,181,216,187,224,187,224,195,216,195,211,200,211,208,203,208,203,200,197,195,189,195,189,187,197,187,203,181,203,173,197,167,189,167,183,173,183,181,175,181,175,173,170,167,162,167,162,159,170,159,175,154,175,146,183,146,183,154,189,159,197,159,203,154,203,146,197,140,189,140,189,132,197,132,203,127,203,119,197,113,189,113,183,119,183,127,175,127,175,119,170,113,162,113,156,119,156,127,162,132,170,132,170,140,162,140,156,146,156,154,148,154,148,146,142,140,134,140,134,132,142,132,148,127,148,119,142,113,134,113,129,119,129,127,121,127,121,119,115,113,107,113,107,105,115,105,121,99,121,91,129,91,129,99,134,105,142,105,148,99,148,91,142,86,134,86,134,78,142,78,148,72,148,64,156,64,156,72,162,78,170,78,170,86,162,86,156,91,156,99,162,105,170,105,175,99,175,91,183,91,183,99,189,105,197,105,203,99,203,91,197,86,189,86,189,78,197,78,203,72,203,64,197,58,189,58,183,64,183,72,175,72,175,64,170,58,162,58,162,50,170,50,175,45,175,37,183,37,183,45,189,50,197,50,203,45,203,37,197,31,189,31,189,23,197,23,203,17,203,9,211,9,211,17,216,23,224,23,224,31,216,31,211,37,211,45,216,50,224,50,230,45,230,37,238,37,238,45,244,50,252,50,252,58,244,58,238,64,238,72,230,72,230,64,224,58,216,58,211,64,211,72,216,78,224,78,224,86,216,86,211,91,211,99,216,105,224,105,230,99,230,91,238,91,238,99,244,105,252,105,257,99,257,91,252,86,244,86,244,78,252,78,257,72,257,64,265,64,265,72,271,78,279,78,279,86,271,86,265,91,265,99,271,105,279,105,285,99,285,91,293,91,293,99,298,105,306,105,312,99,312,91,306,86,298,86,298,78,306,78,312,72,312,64,306,58,298,58,293,64,293,72,285,72,285,64,279,58,271,58,271,50,279,50,285,45,285,37,293,37,293,45,298,50,306,50,312,45,312,37,306,31,298,31,298,23,306,23,312,17,312,9,306,4,298,4,293,9,293,17,285,17,285,9,279,4,271,4,265,9,265,17,271,23,279,23,279,31,271,31,265,37,265,45,257,45,257,37,252,31,244,31,244,23,252,23,257,17,257,9,252,4,244,4,238,9,238,17,230,17,230,9,224,4,216,4,216,-4,224,-4,230,-10,230,-18,238,-18,238,-10,244,-4,252,-4,257,-10,257,-18,252,-24,244,-24,244,-32,252,-32,257,-37,257,-45,265,-45,265,-37,271,-32,279,-32,279,-24,271,-24,265,-18,265,-10,271,-4,279,-4,285,-10,285,-18,293,-18,293,-10,298,-4,306,-4,312,-10,312,-18,306,-24,298,-24,298,-32,306,-32,312,-37,312,-45,306,-51,298,-51,293,-45,293,-37,285,-37,285,-45,279,-51,271,-51,271,-59,279,-59,285,-65,285,-73,293,-73,293,-65,298,-59,306,-59,312,-65,312,-73,306,-78,298,-78,298,-86,306,-86,312,-92,312,-100" fill="black" transform="rotate(45, 320, 320)" style="stroke:#F7DF1E" />
</svg>
