<svg xmlns="http://www.w3.org/2000/svg" xmlns:svg="http://www.w3.org/2000/svg" xmlns:xlink="http://www.w3.org/1999/xlink" width="1000" height="600"><rect width="1000" height="600" style="fill: white" /><g transform="translate(40,567.5)"><line x1="4.75" y1="-3.142857" x2="14.25" y2="-6.285714" style="stroke:#3333ff; stroke-width: 1.5" />
<line x1="14.25" y1="-6.285714" x2="23.75" y2="-9.428571" style="stroke:#3333ff; stroke-width: 1.5" />
<line x1="23.75" y1="-9.428571" x2="33.25" y2="-12.571429" style="stroke:#3333ff; stroke-width: 1.5" />
<line x1="33.25" y1="-12.571429" x2="42.75" y2="-28.285714" style="stroke:#3333ff; stroke-width: 1.5" />
<line x1="42.75" y1="-28.285714" x2="52.25" y2="-25.142857" style="stroke:#3333ff; stroke-width: 1.5" />
<line x1="52.25" y1="-25.142857" x2="61.75" y2="-47.142857" style="stroke:#3333ff; stroke-width: 1.5" />
<line x1="61.75" y1="-47.142857" x2="71.25" y2="-44" style="stroke:#3333ff; stroke-width: 1.5" />
<line x1="71.25" y1="-44" x2="80.75" y2="-15.714286" style="stroke:#3333ff; stroke-width: 1.5" />
<line x1="80.75" y1="-15.714286" x2="90.25" y2="-18.857143" style="stroke:#3333ff; stroke-width: 1.5" />
<line x1="90.25" y1="-18.857143" x2="99.75" y2="-78.571429" style="stroke:#3333ff; stroke-width: 1.5" />
<line x1="99.75" y1="-78.571429" x2="109.25" y2="-37.714286" style="stroke:#3333ff; stroke-width: 1.5" />
<line x1="109.25" y1="-37.714286" x2="118.75" y2="-110" style="stroke:#3333ff; stroke-width: 1.5" />
<line x1="118.75" y1="-110" x2="128.25" y2="-50.285714" style="stroke:#3333ff; stroke-width: 1.5" />
<line x1="128.25" y1="-50.285714" x2="137.75" y2="-22" style="stroke:#3333ff; stroke-width: 1.5" />
<line x1="137.75" y1="-22" x2="147.25" y2="-31.428571" style="stroke:#3333ff; stroke-width: 1.5" />
<line x1="147.25" y1="-31.428571" x2="156.75" y2="-66" style="stroke:#3333ff; stroke-width: 1.5" />
<line x1="156.75" y1="-66" x2="166.25" y2="-62.857143" style="stroke:#3333ff; stroke-width: 1.5" />
<line x1="166.25" y1="-62.857143" x2="175.75" y2="-84.857143" style="stroke:#3333ff; stroke-width: 1.5" />
<line x1="175.75" y1="-84.857143" x2="185.25" y2="-69.142857" style="stroke:#3333ff; stroke-width: 1.5" />
<line x1="185.25" y1="-69.142857" x2="194.75" y2="-122.571429" style="stroke:#3333ff; stroke-width: 1.5" />
<line x1="194.75" y1="-122.571429" x2="204.25" y2="-34.571429" style="stroke:#3333ff; stroke-width: 1.5" />
<line x1="204.25" y1="-34.571429" x2="213.75" y2="-40.857143" style="stroke:#3333ff; stroke-width: 1.5" />
<line x1="213.75" y1="-40.857143" x2="223.25" y2="-103.714286" style="stroke:#3333ff; stroke-width: 1.5" />
<line x1="223.25" y1="-103.714286" x2="232.75" y2="-81.714286" style="stroke:#3333ff; stroke-width: 1.5" />
<line x1="232.75" y1="-81.714286" x2="242.25" y2="-141.428571" style="stroke:#3333ff; stroke-width: 1.5" />
<line x1="242.25" y1="-141.428571" x2="251.75" y2="-88" style="stroke:#3333ff; stroke-width: 1.5" />
<line x1="251.75" y1="-88" x2="261.25" y2="-160.285714" style="stroke:#3333ff; stroke-width: 1.5" />
<line x1="261.25" y1="-160.285714" x2="270.75" y2="-100.571429" style="stroke:#3333ff; stroke-width: 1.5" />
<line x1="270.75" y1="-100.571429" x2="280.25" y2="-53.428571" style="stroke:#3333ff; stroke-width: 1.5" />
<line x1="280.25" y1="-53.428571" x2="289.75" y2="-56.571429" style="stroke:#3333ff; stroke-width: 1.5" />
<line x1="289.75" y1="-56.571429" x2="299.25" y2="-267.142857" style="stroke:#3333ff; stroke-width: 1.5" />
<line x1="299.25" y1="-267.142857" x2="308.75" y2="-75.428571" style="stroke:#3333ff; stroke-width: 1.5" />
<line x1="308.75" y1="-75.428571" x2="318.25" y2="-172.857143" style="stroke:#3333ff; stroke-width: 1.5" />
<line x1="318.25" y1="-172.857143" x2="327.75" y2="-106.857143" style="stroke:#3333ff; stroke-width: 1.5" />
<line x1="327.75" y1="-106.857143" x2="337.25" y2="-204.285714" style="stroke:#3333ff; stroke-width: 1.5" />
<line x1="337.25" y1="-204.285714" x2="346.75" y2="-113.142857" style="stroke:#3333ff; stroke-width: 1.5" />
<line x1="346.75" y1="-113.142857" x2="356.25" y2="-286" style="stroke:#3333ff; stroke-width: 1.5" />
<line x1="356.25" y1="-286" x2="365.75" y2="-94.285714" style="stroke:#3333ff; stroke-width: 1.5" />
<line x1="365.75" y1="-94.285714" x2="375.25" y2="-154" style="stroke:#3333ff; stroke-width: 1.5" />
<line x1="375.25" y1="-154" x2="384.75" y2="-119.428571" style="stroke:#3333ff; stroke-width: 1.5" />
<line x1="384.75" y1="-119.428571" x2="394.25" y2="-198" style="stroke:#3333ff; stroke-width: 1.5" />
<line x1="394.25" y1="-198" x2="403.75" y2="-59.714286" style="stroke:#3333ff; stroke-width: 1.5" />
<line x1="403.75" y1="-59.714286" x2="413.25" y2="-132" style="stroke:#3333ff; stroke-width: 1.5" />
<line x1="413.25" y1="-132" x2="422.75" y2="-298.571429" style="stroke:#3333ff; stroke-width: 1.5" />
<line x1="422.75" y1="-298.571429" x2="432.25" y2="-138.285714" style="stroke:#3333ff; stroke-width: 1.5" />
<line x1="432.25" y1="-138.285714" x2="441.75" y2="-179.142857" style="stroke:#3333ff; stroke-width: 1.5" />
<line x1="441.75" y1="-179.142857" x2="451.25" y2="-125.714286" style="stroke:#3333ff; stroke-width: 1.5" />
<line x1="451.25" y1="-125.714286" x2="460.75" y2="-216.857143" style="stroke:#3333ff; stroke-width: 1.5" />
<line x1="460.75" y1="-216.857143" x2="470.25" y2="-157.142857" style="stroke:#3333ff; stroke-width: 1.5" />
<line x1="470.25" y1="-157.142857" x2="479.75" y2="-72.285714" style="stroke:#3333ff; stroke-width: 1.5" />
<line x1="479.75" y1="-72.285714" x2="489.25" y2="-150.857143" style="stroke:#3333ff; stroke-width: 1.5" />
<line x1="489.25" y1="-150.857143" x2="498.75" y2="-361.428571" style="stroke:#3333ff; stroke-width: 1.5" />
<line x1="498.75" y1="-361.428571" x2="508.25" y2="-163.428571" style="stroke:#3333ff; stroke-width: 1.5" />
<line x1="508.25" y1="-163.428571" x2="517.75" y2="-235.714286" style="stroke:#3333ff; stroke-width: 1.5" />
<line x1="517.75" y1="-235.714286" x2="527.25" y2="-144.571429" style="stroke:#3333ff; stroke-width: 1.5" />
<line x1="527.25" y1="-144.571429" x2="536.75" y2="-254.571429" style="stroke:#3333ff; stroke-width: 1.5" />
<line x1="536.75" y1="-254.571429" x2="546.25" y2="-176" style="stroke:#3333ff; stroke-width: 1.5" />
<line x1="546.25" y1="-176" x2="555.75" y2="-273.428571" style="stroke:#3333ff; stroke-width: 1.5" />
<line x1="555.75" y1="-273.428571" x2="565.25" y2="-194.857143" style="stroke:#3333ff; stroke-width: 1.5" />
<line x1="565.25" y1="-194.857143" x2="574.75" y2="-91.142857" style="stroke:#3333ff; stroke-width: 1.5" />
<line x1="574.75" y1="-91.142857" x2="584.25" y2="-97.428571" style="stroke:#3333ff; stroke-width: 1.5" />
<line x1="584.25" y1="-97.428571" x2="593.75" y2="-182.285714" style="stroke:#3333ff; stroke-width: 1.5" />
<line x1="593.75" y1="-182.285714" x2="603.25" y2="-292.285714" style="stroke:#3333ff; stroke-width: 1.5" />
<line x1="603.25" y1="-292.285714" x2="612.75" y2="-201.142857" style="stroke:#3333ff; stroke-width: 1.5" />
<line x1="612.75" y1="-201.142857" x2="622.25" y2="-311.142857" style="stroke:#3333ff; stroke-width: 1.5" />
<line x1="622.25" y1="-311.142857" x2="631.75" y2="-213.714286" style="stroke:#3333ff; stroke-width: 1.5" />
<line x1="631.75" y1="-213.714286" x2="641.25" y2="-242" style="stroke:#3333ff; stroke-width: 1.5" />
<line x1="641.25" y1="-242" x2="650.75" y2="-169.714286" style="stroke:#3333ff; stroke-width: 1.5" />
<line x1="650.75" y1="-169.714286" x2="660.25" y2="-374" style="stroke:#3333ff; stroke-width: 1.5" />
<line x1="660.25" y1="-374" x2="669.75" y2="-188.571429" style="stroke:#3333ff; stroke-width: 1.5" />
<line x1="669.75" y1="-188.571429" x2="679.25" y2="-418" style="stroke:#3333ff; stroke-width: 1.5" />
<line x1="679.25" y1="-418" x2="688.75" y2="-207.428571" style="stroke:#3333ff; stroke-width: 1.5" />
<line x1="688.75" y1="-207.428571" x2="698.25" y2="-506" style="stroke:#3333ff; stroke-width: 1.5" />
<line x1="698.25" y1="-506" x2="707.75" y2="-226.285714" style="stroke:#3333ff; stroke-width: 1.5" />
<line x1="707.75" y1="-226.285714" x2="717.25" y2="-550" style="stroke:#3333ff; stroke-width: 1.5" />
<line x1="717.25" y1="-550" x2="726.75" y2="-232.571429" style="stroke:#3333ff; stroke-width: 1.5" />
<line x1="726.75" y1="-232.571429" x2="736.25" y2="-330" style="stroke:#3333ff; stroke-width: 1.5" />
<line x1="736.25" y1="-330" x2="745.75" y2="-116.285714" style="stroke:#3333ff; stroke-width: 1.5" />
<line x1="745.75" y1="-116.285714" x2="755.25" y2="-220" style="stroke:#3333ff; stroke-width: 1.5" />
<line x1="755.25" y1="-220" x2="764.75" y2="-348.857143" style="stroke:#3333ff; stroke-width: 1.5" />
<line x1="764.75" y1="-348.857143" x2="774.25" y2="-238.857143" style="stroke:#3333ff; stroke-width: 1.5" />
<line x1="774.25" y1="-238.857143" x2="783.75" y2="-367.714286" style="stroke:#3333ff; stroke-width: 1.5" />
<line x1="783.75" y1="-367.714286" x2="793.25" y2="-251.428571" style="stroke:#3333ff; stroke-width: 1.5" />
<line x1="793.25" y1="-251.428571" x2="802.75" y2="-386.571429" style="stroke:#3333ff; stroke-width: 1.5" />
<line x1="802.75" y1="-386.571429" x2="812.25" y2="-270.285714" style="stroke:#3333ff; stroke-width: 1.5" />
<line x1="812.25" y1="-270.285714" x2="821.75" y2="-128.857143" style="stroke:#3333ff; stroke-width: 1.5" />
<line x1="821.75" y1="-128.857143" x2="831.25" y2="-135.142857" style="stroke:#3333ff; stroke-width: 1.5" />
<line x1="831.25" y1="-135.142857" x2="840.75" y2="-257.714286" style="stroke:#3333ff; stroke-width: 1.5" />
<line x1="840.75" y1="-257.714286" x2="850.25" y2="-405.428571" style="stroke:#3333ff; stroke-width: 1.5" />
<line x1="850.25" y1="-405.428571" x2="859.75" y2="-276.571429" style="stroke:#3333ff; stroke-width: 1.5" />
<line x1="859.75" y1="-276.571429" x2="869.25" y2="-424.285714" style="stroke:#3333ff; stroke-width: 1.5" />
<line x1="869.25" y1="-424.285714" x2="878.75" y2="-289.142857" style="stroke:#3333ff; stroke-width: 1.5" />
<line x1="878.75" y1="-289.142857" x2="888.25" y2="-392.857143" style="stroke:#3333ff; stroke-width: 1.5" />
<line x1="888.25" y1="-392.857143" x2="897.75" y2="-245.142857" style="stroke:#3333ff; stroke-width: 1.5" />
<line x1="897.75" y1="-245.142857" x2="907.25" y2="-455.714286" style="stroke:#3333ff; stroke-width: 1.5" />
<line x1="907.25" y1="-455.714286" x2="916.75" y2="-264" style="stroke:#3333ff; stroke-width: 1.5" />
<line x1="916.75" y1="-264" x2="926.25" y2="-487.142857" style="stroke:#3333ff; stroke-width: 1.5" />
<line x1="926.25" y1="-487.142857" x2="935.75" y2="-295.428571" style="stroke:#3333ff; stroke-width: 1.5" />
<line x1="935.75" y1="-295.428571" x2="945.25" y2="-518.571429" style="stroke:#3333ff; stroke-width: 1.5" />
<text transform="rotate(-90)" y="3.8" x="-2.5" font-size="12" dominant-baseline="middle" text-anchor="end">0</text>
<text transform="rotate(-90)" y="22.8" x="-2.5" font-size="12" dominant-baseline="middle" text-anchor="end">2</text>
<text transform="rotate(-90)" y="41.8" x="-2.5" font-size="12" dominant-baseline="middle" text-anchor="end">4</text>
<text transform="rotate(-90)" y="60.8" x="-2.5" font-size="12" dominant-baseline="middle" text-anchor="end">6</text>
<text transform="rotate(-90)" y="79.8" x="-2.5" font-size="12" dominant-baseline="middle" text-anchor="end">8</text>
<text transform="rotate(-90)" y="98.8" x="-2.5" font-size="12" dominant-baseline="middle" text-anchor="end">10</text>
<text transform="rotate(-90)" y="117.8" x="-2.5" font-size="12" dominant-baseline="middle" text-anchor="end">12</text>
<text transform="rotate(-90)" y="136.8" x="-2.5" font-size="12" dominant-baseline="middle" text-anchor="end">14</text>
<text transform="rotate(-90)" y="155.8" x="-2.5" font-size="12" dominant-baseline="middle" text-anchor="end">16</text>
<text transform="rotate(-90)" y="174.8" x="-2.5" font-size="12" dominant-baseline="middle" text-anchor="end">18</text>
<text transform="rotate(-90)" y="193.8" x="-2.5" font-size="12" dominant-baseline="middle" text-anchor="end">20</text>
<text transform="rotate(-90)" y="212.8" x="-2.5" font-size="12" dominant-baseline="middle" text-anchor="end">22</text>
<text transform="rotate(-90)" y="231.8" x="-2.5" font-size="12" dominant-baseline="middle" text-anchor="end">24</text>
<text transform="rotate(-90)" y="250.8" x="-2.5" font-size="12" dominant-baseline="middle" text-anchor="end">26</text>
<text transform="rotate(-90)" y="269.8" x="-2.5" font-size="12" dominant-baseline="middle" text-anchor="end">28</text>
<text transform="rotate(-90)" y="288.8" x="-2.5" font-size="12" dominant-baseline="middle" text-anchor="end">30</text>
<text transform="rotate(-90)" y="307.8" x="-2.5" font-size="12" dominant-baseline="middle" text-anchor="end">32</text>
<text transform="rotate(-90)" y="326.8" x="-2.5" font-size="12" dominant-baseline="middle" text-anchor="end">34</text>
<text transform="rotate(-90)" y="345.8" x="-2.5" font-size="12" dominant-baseline="middle" text-anchor="end">36</text>
<text transform="rotate(-90)" y="364.8" x="-2.5" font-size="12" dominant-baseline="middle" text-anchor="end">38</text>
<text transform="rotate(-90)" y="383.8" x="-2.5" font-size="12" dominant-baseline="middle" text-anchor="end">40</text>
<text transform="rotate(-90)" y="402.8" x="-2.5" font-size="12" dominant-baseline="middle" text-anchor="end">42</text>
<text transform="rotate(-90)" y="421.8" x="-2.5" font-size="12" dominant-baseline="middle" text-anchor="end">44</text>
<text transform="rotate(-90)" y="440.8" x="-2.5" font-size="12" dominant-baseline="middle" text-anchor="end">46</text>
<text transform="rotate(-90)" y="459.8" x="-2.5" font-size="12" dominant-baseline="middle" text-anchor="end">48</text>
<text transform="rotate(-90)" y="478.8" x="-2.5" font-size="12" dominant-baseline="middle" text-anchor="end">50</text>
<text transform="rotate(-90)" y="497.8" x="-2.5" font-size="12" dominant-baseline="middle" text-anchor="end">52</text>
<text transform="rotate(-90)" y="516.8" x="-2.5" font-size="12" dominant-baseline="middle" text-anchor="end">54</text>
<text transform="rotate(-90)" y="535.8" x="-2.5" font-size="12" dominant-baseline="middle" text-anchor="end">56</text>
<text transform="rotate(-90)" y="554.8" x="-2.5" font-size="12" dominant-baseline="middle" text-anchor="end">58</text>
<text transform="rotate(-90)" y="573.8" x="-2.5" font-size="12" dominant-baseline="middle" text-anchor="end">60</text>
<text transform="rotate(-90)" y="592.8" x="-2.5" font-size="12" dominant-baseline="middle" text-anchor="end">62</text>
<text transform="rotate(-90)" y="611.8" x="-2.5" font-size="12" dominant-baseline="middle" text-anchor="end">64</text>
<text transform="rotate(-90)" y="630.8" x="-2.5" font-size="12" dominant-baseline="middle" text-anchor="end">66</text>
<text transform="rotate(-90)" y="649.8" x="-2.5" font-size="12" dominant-baseline="middle" text-anchor="end">68</text>
<text transform="rotate(-90)" y="668.8" x="-2.5" font-size="12" dominant-baseline="middle" text-anchor="end">70</text>
<text transform="rotate(-90)" y="687.8" x="-2.5" font-size="12" dominant-baseline="middle" text-anchor="end">72</text>
<text transform="rotate(-90)" y="706.8" x="-2.5" font-size="12" dominant-baseline="middle" text-anchor="end">74</text>
<text transform="rotate(-90)" y="725.8" x="-2.5" font-size="12" dominant-baseline="middle" text-anchor="end">76</text>
<text transform="rotate(-90)" y="744.8" x="-2.5" font-size="12" dominant-baseline="middle" text-anchor="end">78</text>
<text transform="rotate(-90)" y="763.8" x="-2.5" font-size="12" dominant-baseline="middle" text-anchor="end">80</text>
<text transform="rotate(-90)" y="782.8" x="-2.5" font-size="12" dominant-baseline="middle" text-anchor="end">82</text>
<text transform="rotate(-90)" y="801.8" x="-2.5" font-size="12" dominant-baseline="middle" text-anchor="end">84</text>
<text transform="rotate(-90)" y="820.8" x="-2.5" font-size="12" dominant-baseline="middle" text-anchor="end">86</text>
<text transform="rotate(-90)" y="839.8" x="-2.5" font-size="12" dominant-baseline="middle" text-anchor="end">88</text>
<text transform="rotate(-90)" y="858.8" x="-2.5" font-size="12" dominant-baseline="middle" text-anchor="end">90</text>
<text transform="rotate(-90)" y="877.8" x="-2.5" font-size="12" dominant-baseline="middle" text-anchor="end">92</text>
<text transform="rotate(-90)" y="896.8" x="-2.5" font-size="12" dominant-baseline="middle" text-anchor="end">94</text>
<text transform="rotate(-90)" y="915.8" x="-2.5" font-size="12" dominant-baseline="middle" text-anchor="end">96</text>
<text transform="rotate(-90)" y="934.8" x="-2.5" font-size="12" dominant-baseline="middle" text-anchor="end">98</text>
<line x1="-1.25" x2="1.25" y1="0" y2="0" style="stroke:black; stroke-width: 1" />
<text x="-3.75" y="0" font-size="12" text-anchor="end" dominant-baseline="middle">0</text>
<line x1="-1.25" x2="1.25" y1="-15.714286" y2="-15.714286" style="stroke:black; stroke-width: 1" />
<text x="-3.75" y="-15.714286" font-size="12" text-anchor="end" dominant-baseline="middle">5</text>
<line x1="-1.25" x2="1.25" y1="-31.428571" y2="-31.428571" style="stroke:black; stroke-width: 1" />
<text x="-3.75" y="-31.428571" font-size="12" text-anchor="end" dominant-baseline="middle">10</text>
<line x1="-1.25" x2="1.25" y1="-47.142857" y2="-47.142857" style="stroke:black; stroke-width: 1" />
<text x="-3.75" y="-47.142857" font-size="12" text-anchor="end" dominant-baseline="middle">15</text>
<line x1="-1.25" x2="1.25" y1="-62.857143" y2="-62.857143" style="stroke:black; stroke-width: 1" />
<text x="-3.75" y="-62.857143" font-size="12" text-anchor="end" dominant-baseline="middle">20</text>
<line x1="-1.25" x2="1.25" y1="-78.571429" y2="-78.571429" style="stroke:black; stroke-width: 1" />
<text x="-3.75" y="-78.571429" font-size="12" text-anchor="end" dominant-baseline="middle">25</text>
<line x1="-1.25" x2="1.25" y1="-94.285714" y2="-94.285714" style="stroke:black; stroke-width: 1" />
<text x="-3.75" y="-94.285714" font-size="12" text-anchor="end" dominant-baseline="middle">30</text>
<line x1="-1.25" x2="1.25" y1="-110" y2="-110" style="stroke:black; stroke-width: 1" />
<text x="-3.75" y="-110" font-size="12" text-anchor="end" dominant-baseline="middle">35</text>
<line x1="-1.25" x2="1.25" y1="-125.714286" y2="-125.714286" style="stroke:black; stroke-width: 1" />
<text x="-3.75" y="-125.714286" font-size="12" text-anchor="end" dominant-baseline="middle">40</text>
<line x1="-1.25" x2="1.25" y1="-141.428571" y2="-141.428571" style="stroke:black; stroke-width: 1" />
<text x="-3.75" y="-141.428571" font-size="12" text-anchor="end" dominant-baseline="middle">45</text>
<line x1="-1.25" x2="1.25" y1="-157.142857" y2="-157.142857" style="stroke:black; stroke-width: 1" />
<text x="-3.75" y="-157.142857" font-size="12" text-anchor="end" dominant-baseline="middle">50</text>
<line x1="-1.25" x2="1.25" y1="-172.857143" y2="-172.857143" style="stroke:black; stroke-width: 1" />
<text x="-3.75" y="-172.857143" font-size="12" text-anchor="end" dominant-baseline="middle">55</text>
<line x1="-1.25" x2="1.25" y1="-188.571429" y2="-188.571429" style="stroke:black; stroke-width: 1" />
<text x="-3.75" y="-188.571429" font-size="12" text-anchor="end" dominant-baseline="middle">60</text>
<line x1="-1.25" x2="1.25" y1="-204.285714" y2="-204.285714" style="stroke:black; stroke-width: 1" />
<text x="-3.75" y="-204.285714" font-size="12" text-anchor="end" dominant-baseline="middle">65</text>
<line x1="-1.25" x2="1.25" y1="-220" y2="-220" style="stroke:black; stroke-width: 1" />
<text x="-3.75" y="-220" font-size="12" text-anchor="end" dominant-baseline="middle">70</text>
<line x1="-1.25" x2="1.25" y1="-235.714286" y2="-235.714286" style="stroke:black; stroke-width: 1" />
<text x="-3.75" y="-235.714286" font-size="12" text-anchor="end" dominant-baseline="middle">75</text>
<line x1="-1.25" x2="1.25" y1="-251.428571" y2="-251.428571" style="stroke:black; stroke-width: 1" />
<text x="-3.75" y="-251.428571" font-size="12" text-anchor="end" dominant-baseline="middle">80</text>
<line x1="-1.25" x2="1.25" y1="-267.142857" y2="-267.142857" style="stroke:black; stroke-width: 1" />
<text x="-3.75" y="-267.142857" font-size="12" text-anchor="end" dominant-baseline="middle">85</text>
<line x1="-1.25" x2="1.25" y1="-282.857143" y2="-282.857143" style="stroke:black; stroke-width: 1" />
<text x="-3.75" y="-282.857143" font-size="12" text-anchor="end" dominant-baseline="middle">90</text>
<line x1="-1.25" x2="1.25" y1="-298.571429" y2="-298.571429" style="stroke:black; stroke-width: 1" />
<text x="-3.75" y="-298.571429" font-size="12" text-anchor="end" dominant-baseline="middle">95</text>
<line x1="-1.25" x2="1.25" y1="-314.285714" y2="-314.285714" style="stroke:black; stroke-width: 1" />
<text x="-3.75" y="-314.285714" font-size="12" text-anchor="end" dominant-baseline="middle">100</text>
<line x1="-1.25" x2="1.25" y1="-330" y2="-330" style="stroke:black; stroke-width: 1" />
<text x="-3.75" y="-330" font-size="12" text-anchor="end" dominant-baseline="middle">105</text>
<line x1="-1.25" x2="1.25" y1="-345.714286" y2="-345.714286" style="stroke:black; stroke-width: 1" />
<text x="-3.75" y="-345.714286" font-size="12" text-anchor="end" dominant-baseline="middle">110</text>
<line x1="-1.25" x2="1.25" y1="-361.428571" y2="-361.428571" style="stroke:black; stroke-width: 1" />
<text x="-3.75" y="-361.428571" font-size="12" text-anchor="end" dominant-baseline="middle">115</text>
<line x1="-1.25" x2="1.25" y1="-377.142857" y2="-377.142857" style="stroke:black; stroke-width: 1" />
<text x="-3.75" y="-377.142857" font-size="12" text-anchor="end" dominant-baseline="middle">120</text>
<line x1="-1.25" x2="1.25" y1="-392.857143" y2="-392.857143" style="stroke:black; stroke-width: 1" />
<text x="-3.75" y="-392.857143" font-size="12" text-anchor="end" dominant-baseline="middle">125</text>
<line x1="-1.25" x2="1.25" y1="-408.571429" y2="-408.571429" style="stroke:black; stroke-width: 1" />
<text x="-3.75" y="-408.571429" font-size="12" text-anchor="end" dominant-baseline="middle">130</text>
<line x1="-1.25" x2="1.25" y1="-424.285714" y2="-424.285714" style="stroke:black; stroke-width: 1" />
<text x="-3.75" y="-424.285714" font-size="12" text-anchor="end" dominant-baseline="middle">135</text>
<line x1="-1.25" x2="1.25" y1="-440" y2="-440" style="stroke:black; stroke-width: 1" />
<text x="-3.75" y="-440" font-size="12" text-anchor="end" dominant-baseline="middle">140</text>
<line x1="-1.25" x2="1.25" y1="-455.714286" y2="-455.714286" style="stroke:black; stroke-width: 1" />
<text x="-3.75" y="-455.714286" font-size="12" text-anchor="end" dominant-baseline="middle">145</text>
<line x1="-1.25" x2="1.25" y1="-471.428571" y2="-471.428571" style="stroke:black; stroke-width: 1" />
<text x="-3.75" y="-471.428571" font-size="12" text-anchor="end" dominant-baseline="middle">150</text>
<line x1="-1.25" x2="1.25" y1="-487.142857" y2="-487.142857" style="stroke:black; stroke-width: 1" />
<text x="-3.75" y="-487.142857" font-size="12" text-anchor="end" dominant-baseline="middle">155</text>
<line x1="-1.25" x2="1.25" y1="-502.857143" y2="-502.857143" style="stroke:black; stroke-width: 1" />
<text x="-3.75" y="-502.857143" font-size="12" text-anchor="end" dominant-baseline="middle">160</text>
<line x1="-1.25" x2="1.25" y1="-518.571429" y2="-518.571429" style="stroke:black; stroke-width: 1" />
<text x="-3.75" y="-518.571429" font-size="12" text-anchor="end" dominant-baseline="middle">165</text>
<line x1="-1.25" x2="1.25" y1="-534.285714" y2="-534.285714" style="stroke:black; stroke-width: 1" />
<text x="-3.75" y="-534.285714" font-size="12" text-anchor="end" dominant-baseline="middle">170</text>
<line x1="-1.25" x2="1.25" y1="-550" y2="-550" style="stroke:black; stroke-width: 1" />
<text x="-3.75" y="-550" font-size="12" text-anchor="end" dominant-baseline="middle">175</text>
<line x1="0" y1="0" x2="950" y2="0" style="stroke:black; stroke-width: 2" />
<line x1="0" y1="0" x2="0" y2="-550" style="stroke:black; stroke-width: 2" />
<text x="500" y="-555" text-anchor="middle">Yellowstone Sequence - First 100 values (zero indexed)</text>
</g>
</svg>
